<?xml version="1.0" encoding="utf-8"?>
<!-- Generator: Adobe Illustrator 19.0.0, SVG Export Plug-In . SVG Version: 6.00 Build 0)  -->
<svg version="1.1" id="Layer_1" xmlns="http://www.w3.org/2000/svg" xmlns:xlink="http://www.w3.org/1999/xlink" x="0px" y="0px"
	 viewBox="-285 198.9 269.3 198.4" style="enable-background:new -285 198.9 269.3 198.4;" xml:space="preserve">
<style type="text/css">
	.st0{fill-opacity:0;stroke:#000000;stroke-width:0.2;}
	.st1{fill:none;stroke:#000000;stroke-width:0.2;stroke-linecap:round;stroke-linejoin:round;}
</style>
<title></title>
<g id="gge2820">
	<ellipse class="st0" cx="-256.6" cy="341.4" rx="3.5" ry="3.5"/>
	<circle class="st0" cx="-256.6" cy="341.4" r="2"/>
</g>
<g id="gge2825">
	<ellipse class="st0" cx="-221.2" cy="341.4" rx="3.5" ry="3.5"/>
	<circle class="st0" cx="-221.2" cy="341.4" r="2"/>
</g>
<g id="gge2830">
	<ellipse class="st0" cx="-221.2" cy="369.7" rx="3.5" ry="3.5"/>
	<circle class="st0" cx="-221.2" cy="369.7" r="2"/>
</g>
<g id="gge2835">
	<ellipse class="st0" cx="-256.6" cy="369.7" rx="3.5" ry="3.5"/>
	<circle class="st0" cx="-256.6" cy="369.7" r="2"/>
</g>
<g id="gge2840">
	<ellipse class="st0" cx="-232.5" cy="381.1" rx="2.8" ry="2.8"/>
	<circle class="st0" cx="-232.5" cy="381.1" r="1.4"/>
</g>
<g id="gge2845">
	<ellipse class="st0" cx="-239.6" cy="381.1" rx="2.8" ry="2.8"/>
	<circle class="st0" cx="-239.6" cy="381.1" r="1.4"/>
</g>
<g id="gge2850">
	<ellipse class="st0" cx="-246.7" cy="381.1" rx="2.8" ry="2.8"/>
	<circle class="st0" cx="-246.7" cy="381.1" r="1.4"/>
</g>
<g id="gge2855">
	<ellipse class="st0" cx="-265.1" cy="355.6" rx="2.8" ry="2.8"/>
	<circle class="st0" cx="-265.1" cy="355.6" r="1.4"/>
</g>
<g id="gge2860">
	<ellipse class="st0" cx="-265.1" cy="362.6" rx="2.8" ry="2.8"/>
	<circle class="st0" cx="-265.1" cy="362.6" r="1.4"/>
</g>
<g id="gge2865">
	<ellipse class="st0" cx="-265.1" cy="348.5" rx="2.8" ry="2.8"/>
	<circle class="st0" cx="-265.1" cy="348.5" r="1.4"/>
</g>
<g id="gge2870">
	<ellipse class="st0" cx="-230.4" cy="340" rx="2.8" ry="2.8"/>
	<circle class="st0" cx="-230.4" cy="340" r="1.4"/>
</g>
<g id="gge2875">
	<ellipse class="st0" cx="-247.4" cy="340" rx="2.8" ry="2.8"/>
	<circle class="st0" cx="-247.4" cy="340" r="1.4"/>
</g>
<g id="gge2880">
	<ellipse class="st0" cx="-247.4" cy="327.2" rx="2.8" ry="2.8"/>
	<circle class="st0" cx="-247.4" cy="327.2" r="1.4"/>
</g>
<g id="gge2885">
	<ellipse class="st0" cx="-230.4" cy="327.2" rx="2.8" ry="2.8"/>
	<circle class="st0" cx="-230.4" cy="327.2" r="1.4"/>
</g>
<g id="gge2921">
	<ellipse class="st0" cx="-79.5" cy="341.4" rx="3.5" ry="3.5"/>
	<circle class="st0" cx="-79.5" cy="341.4" r="2"/>
</g>
<g id="gge2926">
	<ellipse class="st0" cx="-44" cy="341.4" rx="3.5" ry="3.5"/>
	<circle class="st0" cx="-44" cy="341.4" r="2"/>
</g>
<g id="gge2931">
	<ellipse class="st0" cx="-44" cy="369.7" rx="3.5" ry="3.5"/>
	<circle class="st0" cx="-44" cy="369.7" r="2"/>
</g>
<g id="gge2936">
	<ellipse class="st0" cx="-79.5" cy="369.7" rx="3.5" ry="3.5"/>
	<circle class="st0" cx="-79.5" cy="369.7" r="2"/>
</g>
<g id="gge2941">
	<ellipse class="st0" cx="-55.4" cy="381.1" rx="2.8" ry="2.8"/>
	<circle class="st0" cx="-55.4" cy="381.1" r="1.4"/>
</g>
<g id="gge2946">
	<ellipse class="st0" cx="-62.5" cy="381.1" rx="2.8" ry="2.8"/>
	<circle class="st0" cx="-62.5" cy="381.1" r="1.4"/>
</g>
<g id="gge2951">
	<ellipse class="st0" cx="-69.5" cy="381.1" rx="2.8" ry="2.8"/>
	<circle class="st0" cx="-69.5" cy="381.1" r="1.4"/>
</g>
<g id="gge2956">
	<ellipse class="st0" cx="-88" cy="355.6" rx="2.8" ry="2.8"/>
	<circle class="st0" cx="-88" cy="355.6" r="1.4"/>
</g>
<g id="gge2961">
	<ellipse class="st0" cx="-88" cy="362.6" rx="2.8" ry="2.8"/>
	<circle class="st0" cx="-88" cy="362.6" r="1.4"/>
</g>
<g id="gge2966">
	<ellipse class="st0" cx="-88" cy="348.5" rx="2.8" ry="2.8"/>
	<circle class="st0" cx="-88" cy="348.5" r="1.4"/>
</g>
<g id="gge2971">
	<ellipse class="st0" cx="-53.2" cy="340" rx="2.8" ry="2.8"/>
	<circle class="st0" cx="-53.2" cy="340" r="1.4"/>
</g>
<g id="gge2976">
	<ellipse class="st0" cx="-70.3" cy="340" rx="2.8" ry="2.8"/>
	<circle class="st0" cx="-70.3" cy="340" r="1.4"/>
</g>
<g id="gge2981">
	<ellipse class="st0" cx="-70.3" cy="327.2" rx="2.8" ry="2.8"/>
	<circle class="st0" cx="-70.3" cy="327.2" r="1.4"/>
</g>
<g id="gge2986">
	<ellipse class="st0" cx="-53.2" cy="327.2" rx="2.8" ry="2.8"/>
	<circle class="st0" cx="-53.2" cy="327.2" r="1.4"/>
</g>
<g id="gge271">
	<path class="st0" d="M-152.9,313.8"/>
</g>
<g id="gge416">
	<path class="st0" d="M-196.1,313.8"/>
</g>
<g id="gge2333">
	<circle class="st0" cx="-275.1" cy="388.8" r="3.1"/>
</g>
<g id="gge2338">
	<circle class="st0" cx="-25.7" cy="388.8" r="3.1"/>
</g>
<g id="gge2368">
	<circle class="st0" cx="-25.7" cy="207.4" r="3.1"/>
</g>
<g id="gge2373">
	<circle class="st0" cx="-275.1" cy="207.4" r="3.1"/>
</g>
<polyline id="gge1143" class="st1" points="-285,198.9 -285,397.3 -15.7,397.3 -15.7,198.9 -285,198.9 "/>
</svg>
