  0
SECTION
  2
HEADER
  9
$ACADVER
  1
AC1024
  9
$ACADMAINTVER
 70
     6
  9
$DWGCODEPAGE
  3
ANSI_1252
  9
$INSBASE
 10
0.0
 20
0.0
 30
0.0
  9
$EXTMIN
 10
1.000000000000000E+20
 20
1.000000000000000E+20
 30
1.000000000000000E+20
  9
$EXTMAX
 10
-1.000000000000000E+20
 20
-1.000000000000000E+20
 30
-1.000000000000000E+20
  9
$LIMMIN
 10
0.0
 20
0.0
  9
$LIMMAX
 10
12.0
 20
9.0
  9
$ORTHOMODE
 70
     0
  9
$REGENMODE
 70
     1
  9
$FILLMODE
 70
     1
  9
$QTEXTMODE
 70
     0
  9
$MIRRTEXT
 70
     1
  9
$LTSCALE
 40
1.0
  9
$ATTMODE
 70
     1
  9
$TEXTSIZE
 40
0.2
  9
$TRACEWID
 40
0.05
  9
$TEXTSTYLE
  7
Standard
  9
$CLAYER
  8
0
  9
$CELTYPE
  6
ByLayer
  9
$CECOLOR
 62
   256
  9
$CELTSCALE
 40
1.0
  9
$DISPSILH
 70
     0
  9
$DIMSCALE
 40
1.0
  9
$DIMASZ
 40
0.18
  9
$DIMEXO
 40
0.0625
  9
$DIMDLI
 40
0.38
  9
$DIMRND
 40
0.0
  9
$DIMDLE
 40
0.0
  9
$DIMEXE
 40
0.18
  9
$DIMTP
 40
0.0
  9
$DIMTM
 40
0.0
  9
$DIMTXT
 40
0.18
  9
$DIMCEN
 40
0.09
  9
$DIMTSZ
 40
0.0
  9
$DIMTOL
 70
     0
  9
$DIMLIM
 70
     0
  9
$DIMTIH
 70
     1
  9
$DIMTOH
 70
     1
  9
$DIMSE1
 70
     0
  9
$DIMSE2
 70
     0
  9
$DIMTAD
 70
     0
  9
$DIMZIN
 70
     0
  9
$DIMBLK
  1

  9
$DIMASO
 70
     1
  9
$DIMSHO
 70
     1
  9
$DIMPOST
  1

  9
$DIMAPOST
  1

  9
$DIMALT
 70
     0
  9
$DIMALTD
 70
     2
  9
$DIMALTF
 40
25.4
  9
$DIMLFAC
 40
1.0
  9
$DIMTOFL
 70
     0
  9
$DIMTVP
 40
0.0
  9
$DIMTIX
 70
     0
  9
$DIMSOXD
 70
     0
  9
$DIMSAH
 70
     0
  9
$DIMBLK1
  1

  9
$DIMBLK2
  1

  9
$DIMSTYLE
  2
Standard
  9
$DIMCLRD
 70
     0
  9
$DIMCLRE
 70
     0
  9
$DIMCLRT
 70
     0
  9
$DIMTFAC
 40
1.0
  9
$DIMGAP
 40
0.09
  9
$DIMJUST
 70
     0
  9
$DIMSD1
 70
     0
  9
$DIMSD2
 70
     0
  9
$DIMTOLJ
 70
     1
  9
$DIMTZIN
 70
     0
  9
$DIMALTZ
 70
     0
  9
$DIMALTTZ
 70
     0
  9
$DIMUPT
 70
     0
  9
$DIMDEC
 70
     4
  9
$DIMTDEC
 70
     4
  9
$DIMALTU
 70
     2
  9
$DIMALTTD
 70
     2
  9
$DIMTXSTY
  7
Standard
  9
$DIMAUNIT
 70
     0
  9
$DIMADEC
 70
     0
  9
$DIMALTRND
 40
0.0
  9
$DIMAZIN
 70
     0
  9
$DIMDSEP
 70
    46
  9
$DIMATFIT
 70
     3
  9
$DIMFRAC
 70
     0
  9
$DIMLDRBLK
  1

  9
$DIMLUNIT
 70
     2
  9
$DIMLWD
 70
    -2
  9
$DIMLWE
 70
    -2
  9
$DIMTMOVE
 70
     0
  9
$DIMFXL
 40
1.0
  9
$DIMFXLON
 70
     0
  9
$DIMJOGANG
 40
0.7853981633974483
  9
$DIMTFILL
 70
     0
  9
$DIMTFILLCLR
 70
     0
  9
$DIMARCSYM
 70
     0
  9
$DIMLTYPE
  6

  9
$DIMLTEX1
  6

  9
$DIMLTEX2
  6

  9
$DIMTXTDIRECTION
 70
     0
  9
$LUNITS
 70
     2
  9
$LUPREC
 70
     4
  9
$SKETCHINC
 40
0.1
  9
$FILLETRAD
 40
0.5
  9
$AUNITS
 70
     0
  9
$AUPREC
 70
     0
  9
$MENU
  1
.
  9
$ELEVATION
 40
0.0
  9
$PELEVATION
 40
0.0
  9
$THICKNESS
 40
0.0
  9
$LIMCHECK
 70
     0
  9
$CHAMFERA
 40
0.5
  9
$CHAMFERB
 40
0.5
  9
$CHAMFERC
 40
1.0
  9
$CHAMFERD
 40
0.0
  9
$SKPOLY
 70
     0
  9
$TDCREATE
 40
2459406.55564375
  9
$TDUCREATE
 40
2459406.722310417
  9
$TDUPDATE
 40
2459406.555643796
  9
$TDUUPDATE
 40
2459406.722310463
  9
$TDINDWG
 40
0.0000000116
  9
$TDUSRTIMER
 40
0.0000000116
  9
$USRTIMER
 70
     1
  9
$ANGBASE
 50
0.0
  9
$ANGDIR
 70
     0
  9
$PDMODE
 70
     0
  9
$PDSIZE
 40
0.0
  9
$PLINEWID
 40
0.0
  9
$SPLFRAME
 70
     0
  9
$SPLINETYPE
 70
     6
  9
$SPLINESEGS
 70
     8
  9
$HANDSEED
  5
156
  9
$SURFTAB1
 70
     6
  9
$SURFTAB2
 70
     6
  9
$SURFTYPE
 70
     6
  9
$SURFU
 70
     6
  9
$SURFV
 70
     6
  9
$UCSBASE
  2

  9
$UCSNAME
  2

  9
$UCSORG
 10
0.0
 20
0.0
 30
0.0
  9
$UCSXDIR
 10
1.0
 20
0.0
 30
0.0
  9
$UCSYDIR
 10
0.0
 20
1.0
 30
0.0
  9
$UCSORTHOREF
  2

  9
$UCSORTHOVIEW
 70
     0
  9
$UCSORGTOP
 10
0.0
 20
0.0
 30
0.0
  9
$UCSORGBOTTOM
 10
0.0
 20
0.0
 30
0.0
  9
$UCSORGLEFT
 10
0.0
 20
0.0
 30
0.0
  9
$UCSORGRIGHT
 10
0.0
 20
0.0
 30
0.0
  9
$UCSORGFRONT
 10
0.0
 20
0.0
 30
0.0
  9
$UCSORGBACK
 10
0.0
 20
0.0
 30
0.0
  9
$PUCSBASE
  2

  9
$PUCSNAME
  2

  9
$PUCSORG
 10
0.0
 20
0.0
 30
0.0
  9
$PUCSXDIR
 10
1.0
 20
0.0
 30
0.0
  9
$PUCSYDIR
 10
0.0
 20
1.0
 30
0.0
  9
$PUCSORTHOREF
  2

  9
$PUCSORTHOVIEW
 70
     0
  9
$PUCSORGTOP
 10
0.0
 20
0.0
 30
0.0
  9
$PUCSORGBOTTOM
 10
0.0
 20
0.0
 30
0.0
  9
$PUCSORGLEFT
 10
0.0
 20
0.0
 30
0.0
  9
$PUCSORGRIGHT
 10
0.0
 20
0.0
 30
0.0
  9
$PUCSORGFRONT
 10
0.0
 20
0.0
 30
0.0
  9
$PUCSORGBACK
 10
0.0
 20
0.0
 30
0.0
  9
$USERI1
 70
     0
  9
$USERI2
 70
     0
  9
$USERI3
 70
     0
  9
$USERI4
 70
     0
  9
$USERI5
 70
     0
  9
$USERR1
 40
0.0
  9
$USERR2
 40
0.0
  9
$USERR3
 40
0.0
  9
$USERR4
 40
0.0
  9
$USERR5
 40
0.0
  9
$WORLDVIEW
 70
     1
  9
$SHADEDGE
 70
     3
  9
$SHADEDIF
 70
    70
  9
$TILEMODE
 70
     1
  9
$MAXACTVP
 70
    64
  9
$PINSBASE
 10
0.0
 20
0.0
 30
0.0
  9
$PLIMCHECK
 70
     0
  9
$PEXTMIN
 10
1.000000000000000E+20
 20
1.000000000000000E+20
 30
1.000000000000000E+20
  9
$PEXTMAX
 10
-1.000000000000000E+20
 20
-1.000000000000000E+20
 30
-1.000000000000000E+20
  9
$PLIMMIN
 10
0.0
 20
0.0
  9
$PLIMMAX
 10
12.0
 20
9.0
  9
$UNITMODE
 70
     0
  9
$VISRETAIN
 70
     1
  9
$PLINEGEN
 70
     0
  9
$PSLTSCALE
 70
     1
  9
$TREEDEPTH
 70
  3020
  9
$CMLSTYLE
  2
Standard
  9
$CMLJUST
 70
     0
  9
$CMLSCALE
 40
1.0
  9
$PROXYGRAPHICS
 70
     1
  9
$MEASUREMENT
 70
     0
  9
$CELWEIGHT
370
    -1
  9
$ENDCAPS
280
     0
  9
$JOINSTYLE
280
     0
  9
$LWDISPLAY
290
     1
  9
$INSUNITS
 70
     1
  9
$HYPERLINKBASE
  1

  9
$STYLESHEET
  1

  9
$XEDIT
290
     1
  9
$CEPSNTYPE
380
     0
  9
$PSTYLEMODE
290
     1
  9
$FINGERPRINTGUID
  2
{AA306C37-F245-4116-95FE-840CD3F8E781}
  9
$VERSIONGUID
  2
{FAEB1C32-E019-11D5-929B-00C0DF256EC4}
  9
$EXTNAMES
290
     1
  9
$PSVPSCALE
 40
0.0
  9
$OLESTARTUP
290
     0
  9
$SORTENTS
280
   127
  9
$INDEXCTL
280
     0
  9
$HIDETEXT
280
     1
  9
$XCLIPFRAME
280
     2
  9
$HALOGAP
280
     0
  9
$OBSCOLOR
 70
   257
  9
$OBSLTYPE
280
     0
  9
$INTERSECTIONDISPLAY
280
     0
  9
$INTERSECTIONCOLOR
 70
   257
  9
$DIMASSOC
280
     2
  9
$PROJECTNAME
  1

  9
$CAMERADISPLAY
290
     0
  9
$LENSLENGTH
 40
50.0
  9
$CAMERAHEIGHT
 40
0.0
  9
$STEPSPERSEC
 40
2.0
  9
$STEPSIZE
 40
6.0
  9
$3DDWFPREC
 40
2.0
  9
$PSOLWIDTH
 40
0.25
  9
$PSOLHEIGHT
 40
4.0
  9
$LOFTANG1
 40
1.570796326794897
  9
$LOFTANG2
 40
1.570796326794897
  9
$LOFTMAG1
 40
0.0
  9
$LOFTMAG2
 40
0.0
  9
$LOFTPARAM
 70
     7
  9
$LOFTNORMALS
280
     1
  9
$LATITUDE
 40
37.795
  9
$LONGITUDE
 40
-122.394
  9
$NORTHDIRECTION
 40
0.0
  9
$TIMEZONE
 70
 -8000
  9
$LIGHTGLYPHDISPLAY
280
     1
  9
$TILEMODELIGHTSYNCH
280
     1
  9
$CMATERIAL
347
3C
  9
$SOLIDHIST
280
     1
  9
$SHOWHIST
280
     1
  9
$DWFFRAME
280
     2
  9
$DGNFRAME
280
     2
  9
$REALWORLDSCALE
290
     1
  9
$INTERFERECOLOR
 62
   256
  9
$CSHADOW
280
     0
  9
$SHADOWPLANELOCATION
 40
0.0
  0
ENDSEC
  0
SECTION
  2
CLASSES
  0
CLASS
  1
ACDBDICTIONARYWDFLT
  2
AcDbDictionaryWithDefault
  3
ObjectDBX Classes
 90
        0
 91
        4
280
     0
281
     0
  0
CLASS
  1
VISUALSTYLE
  2
AcDbVisualStyle
  3
ObjectDBX Classes
 90
     4095
 91
        4
280
     0
281
     0
  0
CLASS
  1
MATERIAL
  2
AcDbMaterial
  3
ObjectDBX Classes
 90
     1153
 91
        4
280
     0
281
     0
  0
CLASS
  1
SUN
  2
AcDbSun
  3
SCENEOE
 90
     1024
 91
        4
280
     0
281
     0
  0
ENDSEC
  0
SECTION
  2
TABLES
  0
TABLE
  2
VPORT
  5
8
330
0
100
AcDbSymbolTable
 70
     1
  0
VPORT
  5
29
330
8
100
AcDbSymbolTableRecord
100
AcDbViewportTableRecord
  2
*Active
 70
     0
 10
0.0
 20
0.0
 11
1.0
 21
1.0
 12
0.0
 22
0.0
 13
0.0
 23
0.0
 14
0.5
 24
0.5
 15
0.5
 25
0.5
 16
0.0
 26
0.0
 36
1.0
 17
1.870138804117838
 27
1.377777735392259
 37
0.0
 40
2.755905511811016
 41
1.357186446416949
 42
50.0
 43
0.0
 44
0.0
 50
0.0
 51
0.0
 71
     0
 72
   100
 73
     1
 74
     3
 75
     0
 76
     0
 77
     0
 78
     0
281
     0
 65
     1
110
0.0
120
0.0
130
0.0
111
1.0
121
0.0
131
0.0
112
0.0
122
1.0
132
0.0
 79
     0
146
0.0
 60
     3
 61
     5
292
     1
282
     1
141
0.0
142
0.0
 63
   250
361
3F
  0
ENDTAB
  0
TABLE
  2
LTYPE
  5
5
330
0
100
AcDbSymbolTable
 70
     1
  0
LTYPE
  5
14
330
5
100
AcDbSymbolTableRecord
100
AcDbLinetypeTableRecord
  2
ByBlock
 70
     0
  3

 72
    65
 73
     0
 40
0.0
  0
LTYPE
  5
15
330
5
100
AcDbSymbolTableRecord
100
AcDbLinetypeTableRecord
  2
ByLayer
 70
     0
  3

 72
    65
 73
     0
 40
0.0
  0
LTYPE
  5
16
330
5
100
AcDbSymbolTableRecord
100
AcDbLinetypeTableRecord
  2
Continuous
 70
     0
  3
Solid line
 72
    65
 73
     0
 40
0.0
  0
ENDTAB
  0
TABLE
  2
LAYER
  5
2
330
0
100
AcDbSymbolTable
 70
     2
  0
LAYER
  5
10
330
2
100
AcDbSymbolTableRecord
100
AcDbLayerTableRecord
  2
0
 70
     0
 62
     7
  6
Continuous
370
    -3
390
F
347
3E
  0
LAYER
  5
40
330
2
100
AcDbSymbolTableRecord
100
AcDbLayerTableRecord
  2
Layer 1
 70
     0
 62
     7
  6
Continuous
370
    -3
390
F
347
3E
  0
ENDTAB
  0
TABLE
  2
STYLE
  5
3
330
0
100
AcDbSymbolTable
 70
     1
  0
STYLE
  5
11
330
3
100
AcDbSymbolTableRecord
100
AcDbTextStyleTableRecord
  2
Standard
 70
     0
 40
0.0
 41
1.0
 50
0.0
 71
     0
 42
0.2
  3
txt
  4

  0
ENDTAB
  0
TABLE
  2
VIEW
  5
6
330
0
100
AcDbSymbolTable
 70
     0
  0
ENDTAB
  0
TABLE
  2
UCS
  5
7
330
0
100
AcDbSymbolTable
 70
     0
  0
ENDTAB
  0
TABLE
  2
APPID
  5
9
330
0
100
AcDbSymbolTable
 70
     1
  0
APPID
  5
12
330
9
100
AcDbSymbolTableRecord
100
AcDbRegAppTableRecord
  2
ACAD
 70
     0
  0
ENDTAB
  0
TABLE
  2
DIMSTYLE
  5
A
330
0
100
AcDbSymbolTable
 70
     1
100
AcDbDimStyleTable
  0
DIMSTYLE
105
27
330
A
100
AcDbSymbolTableRecord
100
AcDbDimStyleTableRecord
  2
Standard
 70
     0
178
     0
340
11
  0
ENDTAB
  0
TABLE
  2
BLOCK_RECORD
  5
1
330
0
100
AcDbSymbolTable
 70
    36
  0
BLOCK_RECORD
  5
1F
330
1
100
AcDbSymbolTableRecord
100
AcDbBlockTableRecord
  2
*Model_Space
340
22
 70
     0
280
     1
281
     0
  0
BLOCK_RECORD
  5
1B
330
1
100
AcDbSymbolTableRecord
100
AcDbBlockTableRecord
  2
*Paper_Space
340
1E
 70
     0
280
     1
281
     0
  0
BLOCK_RECORD
  5
23
330
1
100
AcDbSymbolTableRecord
100
AcDbBlockTableRecord
  2
*Paper_Space0
340
26
 70
     0
280
     1
281
     0
  0
BLOCK_RECORD
  5
41
330
1
100
AcDbSymbolTableRecord
100
AcDbBlockTableRecord
  2
block 2
340
0
102
{BLKREFS
331
42
102
}
 70
     0
280
     1
281
     0
  0
BLOCK_RECORD
  5
45
330
1
100
AcDbSymbolTableRecord
100
AcDbBlockTableRecord
  2
block 3
340
0
102
{BLKREFS
331
46
102
}
 70
     0
280
     1
281
     0
  0
BLOCK_RECORD
  5
4D
330
1
100
AcDbSymbolTableRecord
100
AcDbBlockTableRecord
  2
block 4
340
0
102
{BLKREFS
331
4E
102
}
 70
     0
280
     1
281
     0
  0
BLOCK_RECORD
  5
55
330
1
100
AcDbSymbolTableRecord
100
AcDbBlockTableRecord
  2
block 5
340
0
102
{BLKREFS
331
56
102
}
 70
     0
280
     1
281
     0
  0
BLOCK_RECORD
  5
5D
330
1
100
AcDbSymbolTableRecord
100
AcDbBlockTableRecord
  2
block 6
340
0
102
{BLKREFS
331
5E
102
}
 70
     0
280
     1
281
     0
  0
BLOCK_RECORD
  5
65
330
1
100
AcDbSymbolTableRecord
100
AcDbBlockTableRecord
  2
block 7
340
0
102
{BLKREFS
331
66
102
}
 70
     0
280
     1
281
     0
  0
BLOCK_RECORD
  5
6D
330
1
100
AcDbSymbolTableRecord
100
AcDbBlockTableRecord
  2
block 8
340
0
102
{BLKREFS
331
6E
102
}
 70
     0
280
     1
281
     0
  0
BLOCK_RECORD
  5
75
330
1
100
AcDbSymbolTableRecord
100
AcDbBlockTableRecord
  2
block 9
340
0
102
{BLKREFS
331
76
102
}
 70
     0
280
     1
281
     0
  0
BLOCK_RECORD
  5
7D
330
1
100
AcDbSymbolTableRecord
100
AcDbBlockTableRecord
  2
block 10
340
0
102
{BLKREFS
331
7E
102
}
 70
     0
280
     1
281
     0
  0
BLOCK_RECORD
  5
85
330
1
100
AcDbSymbolTableRecord
100
AcDbBlockTableRecord
  2
block 11
340
0
102
{BLKREFS
331
86
102
}
 70
     0
280
     1
281
     0
  0
BLOCK_RECORD
  5
8D
330
1
100
AcDbSymbolTableRecord
100
AcDbBlockTableRecord
  2
block 12
340
0
102
{BLKREFS
331
8E
102
}
 70
     0
280
     1
281
     0
  0
BLOCK_RECORD
  5
95
330
1
100
AcDbSymbolTableRecord
100
AcDbBlockTableRecord
  2
block 13
340
0
102
{BLKREFS
331
96
102
}
 70
     0
280
     1
281
     0
  0
BLOCK_RECORD
  5
9D
330
1
100
AcDbSymbolTableRecord
100
AcDbBlockTableRecord
  2
block 14
340
0
102
{BLKREFS
331
9E
102
}
 70
     0
280
     1
281
     0
  0
BLOCK_RECORD
  5
A5
330
1
100
AcDbSymbolTableRecord
100
AcDbBlockTableRecord
  2
block 15
340
0
102
{BLKREFS
331
A6
102
}
 70
     0
280
     1
281
     0
  0
BLOCK_RECORD
  5
AD
330
1
100
AcDbSymbolTableRecord
100
AcDbBlockTableRecord
  2
block 16
340
0
102
{BLKREFS
331
AE
102
}
 70
     0
280
     1
281
     0
  0
BLOCK_RECORD
  5
B5
330
1
100
AcDbSymbolTableRecord
100
AcDbBlockTableRecord
  2
block 17
340
0
102
{BLKREFS
331
B6
102
}
 70
     0
280
     1
281
     0
  0
BLOCK_RECORD
  5
BD
330
1
100
AcDbSymbolTableRecord
100
AcDbBlockTableRecord
  2
block 18
340
0
102
{BLKREFS
331
BE
102
}
 70
     0
280
     1
281
     0
  0
BLOCK_RECORD
  5
C5
330
1
100
AcDbSymbolTableRecord
100
AcDbBlockTableRecord
  2
block 19
340
0
102
{BLKREFS
331
C6
102
}
 70
     0
280
     1
281
     0
  0
BLOCK_RECORD
  5
CD
330
1
100
AcDbSymbolTableRecord
100
AcDbBlockTableRecord
  2
block 20
340
0
102
{BLKREFS
331
CE
102
}
 70
     0
280
     1
281
     0
  0
BLOCK_RECORD
  5
D5
330
1
100
AcDbSymbolTableRecord
100
AcDbBlockTableRecord
  2
block 21
340
0
102
{BLKREFS
331
D6
102
}
 70
     0
280
     1
281
     0
  0
BLOCK_RECORD
  5
DD
330
1
100
AcDbSymbolTableRecord
100
AcDbBlockTableRecord
  2
block 22
340
0
102
{BLKREFS
331
DE
102
}
 70
     0
280
     1
281
     0
  0
BLOCK_RECORD
  5
E5
330
1
100
AcDbSymbolTableRecord
100
AcDbBlockTableRecord
  2
block 23
340
0
102
{BLKREFS
331
E6
102
}
 70
     0
280
     1
281
     0
  0
BLOCK_RECORD
  5
ED
330
1
100
AcDbSymbolTableRecord
100
AcDbBlockTableRecord
  2
block 24
340
0
102
{BLKREFS
331
EE
102
}
 70
     0
280
     1
281
     0
  0
BLOCK_RECORD
  5
F5
330
1
100
AcDbSymbolTableRecord
100
AcDbBlockTableRecord
  2
block 25
340
0
102
{BLKREFS
331
F6
102
}
 70
     0
280
     1
281
     0
  0
BLOCK_RECORD
  5
FD
330
1
100
AcDbSymbolTableRecord
100
AcDbBlockTableRecord
  2
block 26
340
0
102
{BLKREFS
331
FE
102
}
 70
     0
280
     1
281
     0
  0
BLOCK_RECORD
  5
105
330
1
100
AcDbSymbolTableRecord
100
AcDbBlockTableRecord
  2
block 27
340
0
102
{BLKREFS
331
106
102
}
 70
     0
280
     1
281
     0
  0
BLOCK_RECORD
  5
10D
330
1
100
AcDbSymbolTableRecord
100
AcDbBlockTableRecord
  2
block 28
340
0
102
{BLKREFS
331
10E
102
}
 70
     0
280
     1
281
     0
  0
BLOCK_RECORD
  5
115
330
1
100
AcDbSymbolTableRecord
100
AcDbBlockTableRecord
  2
block 29
340
0
102
{BLKREFS
331
116
102
}
 70
     0
280
     1
281
     0
  0
BLOCK_RECORD
  5
11D
330
1
100
AcDbSymbolTableRecord
100
AcDbBlockTableRecord
  2
block 30
340
0
102
{BLKREFS
331
11E
102
}
 70
     0
280
     1
281
     0
  0
BLOCK_RECORD
  5
125
330
1
100
AcDbSymbolTableRecord
100
AcDbBlockTableRecord
  2
block 31
340
0
102
{BLKREFS
331
126
102
}
 70
     0
280
     1
281
     0
  0
BLOCK_RECORD
  5
12C
330
1
100
AcDbSymbolTableRecord
100
AcDbBlockTableRecord
  2
block 32
340
0
102
{BLKREFS
331
12D
102
}
 70
     0
280
     1
281
     0
  0
BLOCK_RECORD
  5
133
330
1
100
AcDbSymbolTableRecord
100
AcDbBlockTableRecord
  2
block 33
340
0
102
{BLKREFS
331
134
102
}
 70
     0
280
     1
281
     0
  0
BLOCK_RECORD
  5
139
330
1
100
AcDbSymbolTableRecord
100
AcDbBlockTableRecord
  2
block 34
340
0
102
{BLKREFS
331
13A
102
}
 70
     0
280
     1
281
     0
  0
BLOCK_RECORD
  5
13F
330
1
100
AcDbSymbolTableRecord
100
AcDbBlockTableRecord
  2
block 35
340
0
102
{BLKREFS
331
140
102
}
 70
     0
280
     1
281
     0
  0
BLOCK_RECORD
  5
145
330
1
100
AcDbSymbolTableRecord
100
AcDbBlockTableRecord
  2
block 36
340
0
102
{BLKREFS
331
146
102
}
 70
     0
280
     1
281
     0
  0
ENDTAB
  0
ENDSEC
  0
SECTION
  2
BLOCKS
  0
BLOCK
  5
20
330
1F
100
AcDbEntity
  8
0
100
AcDbBlockBegin
  2
*Model_Space
 70
     0
 10
0.0
 20
0.0
 30
0.0
  3
*Model_Space
  1

  0
ENDBLK
  5
21
330
1F
100
AcDbEntity
  8
0
100
AcDbBlockEnd
  0
BLOCK
  5
1C
330
1B
100
AcDbEntity
 67
     1
  8
0
100
AcDbBlockBegin
  2
*Paper_Space
 70
     0
 10
0.0
 20
0.0
 30
0.0
  3
*Paper_Space
  1

  0
ENDBLK
  5
1D
330
1B
100
AcDbEntity
 67
     1
  8
0
100
AcDbBlockEnd
  0
BLOCK
  5
24
330
23
100
AcDbEntity
  8
0
100
AcDbBlockBegin
  2
*Paper_Space0
 70
     0
 10
0.0
 20
0.0
 30
0.0
  3
*Paper_Space0
  1

  0
ENDBLK
  5
25
330
23
100
AcDbEntity
  8
0
100
AcDbBlockEnd
  0
BLOCK
  5
43
330
41
100
AcDbEntity
  8
0
100
AcDbBlockBegin
  2
block 2
 70
     0
 10
0.0
 20
0.0
 30
0.0
  3
block 2
  1

  0
ENDBLK
  5
44
330
41
100
AcDbEntity
  8
0
100
AcDbBlockEnd
  0
BLOCK
  5
47
330
45
100
AcDbEntity
  8
0
100
AcDbBlockBegin
  2
block 3
 70
     0
 10
0.0
 20
0.0
 30
0.0
  3
block 3
  1

  0
SPLINE
  5
49
330
45
100
AcDbEntity
  8
Layer 1
 62
     7
420
 16777215
370
     9
100
AcDbSpline
210
0.0
220
0.0
230
1.0
 70
    11
 71
     3
 72
    17
 73
    13
 74
     0
 42
0.0000000001
 43
0.0000000001
 12
1.0
 22
0.0
 32
0.0
 13
1.0
 23
0.0
 33
0.0
 40
0.0
 40
0.0
 40
0.0
 40
0.0
 40
1.0
 40
1.0
 40
1.0
 40
2.0
 40
2.0
 40
2.0
 40
3.0
 40
3.0
 40
3.0
 40
4.0
 40
4.0
 40
4.0
 40
4.0
 10
0.3944443596733941
 20
0.8249998982747557
 30
0.0
 10
0.4212915632459852
 20
0.8249998982747557
 30
0.0
 10
0.4430554707845052
 20
0.8032357788086099
 30
0.0
 10
0.4430554707845052
 20
0.7763887871636446
 30
0.0
 10
0.4430554707845052
 20
0.7495417955186793
 30
0.0
 10
0.4212915632459852
 20
0.7277776760525335
 30
0.0
 10
0.3944443596733941
 20
0.7277776760525335
 30
0.0
 10
0.3675973680284288
 20
0.7277776760525335
 30
0.0
 10
0.345833248562283
 20
0.7495417955186793
 30
0.0
 10
0.345833248562283
 20
0.7763887871636446
 30
0.0
 10
0.345833248562283
 20
0.8032357788086099
 30
0.0
 10
0.3675973680284288
 20
0.8249998982747557
 30
0.0
 10
0.3944443596733941
 20
0.8249998982747557
 30
0.0
  0
HATCH
  5
4A
330
45
100
AcDbEntity
  8
Layer 1
 62
     7
420
 16777215
100
AcDbHatch
 10
0.0
 20
0.0
 30
0.0
210
0.0
220
0.0
230
1.0
  2
SOLID
 70
     1
 71
     0
 91
        1
 92
        1
 93
        1
 72
     4
 94
        3
 73
     0
 74
     1
 95
       17
 96
       13
 40
0.0
 40
0.0
 40
0.0
 40
0.0
 40
1.0
 40
1.0
 40
1.0
 40
2.0
 40
2.0
 40
2.0
 40
3.0
 40
3.0
 40
3.0
 40
4.0
 40
4.0
 40
4.0
 40
4.0
 10
0.3944443596733941
 20
0.8249998982747557
 10
0.4212915632459852
 20
0.8249998982747557
 10
0.4430554707845052
 20
0.8032357788086099
 10
0.4430554707845052
 20
0.7763887871636446
 10
0.4430554707845052
 20
0.7495417955186793
 10
0.4212915632459852
 20
0.7277776760525335
 10
0.3944443596733941
 20
0.7277776760525335
 10
0.3675973680284288
 20
0.7277776760525335
 10
0.345833248562283
 20
0.7495417955186793
 10
0.345833248562283
 20
0.7763887871636446
 10
0.345833248562283
 20
0.8032357788086099
 10
0.3675973680284288
 20
0.8249998982747557
 10
0.3944443596733941
 20
0.8249998982747557
 97
        0
 97
        0
 75
     2
 76
     1
 98
        0
  0
SPLINE
  5
4B
330
45
100
AcDbEntity
  8
Layer 1
 62
     7
420
 16777215
370
     9
100
AcDbSpline
210
0.0
220
0.0
230
1.0
 70
    11
 71
     3
 72
    17
 73
    13
 74
     0
 42
0.0000000001
 43
0.0000000001
 12
1.0
 22
0.0
 32
0.0
 13
1.0
 23
0.0
 33
0.0
 40
0.0
 40
0.0
 40
0.0
 40
0.0
 40
1.0
 40
1.0
 40
1.0
 40
2.0
 40
2.0
 40
2.0
 40
3.0
 40
3.0
 40
3.0
 40
4.0
 40
4.0
 40
4.0
 40
4.0
 10
0.3944443596733941
 20
0.8041665649414224
 30
0.0
 10
0.4097855885823568
 20
0.8041665649414224
 30
0.0
 10
0.4222221374511719
 20
0.7917302280002332
 30
0.0
 10
0.4222221374511719
 20
0.7763887871636446
 30
0.0
 10
0.4222221374511719
 20
0.7610473463270561
 30
0.0
 10
0.4097855885823568
 20
0.7486110093858668
 30
0.0
 10
0.3944443596733941
 20
0.7486110093858668
 30
0.0
 10
0.3791029188368055
 20
0.7486110093858668
 30
0.0
 10
0.3666665818956163
 20
0.7610473463270561
 30
0.0
 10
0.3666665818956163
 20
0.7763887871636446
 30
0.0
 10
0.3666665818956163
 20
0.7917302280002332
 30
0.0
 10
0.3791029188368055
 20
0.8041665649414224
 30
0.0
 10
0.3944443596733941
 20
0.8041665649414224
 30
0.0
  0
HATCH
  5
4C
330
45
100
AcDbEntity
  8
Layer 1
 62
     7
420
 16777215
100
AcDbHatch
 10
0.0
 20
0.0
 30
0.0
210
0.0
220
0.0
230
1.0
  2
SOLID
 70
     1
 71
     0
 91
        1
 92
        1
 93
        1
 72
     4
 94
        3
 73
     0
 74
     1
 95
       17
 96
       13
 40
0.0
 40
0.0
 40
0.0
 40
0.0
 40
1.0
 40
1.0
 40
1.0
 40
2.0
 40
2.0
 40
2.0
 40
3.0
 40
3.0
 40
3.0
 40
4.0
 40
4.0
 40
4.0
 40
4.0
 10
0.3944443596733941
 20
0.8041665649414224
 10
0.4097855885823568
 20
0.8041665649414224
 10
0.4222221374511719
 20
0.7917302280002332
 10
0.4222221374511719
 20
0.7763887871636446
 10
0.4222221374511719
 20
0.7610473463270561
 10
0.4097855885823568
 20
0.7486110093858668
 10
0.3944443596733941
 20
0.7486110093858668
 10
0.3791029188368055
 20
0.7486110093858668
 10
0.3666665818956163
 20
0.7610473463270561
 10
0.3666665818956163
 20
0.7763887871636446
 10
0.3666665818956163
 20
0.7917302280002332
 10
0.3791029188368055
 20
0.8041665649414224
 10
0.3944443596733941
 20
0.8041665649414224
 97
        0
 97
        0
 75
     2
 76
     1
 98
        0
  0
ENDBLK
  5
48
330
45
100
AcDbEntity
  8
0
100
AcDbBlockEnd
  0
BLOCK
  5
4F
330
4D
100
AcDbEntity
  8
0
100
AcDbBlockBegin
  2
block 4
 70
     0
 10
0.0
 20
0.0
 30
0.0
  3
block 4
  1

  0
SPLINE
  5
51
330
4D
100
AcDbEntity
  8
Layer 1
 62
     7
420
 16777215
370
     9
100
AcDbSpline
210
0.0
220
0.0
230
1.0
 70
    11
 71
     3
 72
    17
 73
    13
 74
     0
 42
0.0000000001
 43
0.0000000001
 12
1.0
 22
0.0
 32
0.0
 13
1.0
 23
0.0
 33
0.0
 40
0.0
 40
0.0
 40
0.0
 40
0.0
 40
1.0
 40
1.0
 40
1.0
 40
2.0
 40
2.0
 40
2.0
 40
3.0
 40
3.0
 40
3.0
 40
4.0
 40
4.0
 40
4.0
 40
4.0
 10
0.8861111534966363
 20
0.8249998982747557
 30
0.0
 10
0.9129583570692273
 20
0.8249998982747557
 30
0.0
 10
0.9347222646077473
 20
0.8032357788086099
 30
0.0
 10
0.9347222646077473
 20
0.7763887871636446
 30
0.0
 10
0.9347222646077473
 20
0.7495417955186793
 30
0.0
 10
0.9129583570692273
 20
0.7277776760525335
 30
0.0
 10
0.8861111534966363
 20
0.7277776760525335
 30
0.0
 10
0.8592639499240451
 20
0.7277776760525335
 30
0.0
 10
0.8375000423855251
 20
0.7495417955186793
 30
0.0
 10
0.8375000423855251
 20
0.7763887871636446
 30
0.0
 10
0.8375000423855251
 20
0.8032357788086099
 30
0.0
 10
0.8592639499240451
 20
0.8249998982747557
 30
0.0
 10
0.8861111534966363
 20
0.8249998982747557
 30
0.0
  0
HATCH
  5
52
330
4D
100
AcDbEntity
  8
Layer 1
 62
     7
420
 16777215
100
AcDbHatch
 10
0.0
 20
0.0
 30
0.0
210
0.0
220
0.0
230
1.0
  2
SOLID
 70
     1
 71
     0
 91
        1
 92
        1
 93
        1
 72
     4
 94
        3
 73
     0
 74
     1
 95
       17
 96
       13
 40
0.0
 40
0.0
 40
0.0
 40
0.0
 40
1.0
 40
1.0
 40
1.0
 40
2.0
 40
2.0
 40
2.0
 40
3.0
 40
3.0
 40
3.0
 40
4.0
 40
4.0
 40
4.0
 40
4.0
 10
0.8861111534966363
 20
0.8249998982747557
 10
0.9129583570692273
 20
0.8249998982747557
 10
0.9347222646077473
 20
0.8032357788086099
 10
0.9347222646077473
 20
0.7763887871636446
 10
0.9347222646077473
 20
0.7495417955186793
 10
0.9129583570692273
 20
0.7277776760525335
 10
0.8861111534966363
 20
0.7277776760525335
 10
0.8592639499240451
 20
0.7277776760525335
 10
0.8375000423855251
 20
0.7495417955186793
 10
0.8375000423855251
 20
0.7763887871636446
 10
0.8375000423855251
 20
0.8032357788086099
 10
0.8592639499240451
 20
0.8249998982747557
 10
0.8861111534966363
 20
0.8249998982747557
 97
        0
 97
        0
 75
     2
 76
     1
 98
        0
  0
SPLINE
  5
53
330
4D
100
AcDbEntity
  8
Layer 1
 62
     7
420
 16777215
370
     9
100
AcDbSpline
210
0.0
220
0.0
230
1.0
 70
    11
 71
     3
 72
    17
 73
    13
 74
     0
 42
0.0000000001
 43
0.0000000001
 12
1.0
 22
0.0
 32
0.0
 13
1.0
 23
0.0
 33
0.0
 40
0.0
 40
0.0
 40
0.0
 40
0.0
 40
1.0
 40
1.0
 40
1.0
 40
2.0
 40
2.0
 40
2.0
 40
3.0
 40
3.0
 40
3.0
 40
4.0
 40
4.0
 40
4.0
 40
4.0
 10
0.8861111534966363
 20
0.8041665649414224
 30
0.0
 10
0.9014523824055989
 20
0.8041665649414224
 30
0.0
 10
0.9138889312744141
 20
0.7917302280002332
 30
0.0
 10
0.9138889312744141
 20
0.7763887871636446
 30
0.0
 10
0.9138889312744141
 20
0.7610473463270561
 30
0.0
 10
0.9014523824055989
 20
0.7486110093858668
 30
0.0
 10
0.8861111534966363
 20
0.7486110093858668
 30
0.0
 10
0.8707699245876735
 20
0.7486110093858668
 30
0.0
 10
0.8583333757188585
 20
0.7610473463270561
 30
0.0
 10
0.8583333757188585
 20
0.7763887871636446
 30
0.0
 10
0.8583333757188585
 20
0.7917302280002332
 30
0.0
 10
0.8707699245876735
 20
0.8041665649414224
 30
0.0
 10
0.8861111534966363
 20
0.8041665649414224
 30
0.0
  0
HATCH
  5
54
330
4D
100
AcDbEntity
  8
Layer 1
 62
     7
420
 16777215
100
AcDbHatch
 10
0.0
 20
0.0
 30
0.0
210
0.0
220
0.0
230
1.0
  2
SOLID
 70
     1
 71
     0
 91
        1
 92
        1
 93
        1
 72
     4
 94
        3
 73
     0
 74
     1
 95
       17
 96
       13
 40
0.0
 40
0.0
 40
0.0
 40
0.0
 40
1.0
 40
1.0
 40
1.0
 40
2.0
 40
2.0
 40
2.0
 40
3.0
 40
3.0
 40
3.0
 40
4.0
 40
4.0
 40
4.0
 40
4.0
 10
0.8861111534966363
 20
0.8041665649414224
 10
0.9014523824055989
 20
0.8041665649414224
 10
0.9138889312744141
 20
0.7917302280002332
 10
0.9138889312744141
 20
0.7763887871636446
 10
0.9138889312744141
 20
0.7610473463270561
 10
0.9014523824055989
 20
0.7486110093858668
 10
0.8861111534966363
 20
0.7486110093858668
 10
0.8707699245876735
 20
0.7486110093858668
 10
0.8583333757188585
 20
0.7610473463270561
 10
0.8583333757188585
 20
0.7763887871636446
 10
0.8583333757188585
 20
0.7917302280002332
 10
0.8707699245876735
 20
0.8041665649414224
 10
0.8861111534966363
 20
0.8041665649414224
 97
        0
 97
        0
 75
     2
 76
     1
 98
        0
  0
ENDBLK
  5
50
330
4D
100
AcDbEntity
  8
0
100
AcDbBlockEnd
  0
BLOCK
  5
57
330
55
100
AcDbEntity
  8
0
100
AcDbBlockBegin
  2
block 5
 70
     0
 10
0.0
 20
0.0
 30
0.0
  3
block 5
  1

  0
SPLINE
  5
59
330
55
100
AcDbEntity
  8
Layer 1
 62
     7
420
 16777215
370
     9
100
AcDbSpline
210
0.0
220
0.0
230
1.0
 70
    11
 71
     3
 72
    17
 73
    13
 74
     0
 42
0.0000000001
 43
0.0000000001
 12
1.0
 22
0.0
 32
0.0
 13
1.0
 23
0.0
 33
0.0
 40
0.0
 40
0.0
 40
0.0
 40
0.0
 40
1.0
 40
1.0
 40
1.0
 40
2.0
 40
2.0
 40
2.0
 40
3.0
 40
3.0
 40
3.0
 40
4.0
 40
4.0
 40
4.0
 40
4.0
 10
0.8861111534966363
 20
0.4319440884060491
 30
0.0
 10
0.9129583570692273
 20
0.4319440884060491
 30
0.0
 10
0.9347222646077473
 20
0.4101799689399033
 30
0.0
 10
0.9347222646077473
 20
0.383332977294938
 30
0.0
 10
0.9347222646077473
 20
0.3564859856499727
 30
0.0
 10
0.9129583570692273
 20
0.3347218661838269
 30
0.0
 10
0.8861111534966363
 20
0.3347218661838269
 30
0.0
 10
0.8592639499240451
 20
0.3347218661838269
 30
0.0
 10
0.8375000423855251
 20
0.3564859856499727
 30
0.0
 10
0.8375000423855251
 20
0.383332977294938
 30
0.0
 10
0.8375000423855251
 20
0.4101799689399033
 30
0.0
 10
0.8592639499240451
 20
0.4319440884060491
 30
0.0
 10
0.8861111534966363
 20
0.4319440884060491
 30
0.0
  0
HATCH
  5
5A
330
55
100
AcDbEntity
  8
Layer 1
 62
     7
420
 16777215
100
AcDbHatch
 10
0.0
 20
0.0
 30
0.0
210
0.0
220
0.0
230
1.0
  2
SOLID
 70
     1
 71
     0
 91
        1
 92
        1
 93
        1
 72
     4
 94
        3
 73
     0
 74
     1
 95
       17
 96
       13
 40
0.0
 40
0.0
 40
0.0
 40
0.0
 40
1.0
 40
1.0
 40
1.0
 40
2.0
 40
2.0
 40
2.0
 40
3.0
 40
3.0
 40
3.0
 40
4.0
 40
4.0
 40
4.0
 40
4.0
 10
0.8861111534966363
 20
0.4319440884060491
 10
0.9129583570692273
 20
0.4319440884060491
 10
0.9347222646077473
 20
0.4101799689399033
 10
0.9347222646077473
 20
0.383332977294938
 10
0.9347222646077473
 20
0.3564859856499727
 10
0.9129583570692273
 20
0.3347218661838269
 10
0.8861111534966363
 20
0.3347218661838269
 10
0.8592639499240451
 20
0.3347218661838269
 10
0.8375000423855251
 20
0.3564859856499727
 10
0.8375000423855251
 20
0.383332977294938
 10
0.8375000423855251
 20
0.4101799689399033
 10
0.8592639499240451
 20
0.4319440884060491
 10
0.8861111534966363
 20
0.4319440884060491
 97
        0
 97
        0
 75
     2
 76
     1
 98
        0
  0
SPLINE
  5
5B
330
55
100
AcDbEntity
  8
Layer 1
 62
     7
420
 16777215
370
     9
100
AcDbSpline
210
0.0
220
0.0
230
1.0
 70
    11
 71
     3
 72
    17
 73
    13
 74
     0
 42
0.0000000001
 43
0.0000000001
 12
1.0
 22
0.0
 32
0.0
 13
1.0
 23
0.0
 33
0.0
 40
0.0
 40
0.0
 40
0.0
 40
0.0
 40
1.0
 40
1.0
 40
1.0
 40
2.0
 40
2.0
 40
2.0
 40
3.0
 40
3.0
 40
3.0
 40
4.0
 40
4.0
 40
4.0
 40
4.0
 10
0.8861111534966363
 20
0.4111107550727158
 30
0.0
 10
0.9014523824055989
 20
0.4111107550727158
 30
0.0
 10
0.9138889312744141
 20
0.3986744181315265
 30
0.0
 10
0.9138889312744141
 20
0.383332977294938
 30
0.0
 10
0.9138889312744141
 20
0.3679915364583495
 30
0.0
 10
0.9014523824055989
 20
0.3555551995171602
 30
0.0
 10
0.8861111534966363
 20
0.3555551995171602
 30
0.0
 10
0.8707699245876735
 20
0.3555551995171602
 30
0.0
 10
0.8583333757188585
 20
0.3679915364583495
 30
0.0
 10
0.8583333757188585
 20
0.383332977294938
 30
0.0
 10
0.8583333757188585
 20
0.3986744181315265
 30
0.0
 10
0.8707699245876735
 20
0.4111107550727158
 30
0.0
 10
0.8861111534966363
 20
0.4111107550727158
 30
0.0
  0
HATCH
  5
5C
330
55
100
AcDbEntity
  8
Layer 1
 62
     7
420
 16777215
100
AcDbHatch
 10
0.0
 20
0.0
 30
0.0
210
0.0
220
0.0
230
1.0
  2
SOLID
 70
     1
 71
     0
 91
        1
 92
        1
 93
        1
 72
     4
 94
        3
 73
     0
 74
     1
 95
       17
 96
       13
 40
0.0
 40
0.0
 40
0.0
 40
0.0
 40
1.0
 40
1.0
 40
1.0
 40
2.0
 40
2.0
 40
2.0
 40
3.0
 40
3.0
 40
3.0
 40
4.0
 40
4.0
 40
4.0
 40
4.0
 10
0.8861111534966363
 20
0.4111107550727158
 10
0.9014523824055989
 20
0.4111107550727158
 10
0.9138889312744141
 20
0.3986744181315265
 10
0.9138889312744141
 20
0.383332977294938
 10
0.9138889312744141
 20
0.3679915364583495
 10
0.9014523824055989
 20
0.3555551995171602
 10
0.8861111534966363
 20
0.3555551995171602
 10
0.8707699245876735
 20
0.3555551995171602
 10
0.8583333757188585
 20
0.3679915364583495
 10
0.8583333757188585
 20
0.383332977294938
 10
0.8583333757188585
 20
0.3986744181315265
 10
0.8707699245876735
 20
0.4111107550727158
 10
0.8861111534966363
 20
0.4111107550727158
 97
        0
 97
        0
 75
     2
 76
     1
 98
        0
  0
ENDBLK
  5
58
330
55
100
AcDbEntity
  8
0
100
AcDbBlockEnd
  0
BLOCK
  5
5F
330
5D
100
AcDbEntity
  8
0
100
AcDbBlockBegin
  2
block 6
 70
     0
 10
0.0
 20
0.0
 30
0.0
  3
block 6
  1

  0
SPLINE
  5
61
330
5D
100
AcDbEntity
  8
Layer 1
 62
     7
420
 16777215
370
     9
100
AcDbSpline
210
0.0
220
0.0
230
1.0
 70
    11
 71
     3
 72
    17
 73
    13
 74
     0
 42
0.0000000001
 43
0.0000000001
 12
1.0
 22
0.0
 32
0.0
 13
1.0
 23
0.0
 33
0.0
 40
0.0
 40
0.0
 40
0.0
 40
0.0
 40
1.0
 40
1.0
 40
1.0
 40
2.0
 40
2.0
 40
2.0
 40
3.0
 40
3.0
 40
3.0
 40
4.0
 40
4.0
 40
4.0
 40
4.0
 10
0.3944443596733941
 20
0.4319440884060491
 30
0.0
 10
0.4212915632459852
 20
0.4319440884060491
 30
0.0
 10
0.4430554707845052
 20
0.4101799689399033
 30
0.0
 10
0.4430554707845052
 20
0.383332977294938
 30
0.0
 10
0.4430554707845052
 20
0.3564859856499727
 30
0.0
 10
0.4212915632459852
 20
0.3347218661838269
 30
0.0
 10
0.3944443596733941
 20
0.3347218661838269
 30
0.0
 10
0.3675973680284288
 20
0.3347218661838269
 30
0.0
 10
0.345833248562283
 20
0.3564859856499727
 30
0.0
 10
0.345833248562283
 20
0.383332977294938
 30
0.0
 10
0.345833248562283
 20
0.4101799689399033
 30
0.0
 10
0.3675973680284288
 20
0.4319440884060491
 30
0.0
 10
0.3944443596733941
 20
0.4319440884060491
 30
0.0
  0
HATCH
  5
62
330
5D
100
AcDbEntity
  8
Layer 1
 62
     7
420
 16777215
100
AcDbHatch
 10
0.0
 20
0.0
 30
0.0
210
0.0
220
0.0
230
1.0
  2
SOLID
 70
     1
 71
     0
 91
        1
 92
        1
 93
        1
 72
     4
 94
        3
 73
     0
 74
     1
 95
       17
 96
       13
 40
0.0
 40
0.0
 40
0.0
 40
0.0
 40
1.0
 40
1.0
 40
1.0
 40
2.0
 40
2.0
 40
2.0
 40
3.0
 40
3.0
 40
3.0
 40
4.0
 40
4.0
 40
4.0
 40
4.0
 10
0.3944443596733941
 20
0.4319440884060491
 10
0.4212915632459852
 20
0.4319440884060491
 10
0.4430554707845052
 20
0.4101799689399033
 10
0.4430554707845052
 20
0.383332977294938
 10
0.4430554707845052
 20
0.3564859856499727
 10
0.4212915632459852
 20
0.3347218661838269
 10
0.3944443596733941
 20
0.3347218661838269
 10
0.3675973680284288
 20
0.3347218661838269
 10
0.345833248562283
 20
0.3564859856499727
 10
0.345833248562283
 20
0.383332977294938
 10
0.345833248562283
 20
0.4101799689399033
 10
0.3675973680284288
 20
0.4319440884060491
 10
0.3944443596733941
 20
0.4319440884060491
 97
        0
 97
        0
 75
     2
 76
     1
 98
        0
  0
SPLINE
  5
63
330
5D
100
AcDbEntity
  8
Layer 1
 62
     7
420
 16777215
370
     9
100
AcDbSpline
210
0.0
220
0.0
230
1.0
 70
    11
 71
     3
 72
    17
 73
    13
 74
     0
 42
0.0000000001
 43
0.0000000001
 12
1.0
 22
0.0
 32
0.0
 13
1.0
 23
0.0
 33
0.0
 40
0.0
 40
0.0
 40
0.0
 40
0.0
 40
1.0
 40
1.0
 40
1.0
 40
2.0
 40
2.0
 40
2.0
 40
3.0
 40
3.0
 40
3.0
 40
4.0
 40
4.0
 40
4.0
 40
4.0
 10
0.3944443596733941
 20
0.4111107550727158
 30
0.0
 10
0.4097855885823568
 20
0.4111107550727158
 30
0.0
 10
0.4222221374511719
 20
0.3986744181315265
 30
0.0
 10
0.4222221374511719
 20
0.383332977294938
 30
0.0
 10
0.4222221374511719
 20
0.3679915364583495
 30
0.0
 10
0.4097855885823568
 20
0.3555551995171602
 30
0.0
 10
0.3944443596733941
 20
0.3555551995171602
 30
0.0
 10
0.3791029188368055
 20
0.3555551995171602
 30
0.0
 10
0.3666665818956163
 20
0.3679915364583495
 30
0.0
 10
0.3666665818956163
 20
0.383332977294938
 30
0.0
 10
0.3666665818956163
 20
0.3986744181315265
 30
0.0
 10
0.3791029188368055
 20
0.4111107550727158
 30
0.0
 10
0.3944443596733941
 20
0.4111107550727158
 30
0.0
  0
HATCH
  5
64
330
5D
100
AcDbEntity
  8
Layer 1
 62
     7
420
 16777215
100
AcDbHatch
 10
0.0
 20
0.0
 30
0.0
210
0.0
220
0.0
230
1.0
  2
SOLID
 70
     1
 71
     0
 91
        1
 92
        1
 93
        1
 72
     4
 94
        3
 73
     0
 74
     1
 95
       17
 96
       13
 40
0.0
 40
0.0
 40
0.0
 40
0.0
 40
1.0
 40
1.0
 40
1.0
 40
2.0
 40
2.0
 40
2.0
 40
3.0
 40
3.0
 40
3.0
 40
4.0
 40
4.0
 40
4.0
 40
4.0
 10
0.3944443596733941
 20
0.4111107550727158
 10
0.4097855885823568
 20
0.4111107550727158
 10
0.4222221374511719
 20
0.3986744181315265
 10
0.4222221374511719
 20
0.383332977294938
 10
0.4222221374511719
 20
0.3679915364583495
 10
0.4097855885823568
 20
0.3555551995171602
 10
0.3944443596733941
 20
0.3555551995171602
 10
0.3791029188368055
 20
0.3555551995171602
 10
0.3666665818956163
 20
0.3679915364583495
 10
0.3666665818956163
 20
0.383332977294938
 10
0.3666665818956163
 20
0.3986744181315265
 10
0.3791029188368055
 20
0.4111107550727158
 10
0.3944443596733941
 20
0.4111107550727158
 97
        0
 97
        0
 75
     2
 76
     1
 98
        0
  0
ENDBLK
  5
60
330
5D
100
AcDbEntity
  8
0
100
AcDbBlockEnd
  0
BLOCK
  5
67
330
65
100
AcDbEntity
  8
0
100
AcDbBlockBegin
  2
block 7
 70
     0
 10
0.0
 20
0.0
 30
0.0
  3
block 7
  1

  0
SPLINE
  5
69
330
65
100
AcDbEntity
  8
Layer 1
 62
     7
420
 16777215
370
     9
100
AcDbSpline
210
0.0
220
0.0
230
1.0
 70
    11
 71
     3
 72
    17
 73
    13
 74
     0
 42
0.0000000001
 43
0.0000000001
 12
1.0
 22
0.0
 32
0.0
 13
1.0
 23
0.0
 33
0.0
 40
0.0
 40
0.0
 40
0.0
 40
0.0
 40
1.0
 40
1.0
 40
1.0
 40
2.0
 40
2.0
 40
2.0
 40
3.0
 40
3.0
 40
3.0
 40
4.0
 40
4.0
 40
4.0
 40
4.0
 10
0.7291666666666666
 20
0.2638884480794432
 30
0.0
 10
0.7506444719102647
 20
0.2638884480794432
 30
0.0
 10
0.7680555979410807
 20
0.2464773220486273
 30
0.0
 10
0.7680555979410807
 20
0.2249997287326551
 30
0.0
 10
0.7680555979410807
 20
0.2035221354166828
 30
0.0
 10
0.7506444719102647
 20
0.1861110093858669
 30
0.0
 10
0.7291666666666666
 20
0.1861110093858669
 30
0.0
 10
0.7076888614230685
 20
0.1861110093858669
 30
0.0
 10
0.6902777353922526
 20
0.2035221354166828
 30
0.0
 10
0.6902777353922526
 20
0.2249997287326551
 30
0.0
 10
0.6902777353922526
 20
0.2464773220486273
 30
0.0
 10
0.7076888614230685
 20
0.2638884480794432
 30
0.0
 10
0.7291666666666666
 20
0.2638884480794432
 30
0.0
  0
HATCH
  5
6A
330
65
100
AcDbEntity
  8
Layer 1
 62
     7
420
 16777215
100
AcDbHatch
 10
0.0
 20
0.0
 30
0.0
210
0.0
220
0.0
230
1.0
  2
SOLID
 70
     1
 71
     0
 91
        1
 92
        1
 93
        1
 72
     4
 94
        3
 73
     0
 74
     1
 95
       17
 96
       13
 40
0.0
 40
0.0
 40
0.0
 40
0.0
 40
1.0
 40
1.0
 40
1.0
 40
2.0
 40
2.0
 40
2.0
 40
3.0
 40
3.0
 40
3.0
 40
4.0
 40
4.0
 40
4.0
 40
4.0
 10
0.7291666666666666
 20
0.2638884480794432
 10
0.7506444719102647
 20
0.2638884480794432
 10
0.7680555979410807
 20
0.2464773220486273
 10
0.7680555979410807
 20
0.2249997287326551
 10
0.7680555979410807
 20
0.2035221354166828
 10
0.7506444719102647
 20
0.1861110093858669
 10
0.7291666666666666
 20
0.1861110093858669
 10
0.7076888614230685
 20
0.1861110093858669
 10
0.6902777353922526
 20
0.2035221354166828
 10
0.6902777353922526
 20
0.2249997287326551
 10
0.6902777353922526
 20
0.2464773220486273
 10
0.7076888614230685
 20
0.2638884480794432
 10
0.7291666666666666
 20
0.2638884480794432
 97
        0
 97
        0
 75
     2
 76
     1
 98
        0
  0
SPLINE
  5
6B
330
65
100
AcDbEntity
  8
Layer 1
 62
     7
420
 16777215
370
     9
100
AcDbSpline
210
0.0
220
0.0
230
1.0
 70
    11
 71
     3
 72
    17
 73
    13
 74
     0
 42
0.0000000001
 43
0.0000000001
 12
1.0
 22
0.0
 32
0.0
 13
1.0
 23
0.0
 33
0.0
 40
0.0
 40
0.0
 40
0.0
 40
0.0
 40
1.0
 40
1.0
 40
1.0
 40
2.0
 40
2.0
 40
2.0
 40
3.0
 40
3.0
 40
3.0
 40
4.0
 40
4.0
 40
4.0
 40
4.0
 10
0.7291666666666666
 20
0.2444440884060491
 30
0.0
 10
0.7399054633246528
 20
0.2444440884060491
 30
0.0
 10
0.7486110263400607
 20
0.2357385253906412
 30
0.0
 10
0.7486110263400607
 20
0.2249997287326551
 30
0.0
 10
0.7486110263400607
 20
0.2142609320746689
 30
0.0
 10
0.7399054633246528
 20
0.2055553690592609
 30
0.0
 10
0.7291666666666666
 20
0.2055553690592609
 30
0.0
 10
0.7184278700086805
 20
0.2055553690592609
 30
0.0
 10
0.7097223069932725
 20
0.2142609320746689
 30
0.0
 10
0.7097223069932725
 20
0.2249997287326551
 30
0.0
 10
0.7097223069932725
 20
0.2357385253906412
 30
0.0
 10
0.7184278700086805
 20
0.2444440884060491
 30
0.0
 10
0.7291666666666666
 20
0.2444440884060491
 30
0.0
  0
HATCH
  5
6C
330
65
100
AcDbEntity
  8
Layer 1
 62
     7
420
 16777215
100
AcDbHatch
 10
0.0
 20
0.0
 30
0.0
210
0.0
220
0.0
230
1.0
  2
SOLID
 70
     1
 71
     0
 91
        1
 92
        1
 93
        1
 72
     4
 94
        3
 73
     0
 74
     1
 95
       17
 96
       13
 40
0.0
 40
0.0
 40
0.0
 40
0.0
 40
1.0
 40
1.0
 40
1.0
 40
2.0
 40
2.0
 40
2.0
 40
3.0
 40
3.0
 40
3.0
 40
4.0
 40
4.0
 40
4.0
 40
4.0
 10
0.7291666666666666
 20
0.2444440884060491
 10
0.7399054633246528
 20
0.2444440884060491
 10
0.7486110263400607
 20
0.2357385253906412
 10
0.7486110263400607
 20
0.2249997287326551
 10
0.7486110263400607
 20
0.2142609320746689
 10
0.7399054633246528
 20
0.2055553690592609
 10
0.7291666666666666
 20
0.2055553690592609
 10
0.7184278700086805
 20
0.2055553690592609
 10
0.7097223069932725
 20
0.2142609320746689
 10
0.7097223069932725
 20
0.2249997287326551
 10
0.7097223069932725
 20
0.2357385253906412
 10
0.7184278700086805
 20
0.2444440884060491
 10
0.7291666666666666
 20
0.2444440884060491
 97
        0
 97
        0
 75
     2
 76
     1
 98
        0
  0
ENDBLK
  5
68
330
65
100
AcDbEntity
  8
0
100
AcDbBlockEnd
  0
BLOCK
  5
6F
330
6D
100
AcDbEntity
  8
0
100
AcDbBlockBegin
  2
block 8
 70
     0
 10
0.0
 20
0.0
 30
0.0
  3
block 8
  1

  0
SPLINE
  5
71
330
6D
100
AcDbEntity
  8
Layer 1
 62
     7
420
 16777215
370
     9
100
AcDbSpline
210
0.0
220
0.0
230
1.0
 70
    11
 71
     3
 72
    17
 73
    13
 74
     0
 42
0.0000000001
 43
0.0000000001
 12
1.0
 22
0.0
 32
0.0
 13
1.0
 23
0.0
 33
0.0
 40
0.0
 40
0.0
 40
0.0
 40
0.0
 40
1.0
 40
1.0
 40
1.0
 40
2.0
 40
2.0
 40
2.0
 40
3.0
 40
3.0
 40
3.0
 40
4.0
 40
4.0
 40
4.0
 40
4.0
 10
0.6305554707845051
 20
0.2638884480794432
 30
0.0
 10
0.6520332760281032
 20
0.2638884480794432
 30
0.0
 10
0.6694444020589192
 20
0.2464773220486273
 30
0.0
 10
0.6694444020589192
 20
0.2249997287326551
 30
0.0
 10
0.6694444020589192
 20
0.2035221354166828
 30
0.0
 10
0.6520332760281032
 20
0.1861110093858669
 30
0.0
 10
0.6305554707845051
 20
0.1861110093858669
 30
0.0
 10
0.609077665540907
 20
0.1861110093858669
 30
0.0
 10
0.5916665395100911
 20
0.2035221354166828
 30
0.0
 10
0.5916665395100911
 20
0.2249997287326551
 30
0.0
 10
0.5916665395100911
 20
0.2464773220486273
 30
0.0
 10
0.609077665540907
 20
0.2638884480794432
 30
0.0
 10
0.6305554707845051
 20
0.2638884480794432
 30
0.0
  0
HATCH
  5
72
330
6D
100
AcDbEntity
  8
Layer 1
 62
     7
420
 16777215
100
AcDbHatch
 10
0.0
 20
0.0
 30
0.0
210
0.0
220
0.0
230
1.0
  2
SOLID
 70
     1
 71
     0
 91
        1
 92
        1
 93
        1
 72
     4
 94
        3
 73
     0
 74
     1
 95
       17
 96
       13
 40
0.0
 40
0.0
 40
0.0
 40
0.0
 40
1.0
 40
1.0
 40
1.0
 40
2.0
 40
2.0
 40
2.0
 40
3.0
 40
3.0
 40
3.0
 40
4.0
 40
4.0
 40
4.0
 40
4.0
 10
0.6305554707845051
 20
0.2638884480794432
 10
0.6520332760281032
 20
0.2638884480794432
 10
0.6694444020589192
 20
0.2464773220486273
 10
0.6694444020589192
 20
0.2249997287326551
 10
0.6694444020589192
 20
0.2035221354166828
 10
0.6520332760281032
 20
0.1861110093858669
 10
0.6305554707845051
 20
0.1861110093858669
 10
0.609077665540907
 20
0.1861110093858669
 10
0.5916665395100911
 20
0.2035221354166828
 10
0.5916665395100911
 20
0.2249997287326551
 10
0.5916665395100911
 20
0.2464773220486273
 10
0.609077665540907
 20
0.2638884480794432
 10
0.6305554707845051
 20
0.2638884480794432
 97
        0
 97
        0
 75
     2
 76
     1
 98
        0
  0
SPLINE
  5
73
330
6D
100
AcDbEntity
  8
Layer 1
 62
     7
420
 16777215
370
     9
100
AcDbSpline
210
0.0
220
0.0
230
1.0
 70
    11
 71
     3
 72
    17
 73
    13
 74
     0
 42
0.0000000001
 43
0.0000000001
 12
1.0
 22
0.0
 32
0.0
 13
1.0
 23
0.0
 33
0.0
 40
0.0
 40
0.0
 40
0.0
 40
0.0
 40
1.0
 40
1.0
 40
1.0
 40
2.0
 40
2.0
 40
2.0
 40
3.0
 40
3.0
 40
3.0
 40
4.0
 40
4.0
 40
4.0
 40
4.0
 10
0.6305554707845051
 20
0.2444440884060491
 30
0.0
 10
0.6412942674424913
 20
0.2444440884060491
 30
0.0
 10
0.6499998304578992
 20
0.2357385253906412
 30
0.0
 10
0.6499998304578992
 20
0.2249997287326551
 30
0.0
 10
0.6499998304578992
 20
0.2142609320746689
 30
0.0
 10
0.6412942674424913
 20
0.2055553690592609
 30
0.0
 10
0.6305554707845051
 20
0.2055553690592609
 30
0.0
 10
0.6198166741265191
 20
0.2055553690592609
 30
0.0
 10
0.611111111111111
 20
0.2142609320746689
 30
0.0
 10
0.611111111111111
 20
0.2249997287326551
 30
0.0
 10
0.611111111111111
 20
0.2357385253906412
 30
0.0
 10
0.6198166741265191
 20
0.2444440884060491
 30
0.0
 10
0.6305554707845051
 20
0.2444440884060491
 30
0.0
  0
HATCH
  5
74
330
6D
100
AcDbEntity
  8
Layer 1
 62
     7
420
 16777215
100
AcDbHatch
 10
0.0
 20
0.0
 30
0.0
210
0.0
220
0.0
230
1.0
  2
SOLID
 70
     1
 71
     0
 91
        1
 92
        1
 93
        1
 72
     4
 94
        3
 73
     0
 74
     1
 95
       17
 96
       13
 40
0.0
 40
0.0
 40
0.0
 40
0.0
 40
1.0
 40
1.0
 40
1.0
 40
2.0
 40
2.0
 40
2.0
 40
3.0
 40
3.0
 40
3.0
 40
4.0
 40
4.0
 40
4.0
 40
4.0
 10
0.6305554707845051
 20
0.2444440884060491
 10
0.6412942674424913
 20
0.2444440884060491
 10
0.6499998304578992
 20
0.2357385253906412
 10
0.6499998304578992
 20
0.2249997287326551
 10
0.6499998304578992
 20
0.2142609320746689
 10
0.6412942674424913
 20
0.2055553690592609
 10
0.6305554707845051
 20
0.2055553690592609
 10
0.6198166741265191
 20
0.2055553690592609
 10
0.611111111111111
 20
0.2142609320746689
 10
0.611111111111111
 20
0.2249997287326551
 10
0.611111111111111
 20
0.2357385253906412
 10
0.6198166741265191
 20
0.2444440884060491
 10
0.6305554707845051
 20
0.2444440884060491
 97
        0
 97
        0
 75
     2
 76
     1
 98
        0
  0
ENDBLK
  5
70
330
6D
100
AcDbEntity
  8
0
100
AcDbBlockEnd
  0
BLOCK
  5
77
330
75
100
AcDbEntity
  8
0
100
AcDbBlockBegin
  2
block 9
 70
     0
 10
0.0
 20
0.0
 30
0.0
  3
block 9
  1

  0
SPLINE
  5
79
330
75
100
AcDbEntity
  8
Layer 1
 62
     7
420
 16777215
370
     9
100
AcDbSpline
210
0.0
220
0.0
230
1.0
 70
    11
 71
     3
 72
    17
 73
    13
 74
     0
 42
0.0000000001
 43
0.0000000001
 12
1.0
 22
0.0
 32
0.0
 13
1.0
 23
0.0
 33
0.0
 40
0.0
 40
0.0
 40
0.0
 40
0.0
 40
1.0
 40
1.0
 40
1.0
 40
2.0
 40
2.0
 40
2.0
 40
3.0
 40
3.0
 40
3.0
 40
4.0
 40
4.0
 40
4.0
 40
4.0
 10
0.5319444868299696
 20
0.2638884480794432
 30
0.0
 10
0.5534222920735676
 20
0.2638884480794432
 30
0.0
 10
0.5708334181043836
 20
0.2464773220486273
 30
0.0
 10
0.5708334181043836
 20
0.2249997287326551
 30
0.0
 10
0.5708334181043836
 20
0.2035221354166828
 30
0.0
 10
0.5534222920735676
 20
0.1861110093858669
 30
0.0
 10
0.5319444868299696
 20
0.1861110093858669
 30
0.0
 10
0.5104666815863715
 20
0.1861110093858669
 30
0.0
 10
0.4930555555555555
 20
0.2035221354166828
 30
0.0
 10
0.4930555555555555
 20
0.2249997287326551
 30
0.0
 10
0.4930555555555555
 20
0.2464773220486273
 30
0.0
 10
0.5104666815863715
 20
0.2638884480794432
 30
0.0
 10
0.5319444868299696
 20
0.2638884480794432
 30
0.0
  0
HATCH
  5
7A
330
75
100
AcDbEntity
  8
Layer 1
 62
     7
420
 16777215
100
AcDbHatch
 10
0.0
 20
0.0
 30
0.0
210
0.0
220
0.0
230
1.0
  2
SOLID
 70
     1
 71
     0
 91
        1
 92
        1
 93
        1
 72
     4
 94
        3
 73
     0
 74
     1
 95
       17
 96
       13
 40
0.0
 40
0.0
 40
0.0
 40
0.0
 40
1.0
 40
1.0
 40
1.0
 40
2.0
 40
2.0
 40
2.0
 40
3.0
 40
3.0
 40
3.0
 40
4.0
 40
4.0
 40
4.0
 40
4.0
 10
0.5319444868299696
 20
0.2638884480794432
 10
0.5534222920735676
 20
0.2638884480794432
 10
0.5708334181043836
 20
0.2464773220486273
 10
0.5708334181043836
 20
0.2249997287326551
 10
0.5708334181043836
 20
0.2035221354166828
 10
0.5534222920735676
 20
0.1861110093858669
 10
0.5319444868299696
 20
0.1861110093858669
 10
0.5104666815863715
 20
0.1861110093858669
 10
0.4930555555555555
 20
0.2035221354166828
 10
0.4930555555555555
 20
0.2249997287326551
 10
0.4930555555555555
 20
0.2464773220486273
 10
0.5104666815863715
 20
0.2638884480794432
 10
0.5319444868299696
 20
0.2638884480794432
 97
        0
 97
        0
 75
     2
 76
     1
 98
        0
  0
SPLINE
  5
7B
330
75
100
AcDbEntity
  8
Layer 1
 62
     7
420
 16777215
370
     9
100
AcDbSpline
210
0.0
220
0.0
230
1.0
 70
    11
 71
     3
 72
    17
 73
    13
 74
     0
 42
0.0000000001
 43
0.0000000001
 12
1.0
 22
0.0
 32
0.0
 13
1.0
 23
0.0
 33
0.0
 40
0.0
 40
0.0
 40
0.0
 40
0.0
 40
1.0
 40
1.0
 40
1.0
 40
2.0
 40
2.0
 40
2.0
 40
3.0
 40
3.0
 40
3.0
 40
4.0
 40
4.0
 40
4.0
 40
4.0
 10
0.5319444868299696
 20
0.2444440884060491
 30
0.0
 10
0.5426832834879557
 20
0.2444440884060491
 30
0.0
 10
0.5513888465033637
 20
0.2357385253906412
 30
0.0
 10
0.5513888465033637
 20
0.2249997287326551
 30
0.0
 10
0.5513888465033637
 20
0.2142609320746689
 30
0.0
 10
0.5426832834879557
 20
0.2055553690592609
 30
0.0
 10
0.5319444868299696
 20
0.2055553690592609
 30
0.0
 10
0.5212056901719835
 20
0.2055553690592609
 30
0.0
 10
0.5125001271565754
 20
0.2142609320746689
 30
0.0
 10
0.5125001271565754
 20
0.2249997287326551
 30
0.0
 10
0.5125001271565754
 20
0.2357385253906412
 30
0.0
 10
0.5212056901719835
 20
0.2444440884060491
 30
0.0
 10
0.5319444868299696
 20
0.2444440884060491
 30
0.0
  0
HATCH
  5
7C
330
75
100
AcDbEntity
  8
Layer 1
 62
     7
420
 16777215
100
AcDbHatch
 10
0.0
 20
0.0
 30
0.0
210
0.0
220
0.0
230
1.0
  2
SOLID
 70
     1
 71
     0
 91
        1
 92
        1
 93
        1
 72
     4
 94
        3
 73
     0
 74
     1
 95
       17
 96
       13
 40
0.0
 40
0.0
 40
0.0
 40
0.0
 40
1.0
 40
1.0
 40
1.0
 40
2.0
 40
2.0
 40
2.0
 40
3.0
 40
3.0
 40
3.0
 40
4.0
 40
4.0
 40
4.0
 40
4.0
 10
0.5319444868299696
 20
0.2444440884060491
 10
0.5426832834879557
 20
0.2444440884060491
 10
0.5513888465033637
 20
0.2357385253906412
 10
0.5513888465033637
 20
0.2249997287326551
 10
0.5513888465033637
 20
0.2142609320746689
 10
0.5426832834879557
 20
0.2055553690592609
 10
0.5319444868299696
 20
0.2055553690592609
 10
0.5212056901719835
 20
0.2055553690592609
 10
0.5125001271565754
 20
0.2142609320746689
 10
0.5125001271565754
 20
0.2249997287326551
 10
0.5125001271565754
 20
0.2357385253906412
 10
0.5212056901719835
 20
0.2444440884060491
 10
0.5319444868299696
 20
0.2444440884060491
 97
        0
 97
        0
 75
     2
 76
     1
 98
        0
  0
ENDBLK
  5
78
330
75
100
AcDbEntity
  8
0
100
AcDbBlockEnd
  0
BLOCK
  5
7F
330
7D
100
AcDbEntity
  8
0
100
AcDbBlockBegin
  2
block 10
 70
     0
 10
0.0
 20
0.0
 30
0.0
  3
block 10
  1

  0
SPLINE
  5
81
330
7D
100
AcDbEntity
  8
Layer 1
 62
     7
420
 16777215
370
     9
100
AcDbSpline
210
0.0
220
0.0
230
1.0
 70
    11
 71
     3
 72
    17
 73
    13
 74
     0
 42
0.0000000001
 43
0.0000000001
 12
1.0
 22
0.0
 32
0.0
 13
1.0
 23
0.0
 33
0.0
 40
0.0
 40
0.0
 40
0.0
 40
0.0
 40
1.0
 40
1.0
 40
1.0
 40
2.0
 40
2.0
 40
2.0
 40
3.0
 40
3.0
 40
3.0
 40
4.0
 40
4.0
 40
4.0
 40
4.0
 10
0.2763888041178385
 20
0.6180551147461099
 30
0.0
 10
0.2978663974338108
 20
0.6180551147461099
 30
0.0
 10
0.3152775234646267
 20
0.6006439887152939
 30
0.0
 10
0.3152775234646267
 20
0.5791663953993217
 30
0.0
 10
0.3152775234646267
 20
0.5576888020833495
 30
0.0
 10
0.2978663974338108
 20
0.5402776760525335
 30
0.0
 10
0.2763888041178385
 20
0.5402776760525335
 30
0.0
 10
0.2549112108018663
 20
0.5402776760525335
 30
0.0
 10
0.2375000847710503
 20
0.5576888020833495
 30
0.0
 10
0.2375000847710503
 20
0.5791663953993217
 30
0.0
 10
0.2375000847710503
 20
0.6006439887152939
 30
0.0
 10
0.2549112108018663
 20
0.6180551147461099
 30
0.0
 10
0.2763888041178385
 20
0.6180551147461099
 30
0.0
  0
HATCH
  5
82
330
7D
100
AcDbEntity
  8
Layer 1
 62
     7
420
 16777215
100
AcDbHatch
 10
0.0
 20
0.0
 30
0.0
210
0.0
220
0.0
230
1.0
  2
SOLID
 70
     1
 71
     0
 91
        1
 92
        1
 93
        1
 72
     4
 94
        3
 73
     0
 74
     1
 95
       17
 96
       13
 40
0.0
 40
0.0
 40
0.0
 40
0.0
 40
1.0
 40
1.0
 40
1.0
 40
2.0
 40
2.0
 40
2.0
 40
3.0
 40
3.0
 40
3.0
 40
4.0
 40
4.0
 40
4.0
 40
4.0
 10
0.2763888041178385
 20
0.6180551147461099
 10
0.2978663974338108
 20
0.6180551147461099
 10
0.3152775234646267
 20
0.6006439887152939
 10
0.3152775234646267
 20
0.5791663953993217
 10
0.3152775234646267
 20
0.5576888020833495
 10
0.2978663974338108
 20
0.5402776760525335
 10
0.2763888041178385
 20
0.5402776760525335
 10
0.2549112108018663
 20
0.5402776760525335
 10
0.2375000847710503
 20
0.5576888020833495
 10
0.2375000847710503
 20
0.5791663953993217
 10
0.2375000847710503
 20
0.6006439887152939
 10
0.2549112108018663
 20
0.6180551147461099
 10
0.2763888041178385
 20
0.6180551147461099
 97
        0
 97
        0
 75
     2
 76
     1
 98
        0
  0
SPLINE
  5
83
330
7D
100
AcDbEntity
  8
Layer 1
 62
     7
420
 16777215
370
     9
100
AcDbSpline
210
0.0
220
0.0
230
1.0
 70
    11
 71
     3
 72
    17
 73
    13
 74
     0
 42
0.0000000001
 43
0.0000000001
 12
1.0
 22
0.0
 32
0.0
 13
1.0
 23
0.0
 33
0.0
 40
0.0
 40
0.0
 40
0.0
 40
0.0
 40
1.0
 40
1.0
 40
1.0
 40
2.0
 40
2.0
 40
2.0
 40
3.0
 40
3.0
 40
3.0
 40
4.0
 40
4.0
 40
4.0
 40
4.0
 10
0.2763888041178385
 20
0.5986107550727158
 30
0.0
 10
0.2871276007758246
 20
0.5986107550727158
 30
0.0
 10
0.2958331637912326
 20
0.5899051920573078
 30
0.0
 10
0.2958331637912326
 20
0.5791663953993217
 30
0.0
 10
0.2958331637912326
 20
0.5684275987413355
 30
0.0
 10
0.2871276007758246
 20
0.5597220357259276
 30
0.0
 10
0.2763888041178385
 20
0.5597220357259276
 30
0.0
 10
0.2656500074598524
 20
0.5597220357259276
 30
0.0
 10
0.2569444444444444
 20
0.5684275987413355
 30
0.0
 10
0.2569444444444444
 20
0.5791663953993217
 30
0.0
 10
0.2569444444444444
 20
0.5899051920573078
 30
0.0
 10
0.2656500074598524
 20
0.5986107550727158
 30
0.0
 10
0.2763888041178385
 20
0.5986107550727158
 30
0.0
  0
HATCH
  5
84
330
7D
100
AcDbEntity
  8
Layer 1
 62
     7
420
 16777215
100
AcDbHatch
 10
0.0
 20
0.0
 30
0.0
210
0.0
220
0.0
230
1.0
  2
SOLID
 70
     1
 71
     0
 91
        1
 92
        1
 93
        1
 72
     4
 94
        3
 73
     0
 74
     1
 95
       17
 96
       13
 40
0.0
 40
0.0
 40
0.0
 40
0.0
 40
1.0
 40
1.0
 40
1.0
 40
2.0
 40
2.0
 40
2.0
 40
3.0
 40
3.0
 40
3.0
 40
4.0
 40
4.0
 40
4.0
 40
4.0
 10
0.2763888041178385
 20
0.5986107550727158
 10
0.2871276007758246
 20
0.5986107550727158
 10
0.2958331637912326
 20
0.5899051920573078
 10
0.2958331637912326
 20
0.5791663953993217
 10
0.2958331637912326
 20
0.5684275987413355
 10
0.2871276007758246
 20
0.5597220357259276
 10
0.2763888041178385
 20
0.5597220357259276
 10
0.2656500074598524
 20
0.5597220357259276
 10
0.2569444444444444
 20
0.5684275987413355
 10
0.2569444444444444
 20
0.5791663953993217
 10
0.2569444444444444
 20
0.5899051920573078
 10
0.2656500074598524
 20
0.5986107550727158
 10
0.2763888041178385
 20
0.5986107550727158
 97
        0
 97
        0
 75
     2
 76
     1
 98
        0
  0
ENDBLK
  5
80
330
7D
100
AcDbEntity
  8
0
100
AcDbBlockEnd
  0
BLOCK
  5
87
330
85
100
AcDbEntity
  8
0
100
AcDbBlockBegin
  2
block 11
 70
     0
 10
0.0
 20
0.0
 30
0.0
  3
block 11
  1

  0
SPLINE
  5
89
330
85
100
AcDbEntity
  8
Layer 1
 62
     7
420
 16777215
370
     9
100
AcDbSpline
210
0.0
220
0.0
230
1.0
 70
    11
 71
     3
 72
    17
 73
    13
 74
     0
 42
0.0000000001
 43
0.0000000001
 12
1.0
 22
0.0
 32
0.0
 13
1.0
 23
0.0
 33
0.0
 40
0.0
 40
0.0
 40
0.0
 40
0.0
 40
1.0
 40
1.0
 40
1.0
 40
2.0
 40
2.0
 40
2.0
 40
3.0
 40
3.0
 40
3.0
 40
4.0
 40
4.0
 40
4.0
 40
4.0
 10
0.2763888041178385
 20
0.5208328925238876
 30
0.0
 10
0.2978663974338108
 20
0.5208328925238876
 30
0.0
 10
0.3152775234646267
 20
0.5034217664930717
 30
0.0
 10
0.3152775234646267
 20
0.4819441731770995
 30
0.0
 10
0.3152775234646267
 20
0.4604665798611273
 30
0.0
 10
0.2978663974338108
 20
0.4430554538303113
 30
0.0
 10
0.2763888041178385
 20
0.4430554538303113
 30
0.0
 10
0.2549112108018663
 20
0.4430554538303113
 30
0.0
 10
0.2375000847710503
 20
0.4604665798611273
 30
0.0
 10
0.2375000847710503
 20
0.4819441731770995
 30
0.0
 10
0.2375000847710503
 20
0.5034217664930717
 30
0.0
 10
0.2549112108018663
 20
0.5208328925238876
 30
0.0
 10
0.2763888041178385
 20
0.5208328925238876
 30
0.0
  0
HATCH
  5
8A
330
85
100
AcDbEntity
  8
Layer 1
 62
     7
420
 16777215
100
AcDbHatch
 10
0.0
 20
0.0
 30
0.0
210
0.0
220
0.0
230
1.0
  2
SOLID
 70
     1
 71
     0
 91
        1
 92
        1
 93
        1
 72
     4
 94
        3
 73
     0
 74
     1
 95
       17
 96
       13
 40
0.0
 40
0.0
 40
0.0
 40
0.0
 40
1.0
 40
1.0
 40
1.0
 40
2.0
 40
2.0
 40
2.0
 40
3.0
 40
3.0
 40
3.0
 40
4.0
 40
4.0
 40
4.0
 40
4.0
 10
0.2763888041178385
 20
0.5208328925238876
 10
0.2978663974338108
 20
0.5208328925238876
 10
0.3152775234646267
 20
0.5034217664930717
 10
0.3152775234646267
 20
0.4819441731770995
 10
0.3152775234646267
 20
0.4604665798611273
 10
0.2978663974338108
 20
0.4430554538303113
 10
0.2763888041178385
 20
0.4430554538303113
 10
0.2549112108018663
 20
0.4430554538303113
 10
0.2375000847710503
 20
0.4604665798611273
 10
0.2375000847710503
 20
0.4819441731770995
 10
0.2375000847710503
 20
0.5034217664930717
 10
0.2549112108018663
 20
0.5208328925238876
 10
0.2763888041178385
 20
0.5208328925238876
 97
        0
 97
        0
 75
     2
 76
     1
 98
        0
  0
SPLINE
  5
8B
330
85
100
AcDbEntity
  8
Layer 1
 62
     7
420
 16777215
370
     9
100
AcDbSpline
210
0.0
220
0.0
230
1.0
 70
    11
 71
     3
 72
    17
 73
    13
 74
     0
 42
0.0000000001
 43
0.0000000001
 12
1.0
 22
0.0
 32
0.0
 13
1.0
 23
0.0
 33
0.0
 40
0.0
 40
0.0
 40
0.0
 40
0.0
 40
1.0
 40
1.0
 40
1.0
 40
2.0
 40
2.0
 40
2.0
 40
3.0
 40
3.0
 40
3.0
 40
4.0
 40
4.0
 40
4.0
 40
4.0
 10
0.2763888041178385
 20
0.5013885328504936
 30
0.0
 10
0.2871276007758246
 20
0.5013885328504936
 30
0.0
 10
0.2958331637912326
 20
0.4926829698350856
 30
0.0
 10
0.2958331637912326
 20
0.4819441731770995
 30
0.0
 10
0.2958331637912326
 20
0.4712053765191134
 30
0.0
 10
0.2871276007758246
 20
0.4624998135037054
 30
0.0
 10
0.2763888041178385
 20
0.4624998135037054
 30
0.0
 10
0.2656500074598524
 20
0.4624998135037054
 30
0.0
 10
0.2569444444444444
 20
0.4712053765191134
 30
0.0
 10
0.2569444444444444
 20
0.4819441731770995
 30
0.0
 10
0.2569444444444444
 20
0.4926829698350856
 30
0.0
 10
0.2656500074598524
 20
0.5013885328504936
 30
0.0
 10
0.2763888041178385
 20
0.5013885328504936
 30
0.0
  0
HATCH
  5
8C
330
85
100
AcDbEntity
  8
Layer 1
 62
     7
420
 16777215
100
AcDbHatch
 10
0.0
 20
0.0
 30
0.0
210
0.0
220
0.0
230
1.0
  2
SOLID
 70
     1
 71
     0
 91
        1
 92
        1
 93
        1
 72
     4
 94
        3
 73
     0
 74
     1
 95
       17
 96
       13
 40
0.0
 40
0.0
 40
0.0
 40
0.0
 40
1.0
 40
1.0
 40
1.0
 40
2.0
 40
2.0
 40
2.0
 40
3.0
 40
3.0
 40
3.0
 40
4.0
 40
4.0
 40
4.0
 40
4.0
 10
0.2763888041178385
 20
0.5013885328504936
 10
0.2871276007758246
 20
0.5013885328504936
 10
0.2958331637912326
 20
0.4926829698350856
 10
0.2958331637912326
 20
0.4819441731770995
 10
0.2958331637912326
 20
0.4712053765191134
 10
0.2871276007758246
 20
0.4624998135037054
 10
0.2763888041178385
 20
0.4624998135037054
 10
0.2656500074598524
 20
0.4624998135037054
 10
0.2569444444444444
 20
0.4712053765191134
 10
0.2569444444444444
 20
0.4819441731770995
 10
0.2569444444444444
 20
0.4926829698350856
 10
0.2656500074598524
 20
0.5013885328504936
 10
0.2763888041178385
 20
0.5013885328504936
 97
        0
 97
        0
 75
     2
 76
     1
 98
        0
  0
ENDBLK
  5
88
330
85
100
AcDbEntity
  8
0
100
AcDbBlockEnd
  0
BLOCK
  5
8F
330
8D
100
AcDbEntity
  8
0
100
AcDbBlockBegin
  2
block 12
 70
     0
 10
0.0
 20
0.0
 30
0.0
  3
block 12
  1

  0
SPLINE
  5
91
330
8D
100
AcDbEntity
  8
Layer 1
 62
     7
420
 16777215
370
     9
100
AcDbSpline
210
0.0
220
0.0
230
1.0
 70
    11
 71
     3
 72
    17
 73
    13
 74
     0
 42
0.0000000001
 43
0.0000000001
 12
1.0
 22
0.0
 32
0.0
 13
1.0
 23
0.0
 33
0.0
 40
0.0
 40
0.0
 40
0.0
 40
0.0
 40
1.0
 40
1.0
 40
1.0
 40
2.0
 40
2.0
 40
2.0
 40
3.0
 40
3.0
 40
3.0
 40
4.0
 40
4.0
 40
4.0
 40
4.0
 10
0.2763888041178385
 20
0.7166663106282714
 30
0.0
 10
0.2978663974338108
 20
0.7166663106282714
 30
0.0
 10
0.3152775234646267
 20
0.6992551845974554
 30
0.0
 10
0.3152775234646267
 20
0.6777775912814832
 30
0.0
 10
0.3152775234646267
 20
0.656299997965511
 30
0.0
 10
0.2978663974338108
 20
0.6388888719346949
 30
0.0
 10
0.2763888041178385
 20
0.6388888719346949
 30
0.0
 10
0.2549112108018663
 20
0.6388888719346949
 30
0.0
 10
0.2375000847710503
 20
0.656299997965511
 30
0.0
 10
0.2375000847710503
 20
0.6777775912814832
 30
0.0
 10
0.2375000847710503
 20
0.6992551845974554
 30
0.0
 10
0.2549112108018663
 20
0.7166663106282714
 30
0.0
 10
0.2763888041178385
 20
0.7166663106282714
 30
0.0
  0
HATCH
  5
92
330
8D
100
AcDbEntity
  8
Layer 1
 62
     7
420
 16777215
100
AcDbHatch
 10
0.0
 20
0.0
 30
0.0
210
0.0
220
0.0
230
1.0
  2
SOLID
 70
     1
 71
     0
 91
        1
 92
        1
 93
        1
 72
     4
 94
        3
 73
     0
 74
     1
 95
       17
 96
       13
 40
0.0
 40
0.0
 40
0.0
 40
0.0
 40
1.0
 40
1.0
 40
1.0
 40
2.0
 40
2.0
 40
2.0
 40
3.0
 40
3.0
 40
3.0
 40
4.0
 40
4.0
 40
4.0
 40
4.0
 10
0.2763888041178385
 20
0.7166663106282714
 10
0.2978663974338108
 20
0.7166663106282714
 10
0.3152775234646267
 20
0.6992551845974554
 10
0.3152775234646267
 20
0.6777775912814832
 10
0.3152775234646267
 20
0.656299997965511
 10
0.2978663974338108
 20
0.6388888719346949
 10
0.2763888041178385
 20
0.6388888719346949
 10
0.2549112108018663
 20
0.6388888719346949
 10
0.2375000847710503
 20
0.656299997965511
 10
0.2375000847710503
 20
0.6777775912814832
 10
0.2375000847710503
 20
0.6992551845974554
 10
0.2549112108018663
 20
0.7166663106282714
 10
0.2763888041178385
 20
0.7166663106282714
 97
        0
 97
        0
 75
     2
 76
     1
 98
        0
  0
SPLINE
  5
93
330
8D
100
AcDbEntity
  8
Layer 1
 62
     7
420
 16777215
370
     9
100
AcDbSpline
210
0.0
220
0.0
230
1.0
 70
    11
 71
     3
 72
    17
 73
    13
 74
     0
 42
0.0000000001
 43
0.0000000001
 12
1.0
 22
0.0
 32
0.0
 13
1.0
 23
0.0
 33
0.0
 40
0.0
 40
0.0
 40
0.0
 40
0.0
 40
1.0
 40
1.0
 40
1.0
 40
2.0
 40
2.0
 40
2.0
 40
3.0
 40
3.0
 40
3.0
 40
4.0
 40
4.0
 40
4.0
 40
4.0
 10
0.2763888041178385
 20
0.6972219509548773
 30
0.0
 10
0.2871276007758246
 20
0.6972219509548773
 30
0.0
 10
0.2958331637912326
 20
0.6885163879394692
 30
0.0
 10
0.2958331637912326
 20
0.6777775912814832
 30
0.0
 10
0.2958331637912326
 20
0.667038794623497
 30
0.0
 10
0.2871276007758246
 20
0.6583332316080891
 30
0.0
 10
0.2763888041178385
 20
0.6583332316080891
 30
0.0
 10
0.2656500074598524
 20
0.6583332316080891
 30
0.0
 10
0.2569444444444444
 20
0.667038794623497
 30
0.0
 10
0.2569444444444444
 20
0.6777775912814832
 30
0.0
 10
0.2569444444444444
 20
0.6885163879394692
 30
0.0
 10
0.2656500074598524
 20
0.6972219509548773
 30
0.0
 10
0.2763888041178385
 20
0.6972219509548773
 30
0.0
  0
HATCH
  5
94
330
8D
100
AcDbEntity
  8
Layer 1
 62
     7
420
 16777215
100
AcDbHatch
 10
0.0
 20
0.0
 30
0.0
210
0.0
220
0.0
230
1.0
  2
SOLID
 70
     1
 71
     0
 91
        1
 92
        1
 93
        1
 72
     4
 94
        3
 73
     0
 74
     1
 95
       17
 96
       13
 40
0.0
 40
0.0
 40
0.0
 40
0.0
 40
1.0
 40
1.0
 40
1.0
 40
2.0
 40
2.0
 40
2.0
 40
3.0
 40
3.0
 40
3.0
 40
4.0
 40
4.0
 40
4.0
 40
4.0
 10
0.2763888041178385
 20
0.6972219509548773
 10
0.2871276007758246
 20
0.6972219509548773
 10
0.2958331637912326
 20
0.6885163879394692
 10
0.2958331637912326
 20
0.6777775912814832
 10
0.2958331637912326
 20
0.667038794623497
 10
0.2871276007758246
 20
0.6583332316080891
 10
0.2763888041178385
 20
0.6583332316080891
 10
0.2656500074598524
 20
0.6583332316080891
 10
0.2569444444444444
 20
0.667038794623497
 10
0.2569444444444444
 20
0.6777775912814832
 10
0.2569444444444444
 20
0.6885163879394692
 10
0.2656500074598524
 20
0.6972219509548773
 10
0.2763888041178385
 20
0.6972219509548773
 97
        0
 97
        0
 75
     2
 76
     1
 98
        0
  0
ENDBLK
  5
90
330
8D
100
AcDbEntity
  8
0
100
AcDbBlockEnd
  0
BLOCK
  5
97
330
95
100
AcDbEntity
  8
0
100
AcDbBlockBegin
  2
block 13
 70
     0
 10
0.0
 20
0.0
 30
0.0
  3
block 13
  1

  0
SPLINE
  5
99
330
95
100
AcDbEntity
  8
Layer 1
 62
     7
420
 16777215
370
     9
100
AcDbSpline
210
0.0
220
0.0
230
1.0
 70
    11
 71
     3
 72
    17
 73
    13
 74
     0
 42
0.0000000001
 43
0.0000000001
 12
1.0
 22
0.0
 32
0.0
 13
1.0
 23
0.0
 33
0.0
 40
0.0
 40
0.0
 40
0.0
 40
0.0
 40
1.0
 40
1.0
 40
1.0
 40
2.0
 40
2.0
 40
2.0
 40
3.0
 40
3.0
 40
3.0
 40
4.0
 40
4.0
 40
4.0
 40
4.0
 10
0.7583334181043836
 20
0.8347218661838269
 30
0.0
 10
0.7798112233479817
 20
0.8347218661838269
 30
0.0
 10
0.7972223493787977
 20
0.8173107401530109
 30
0.0
 10
0.7972223493787977
 20
0.7958331468370387
 30
0.0
 10
0.7972223493787977
 20
0.7743555535210664
 30
0.0
 10
0.7798112233479817
 20
0.7569444274902505
 30
0.0
 10
0.7583334181043836
 20
0.7569444274902505
 30
0.0
 10
0.7368556128607856
 20
0.7569444274902505
 30
0.0
 10
0.7194444868299695
 20
0.7743555535210664
 30
0.0
 10
0.7194444868299695
 20
0.7958331468370387
 30
0.0
 10
0.7194444868299695
 20
0.8173107401530109
 30
0.0
 10
0.7368556128607856
 20
0.8347218661838269
 30
0.0
 10
0.7583334181043836
 20
0.8347218661838269
 30
0.0
  0
HATCH
  5
9A
330
95
100
AcDbEntity
  8
Layer 1
 62
     7
420
 16777215
100
AcDbHatch
 10
0.0
 20
0.0
 30
0.0
210
0.0
220
0.0
230
1.0
  2
SOLID
 70
     1
 71
     0
 91
        1
 92
        1
 93
        1
 72
     4
 94
        3
 73
     0
 74
     1
 95
       17
 96
       13
 40
0.0
 40
0.0
 40
0.0
 40
0.0
 40
1.0
 40
1.0
 40
1.0
 40
2.0
 40
2.0
 40
2.0
 40
3.0
 40
3.0
 40
3.0
 40
4.0
 40
4.0
 40
4.0
 40
4.0
 10
0.7583334181043836
 20
0.8347218661838269
 10
0.7798112233479817
 20
0.8347218661838269
 10
0.7972223493787977
 20
0.8173107401530109
 10
0.7972223493787977
 20
0.7958331468370387
 10
0.7972223493787977
 20
0.7743555535210664
 10
0.7798112233479817
 20
0.7569444274902505
 10
0.7583334181043836
 20
0.7569444274902505
 10
0.7368556128607856
 20
0.7569444274902505
 10
0.7194444868299695
 20
0.7743555535210664
 10
0.7194444868299695
 20
0.7958331468370387
 10
0.7194444868299695
 20
0.8173107401530109
 10
0.7368556128607856
 20
0.8347218661838269
 10
0.7583334181043836
 20
0.8347218661838269
 97
        0
 97
        0
 75
     2
 76
     1
 98
        0
  0
SPLINE
  5
9B
330
95
100
AcDbEntity
  8
Layer 1
 62
     7
420
 16777215
370
     9
100
AcDbSpline
210
0.0
220
0.0
230
1.0
 70
    11
 71
     3
 72
    17
 73
    13
 74
     0
 42
0.0000000001
 43
0.0000000001
 12
1.0
 22
0.0
 32
0.0
 13
1.0
 23
0.0
 33
0.0
 40
0.0
 40
0.0
 40
0.0
 40
0.0
 40
1.0
 40
1.0
 40
1.0
 40
2.0
 40
2.0
 40
2.0
 40
3.0
 40
3.0
 40
3.0
 40
4.0
 40
4.0
 40
4.0
 40
4.0
 10
0.7583334181043836
 20
0.8152775065104327
 30
0.0
 10
0.7690722147623698
 20
0.8152775065104327
 30
0.0
 10
0.7777777777777777
 20
0.8065719434950248
 30
0.0
 10
0.7777777777777777
 20
0.7958331468370387
 30
0.0
 10
0.7777777777777777
 20
0.7850943501790526
 30
0.0
 10
0.7690722147623698
 20
0.7763887871636446
 30
0.0
 10
0.7583334181043836
 20
0.7763887871636446
 30
0.0
 10
0.7475946214463975
 20
0.7763887871636446
 30
0.0
 10
0.7388890584309895
 20
0.7850943501790526
 30
0.0
 10
0.7388890584309895
 20
0.7958331468370387
 30
0.0
 10
0.7388890584309895
 20
0.8065719434950248
 30
0.0
 10
0.7475946214463975
 20
0.8152775065104327
 30
0.0
 10
0.7583334181043836
 20
0.8152775065104327
 30
0.0
  0
HATCH
  5
9C
330
95
100
AcDbEntity
  8
Layer 1
 62
     7
420
 16777215
100
AcDbHatch
 10
0.0
 20
0.0
 30
0.0
210
0.0
220
0.0
230
1.0
  2
SOLID
 70
     1
 71
     0
 91
        1
 92
        1
 93
        1
 72
     4
 94
        3
 73
     0
 74
     1
 95
       17
 96
       13
 40
0.0
 40
0.0
 40
0.0
 40
0.0
 40
1.0
 40
1.0
 40
1.0
 40
2.0
 40
2.0
 40
2.0
 40
3.0
 40
3.0
 40
3.0
 40
4.0
 40
4.0
 40
4.0
 40
4.0
 10
0.7583334181043836
 20
0.8152775065104327
 10
0.7690722147623698
 20
0.8152775065104327
 10
0.7777777777777777
 20
0.8065719434950248
 10
0.7777777777777777
 20
0.7958331468370387
 10
0.7777777777777777
 20
0.7850943501790526
 10
0.7690722147623698
 20
0.7763887871636446
 10
0.7583334181043836
 20
0.7763887871636446
 10
0.7475946214463975
 20
0.7763887871636446
 10
0.7388890584309895
 20
0.7850943501790526
 10
0.7388890584309895
 20
0.7958331468370387
 10
0.7388890584309895
 20
0.8065719434950248
 10
0.7475946214463975
 20
0.8152775065104327
 10
0.7583334181043836
 20
0.8152775065104327
 97
        0
 97
        0
 75
     2
 76
     1
 98
        0
  0
ENDBLK
  5
98
330
95
100
AcDbEntity
  8
0
100
AcDbBlockEnd
  0
BLOCK
  5
9F
330
9D
100
AcDbEntity
  8
0
100
AcDbBlockBegin
  2
block 14
 70
     0
 10
0.0
 20
0.0
 30
0.0
  3
block 14
  1

  0
SPLINE
  5
A1
330
9D
100
AcDbEntity
  8
Layer 1
 62
     7
420
 16777215
370
     9
100
AcDbSpline
210
0.0
220
0.0
230
1.0
 70
    11
 71
     3
 72
    17
 73
    13
 74
     0
 42
0.0000000001
 43
0.0000000001
 12
1.0
 22
0.0
 32
0.0
 13
1.0
 23
0.0
 33
0.0
 40
0.0
 40
0.0
 40
0.0
 40
0.0
 40
1.0
 40
1.0
 40
1.0
 40
2.0
 40
2.0
 40
2.0
 40
3.0
 40
3.0
 40
3.0
 40
4.0
 40
4.0
 40
4.0
 40
4.0
 10
0.5222223069932725
 20
0.8347218661838269
 30
0.0
 10
0.5437001122368706
 20
0.8347218661838269
 30
0.0
 10
0.5611112382676866
 20
0.8173107401530109
 30
0.0
 10
0.5611112382676866
 20
0.7958331468370387
 30
0.0
 10
0.5611112382676866
 20
0.7743555535210664
 30
0.0
 10
0.5437001122368706
 20
0.7569444274902505
 30
0.0
 10
0.5222223069932725
 20
0.7569444274902505
 30
0.0
 10
0.5007445017496744
 20
0.7569444274902505
 30
0.0
 10
0.4833333757188585
 20
0.7743555535210664
 30
0.0
 10
0.4833333757188585
 20
0.7958331468370387
 30
0.0
 10
0.4833333757188585
 20
0.8173107401530109
 30
0.0
 10
0.5007445017496744
 20
0.8347218661838269
 30
0.0
 10
0.5222223069932725
 20
0.8347218661838269
 30
0.0
  0
HATCH
  5
A2
330
9D
100
AcDbEntity
  8
Layer 1
 62
     7
420
 16777215
100
AcDbHatch
 10
0.0
 20
0.0
 30
0.0
210
0.0
220
0.0
230
1.0
  2
SOLID
 70
     1
 71
     0
 91
        1
 92
        1
 93
        1
 72
     4
 94
        3
 73
     0
 74
     1
 95
       17
 96
       13
 40
0.0
 40
0.0
 40
0.0
 40
0.0
 40
1.0
 40
1.0
 40
1.0
 40
2.0
 40
2.0
 40
2.0
 40
3.0
 40
3.0
 40
3.0
 40
4.0
 40
4.0
 40
4.0
 40
4.0
 10
0.5222223069932725
 20
0.8347218661838269
 10
0.5437001122368706
 20
0.8347218661838269
 10
0.5611112382676866
 20
0.8173107401530109
 10
0.5611112382676866
 20
0.7958331468370387
 10
0.5611112382676866
 20
0.7743555535210664
 10
0.5437001122368706
 20
0.7569444274902505
 10
0.5222223069932725
 20
0.7569444274902505
 10
0.5007445017496744
 20
0.7569444274902505
 10
0.4833333757188585
 20
0.7743555535210664
 10
0.4833333757188585
 20
0.7958331468370387
 10
0.4833333757188585
 20
0.8173107401530109
 10
0.5007445017496744
 20
0.8347218661838269
 10
0.5222223069932725
 20
0.8347218661838269
 97
        0
 97
        0
 75
     2
 76
     1
 98
        0
  0
SPLINE
  5
A3
330
9D
100
AcDbEntity
  8
Layer 1
 62
     7
420
 16777215
370
     9
100
AcDbSpline
210
0.0
220
0.0
230
1.0
 70
    11
 71
     3
 72
    17
 73
    13
 74
     0
 42
0.0000000001
 43
0.0000000001
 12
1.0
 22
0.0
 32
0.0
 13
1.0
 23
0.0
 33
0.0
 40
0.0
 40
0.0
 40
0.0
 40
0.0
 40
1.0
 40
1.0
 40
1.0
 40
2.0
 40
2.0
 40
2.0
 40
3.0
 40
3.0
 40
3.0
 40
4.0
 40
4.0
 40
4.0
 40
4.0
 10
0.5222223069932725
 20
0.8152775065104327
 30
0.0
 10
0.5329611036512587
 20
0.8152775065104327
 30
0.0
 10
0.5416666666666666
 20
0.8065719434950248
 30
0.0
 10
0.5416666666666666
 20
0.7958331468370387
 30
0.0
 10
0.5416666666666666
 20
0.7850943501790526
 30
0.0
 10
0.5329611036512587
 20
0.7763887871636446
 30
0.0
 10
0.5222223069932725
 20
0.7763887871636446
 30
0.0
 10
0.5114835103352864
 20
0.7763887871636446
 30
0.0
 10
0.5027779473198785
 20
0.7850943501790526
 30
0.0
 10
0.5027779473198785
 20
0.7958331468370387
 30
0.0
 10
0.5027779473198785
 20
0.8065719434950248
 30
0.0
 10
0.5114835103352864
 20
0.8152775065104327
 30
0.0
 10
0.5222223069932725
 20
0.8152775065104327
 30
0.0
  0
HATCH
  5
A4
330
9D
100
AcDbEntity
  8
Layer 1
 62
     7
420
 16777215
100
AcDbHatch
 10
0.0
 20
0.0
 30
0.0
210
0.0
220
0.0
230
1.0
  2
SOLID
 70
     1
 71
     0
 91
        1
 92
        1
 93
        1
 72
     4
 94
        3
 73
     0
 74
     1
 95
       17
 96
       13
 40
0.0
 40
0.0
 40
0.0
 40
0.0
 40
1.0
 40
1.0
 40
1.0
 40
2.0
 40
2.0
 40
2.0
 40
3.0
 40
3.0
 40
3.0
 40
4.0
 40
4.0
 40
4.0
 40
4.0
 10
0.5222223069932725
 20
0.8152775065104327
 10
0.5329611036512587
 20
0.8152775065104327
 10
0.5416666666666666
 20
0.8065719434950248
 10
0.5416666666666666
 20
0.7958331468370387
 10
0.5416666666666666
 20
0.7850943501790526
 10
0.5329611036512587
 20
0.7763887871636446
 10
0.5222223069932725
 20
0.7763887871636446
 10
0.5114835103352864
 20
0.7763887871636446
 10
0.5027779473198785
 20
0.7850943501790526
 10
0.5027779473198785
 20
0.7958331468370387
 10
0.5027779473198785
 20
0.8065719434950248
 10
0.5114835103352864
 20
0.8152775065104327
 10
0.5222223069932725
 20
0.8152775065104327
 97
        0
 97
        0
 75
     2
 76
     1
 98
        0
  0
ENDBLK
  5
A0
330
9D
100
AcDbEntity
  8
0
100
AcDbBlockEnd
  0
BLOCK
  5
A7
330
A5
100
AcDbEntity
  8
0
100
AcDbBlockBegin
  2
block 15
 70
     0
 10
0.0
 20
0.0
 30
0.0
  3
block 15
  1

  0
SPLINE
  5
A9
330
A5
100
AcDbEntity
  8
Layer 1
 62
     7
420
 16777215
370
     9
100
AcDbSpline
210
0.0
220
0.0
230
1.0
 70
    11
 71
     3
 72
    17
 73
    13
 74
     0
 42
0.0000000001
 43
0.0000000001
 12
1.0
 22
0.0
 32
0.0
 13
1.0
 23
0.0
 33
0.0
 40
0.0
 40
0.0
 40
0.0
 40
0.0
 40
1.0
 40
1.0
 40
1.0
 40
2.0
 40
2.0
 40
2.0
 40
3.0
 40
3.0
 40
3.0
 40
4.0
 40
4.0
 40
4.0
 40
4.0
 10
0.5222223069932725
 20
1.012499474419504
 30
0.0
 10
0.5437001122368706
 20
1.012499474419504
 30
0.0
 10
0.5611112382676866
 20
0.995088348388688
 30
0.0
 10
0.5611112382676866
 20
0.9736107550727158
 30
0.0
 10
0.5611112382676866
 20
0.9521331617567436
 30
0.0
 10
0.5437001122368706
 20
0.9347220357259276
 30
0.0
 10
0.5222223069932725
 20
0.9347220357259276
 30
0.0
 10
0.5007445017496744
 20
0.9347220357259276
 30
0.0
 10
0.4833333757188585
 20
0.9521331617567436
 30
0.0
 10
0.4833333757188585
 20
0.9736107550727158
 30
0.0
 10
0.4833333757188585
 20
0.995088348388688
 30
0.0
 10
0.5007445017496744
 20
1.012499474419504
 30
0.0
 10
0.5222223069932725
 20
1.012499474419504
 30
0.0
  0
HATCH
  5
AA
330
A5
100
AcDbEntity
  8
Layer 1
 62
     7
420
 16777215
100
AcDbHatch
 10
0.0
 20
0.0
 30
0.0
210
0.0
220
0.0
230
1.0
  2
SOLID
 70
     1
 71
     0
 91
        1
 92
        1
 93
        1
 72
     4
 94
        3
 73
     0
 74
     1
 95
       17
 96
       13
 40
0.0
 40
0.0
 40
0.0
 40
0.0
 40
1.0
 40
1.0
 40
1.0
 40
2.0
 40
2.0
 40
2.0
 40
3.0
 40
3.0
 40
3.0
 40
4.0
 40
4.0
 40
4.0
 40
4.0
 10
0.5222223069932725
 20
1.012499474419504
 10
0.5437001122368706
 20
1.012499474419504
 10
0.5611112382676866
 20
0.995088348388688
 10
0.5611112382676866
 20
0.9736107550727158
 10
0.5611112382676866
 20
0.9521331617567436
 10
0.5437001122368706
 20
0.9347220357259276
 10
0.5222223069932725
 20
0.9347220357259276
 10
0.5007445017496744
 20
0.9347220357259276
 10
0.4833333757188585
 20
0.9521331617567436
 10
0.4833333757188585
 20
0.9736107550727158
 10
0.4833333757188585
 20
0.995088348388688
 10
0.5007445017496744
 20
1.012499474419504
 10
0.5222223069932725
 20
1.012499474419504
 97
        0
 97
        0
 75
     2
 76
     1
 98
        0
  0
SPLINE
  5
AB
330
A5
100
AcDbEntity
  8
Layer 1
 62
     7
420
 16777215
370
     9
100
AcDbSpline
210
0.0
220
0.0
230
1.0
 70
    11
 71
     3
 72
    17
 73
    13
 74
     0
 42
0.0000000001
 43
0.0000000001
 12
1.0
 22
0.0
 32
0.0
 13
1.0
 23
0.0
 33
0.0
 40
0.0
 40
0.0
 40
0.0
 40
0.0
 40
1.0
 40
1.0
 40
1.0
 40
2.0
 40
2.0
 40
2.0
 40
3.0
 40
3.0
 40
3.0
 40
4.0
 40
4.0
 40
4.0
 40
4.0
 10
0.5222223069932725
 20
0.9930551147461099
 30
0.0
 10
0.5329611036512587
 20
0.9930551147461099
 30
0.0
 10
0.5416666666666666
 20
0.9843495517307019
 30
0.0
 10
0.5416666666666666
 20
0.9736107550727158
 30
0.0
 10
0.5416666666666666
 20
0.9628719584147296
 30
0.0
 10
0.5329611036512587
 20
0.9541663953993217
 30
0.0
 10
0.5222223069932725
 20
0.9541663953993217
 30
0.0
 10
0.5114835103352864
 20
0.9541663953993217
 30
0.0
 10
0.5027779473198785
 20
0.9628719584147296
 30
0.0
 10
0.5027779473198785
 20
0.9736107550727158
 30
0.0
 10
0.5027779473198785
 20
0.9843495517307019
 30
0.0
 10
0.5114835103352864
 20
0.9930551147461099
 30
0.0
 10
0.5222223069932725
 20
0.9930551147461099
 30
0.0
  0
HATCH
  5
AC
330
A5
100
AcDbEntity
  8
Layer 1
 62
     7
420
 16777215
100
AcDbHatch
 10
0.0
 20
0.0
 30
0.0
210
0.0
220
0.0
230
1.0
  2
SOLID
 70
     1
 71
     0
 91
        1
 92
        1
 93
        1
 72
     4
 94
        3
 73
     0
 74
     1
 95
       17
 96
       13
 40
0.0
 40
0.0
 40
0.0
 40
0.0
 40
1.0
 40
1.0
 40
1.0
 40
2.0
 40
2.0
 40
2.0
 40
3.0
 40
3.0
 40
3.0
 40
4.0
 40
4.0
 40
4.0
 40
4.0
 10
0.5222223069932725
 20
0.9930551147461099
 10
0.5329611036512587
 20
0.9930551147461099
 10
0.5416666666666666
 20
0.9843495517307019
 10
0.5416666666666666
 20
0.9736107550727158
 10
0.5416666666666666
 20
0.9628719584147296
 10
0.5329611036512587
 20
0.9541663953993217
 10
0.5222223069932725
 20
0.9541663953993217
 10
0.5114835103352864
 20
0.9541663953993217
 10
0.5027779473198785
 20
0.9628719584147296
 10
0.5027779473198785
 20
0.9736107550727158
 10
0.5027779473198785
 20
0.9843495517307019
 10
0.5114835103352864
 20
0.9930551147461099
 10
0.5222223069932725
 20
0.9930551147461099
 97
        0
 97
        0
 75
     2
 76
     1
 98
        0
  0
ENDBLK
  5
A8
330
A5
100
AcDbEntity
  8
0
100
AcDbBlockEnd
  0
BLOCK
  5
AF
330
AD
100
AcDbEntity
  8
0
100
AcDbBlockBegin
  2
block 16
 70
     0
 10
0.0
 20
0.0
 30
0.0
  3
block 16
  1

  0
SPLINE
  5
B1
330
AD
100
AcDbEntity
  8
Layer 1
 62
     7
420
 16777215
370
     9
100
AcDbSpline
210
0.0
220
0.0
230
1.0
 70
    11
 71
     3
 72
    17
 73
    13
 74
     0
 42
0.0000000001
 43
0.0000000001
 12
1.0
 22
0.0
 32
0.0
 13
1.0
 23
0.0
 33
0.0
 40
0.0
 40
0.0
 40
0.0
 40
0.0
 40
1.0
 40
1.0
 40
1.0
 40
2.0
 40
2.0
 40
2.0
 40
3.0
 40
3.0
 40
3.0
 40
4.0
 40
4.0
 40
4.0
 40
4.0
 10
0.7583334181043836
 20
1.012499474419504
 30
0.0
 10
0.7798112233479817
 20
1.012499474419504
 30
0.0
 10
0.7972223493787977
 20
0.995088348388688
 30
0.0
 10
0.7972223493787977
 20
0.9736107550727158
 30
0.0
 10
0.7972223493787977
 20
0.9521331617567436
 30
0.0
 10
0.7798112233479817
 20
0.9347220357259276
 30
0.0
 10
0.7583334181043836
 20
0.9347220357259276
 30
0.0
 10
0.7368556128607856
 20
0.9347220357259276
 30
0.0
 10
0.7194444868299695
 20
0.9521331617567436
 30
0.0
 10
0.7194444868299695
 20
0.9736107550727158
 30
0.0
 10
0.7194444868299695
 20
0.995088348388688
 30
0.0
 10
0.7368556128607856
 20
1.012499474419504
 30
0.0
 10
0.7583334181043836
 20
1.012499474419504
 30
0.0
  0
HATCH
  5
B2
330
AD
100
AcDbEntity
  8
Layer 1
 62
     7
420
 16777215
100
AcDbHatch
 10
0.0
 20
0.0
 30
0.0
210
0.0
220
0.0
230
1.0
  2
SOLID
 70
     1
 71
     0
 91
        1
 92
        1
 93
        1
 72
     4
 94
        3
 73
     0
 74
     1
 95
       17
 96
       13
 40
0.0
 40
0.0
 40
0.0
 40
0.0
 40
1.0
 40
1.0
 40
1.0
 40
2.0
 40
2.0
 40
2.0
 40
3.0
 40
3.0
 40
3.0
 40
4.0
 40
4.0
 40
4.0
 40
4.0
 10
0.7583334181043836
 20
1.012499474419504
 10
0.7798112233479817
 20
1.012499474419504
 10
0.7972223493787977
 20
0.995088348388688
 10
0.7972223493787977
 20
0.9736107550727158
 10
0.7972223493787977
 20
0.9521331617567436
 10
0.7798112233479817
 20
0.9347220357259276
 10
0.7583334181043836
 20
0.9347220357259276
 10
0.7368556128607856
 20
0.9347220357259276
 10
0.7194444868299695
 20
0.9521331617567436
 10
0.7194444868299695
 20
0.9736107550727158
 10
0.7194444868299695
 20
0.995088348388688
 10
0.7368556128607856
 20
1.012499474419504
 10
0.7583334181043836
 20
1.012499474419504
 97
        0
 97
        0
 75
     2
 76
     1
 98
        0
  0
SPLINE
  5
B3
330
AD
100
AcDbEntity
  8
Layer 1
 62
     7
420
 16777215
370
     9
100
AcDbSpline
210
0.0
220
0.0
230
1.0
 70
    11
 71
     3
 72
    17
 73
    13
 74
     0
 42
0.0000000001
 43
0.0000000001
 12
1.0
 22
0.0
 32
0.0
 13
1.0
 23
0.0
 33
0.0
 40
0.0
 40
0.0
 40
0.0
 40
0.0
 40
1.0
 40
1.0
 40
1.0
 40
2.0
 40
2.0
 40
2.0
 40
3.0
 40
3.0
 40
3.0
 40
4.0
 40
4.0
 40
4.0
 40
4.0
 10
0.7583334181043836
 20
0.9930551147461099
 30
0.0
 10
0.7690722147623698
 20
0.9930551147461099
 30
0.0
 10
0.7777777777777777
 20
0.9843495517307019
 30
0.0
 10
0.7777777777777777
 20
0.9736107550727158
 30
0.0
 10
0.7777777777777777
 20
0.9628719584147296
 30
0.0
 10
0.7690722147623698
 20
0.9541663953993217
 30
0.0
 10
0.7583334181043836
 20
0.9541663953993217
 30
0.0
 10
0.7475946214463975
 20
0.9541663953993217
 30
0.0
 10
0.7388890584309895
 20
0.9628719584147296
 30
0.0
 10
0.7388890584309895
 20
0.9736107550727158
 30
0.0
 10
0.7388890584309895
 20
0.9843495517307019
 30
0.0
 10
0.7475946214463975
 20
0.9930551147461099
 30
0.0
 10
0.7583334181043836
 20
0.9930551147461099
 30
0.0
  0
HATCH
  5
B4
330
AD
100
AcDbEntity
  8
Layer 1
 62
     7
420
 16777215
100
AcDbHatch
 10
0.0
 20
0.0
 30
0.0
210
0.0
220
0.0
230
1.0
  2
SOLID
 70
     1
 71
     0
 91
        1
 92
        1
 93
        1
 72
     4
 94
        3
 73
     0
 74
     1
 95
       17
 96
       13
 40
0.0
 40
0.0
 40
0.0
 40
0.0
 40
1.0
 40
1.0
 40
1.0
 40
2.0
 40
2.0
 40
2.0
 40
3.0
 40
3.0
 40
3.0
 40
4.0
 40
4.0
 40
4.0
 40
4.0
 10
0.7583334181043836
 20
0.9930551147461099
 10
0.7690722147623698
 20
0.9930551147461099
 10
0.7777777777777777
 20
0.9843495517307019
 10
0.7777777777777777
 20
0.9736107550727158
 10
0.7777777777777777
 20
0.9628719584147296
 10
0.7690722147623698
 20
0.9541663953993217
 10
0.7583334181043836
 20
0.9541663953993217
 10
0.7475946214463975
 20
0.9541663953993217
 10
0.7388890584309895
 20
0.9628719584147296
 10
0.7388890584309895
 20
0.9736107550727158
 10
0.7388890584309895
 20
0.9843495517307019
 10
0.7475946214463975
 20
0.9930551147461099
 10
0.7583334181043836
 20
0.9930551147461099
 97
        0
 97
        0
 75
     2
 76
     1
 98
        0
  0
ENDBLK
  5
B0
330
AD
100
AcDbEntity
  8
0
100
AcDbBlockEnd
  0
BLOCK
  5
B7
330
B5
100
AcDbEntity
  8
0
100
AcDbBlockBegin
  2
block 17
 70
     0
 10
0.0
 20
0.0
 30
0.0
  3
block 17
  1

  0
SPLINE
  5
B9
330
B5
100
AcDbEntity
  8
Layer 1
 62
     7
420
 16777215
370
     9
100
AcDbSpline
210
0.0
220
0.0
230
1.0
 70
    11
 71
     3
 72
    17
 73
    13
 74
     0
 42
0.0000000001
 43
0.0000000001
 12
1.0
 22
0.0
 32
0.0
 13
1.0
 23
0.0
 33
0.0
 40
0.0
 40
0.0
 40
0.0
 40
0.0
 40
1.0
 40
1.0
 40
1.0
 40
2.0
 40
2.0
 40
2.0
 40
3.0
 40
3.0
 40
3.0
 40
4.0
 40
4.0
 40
4.0
 40
4.0
 10
2.854166666666667
 20
0.8249998982747557
 30
0.0
 10
2.881013870239258
 20
0.8249998982747557
 30
0.0
 10
2.902777777777778
 20
0.8032357788086099
 30
0.0
 10
2.902777777777778
 20
0.7763887871636446
 30
0.0
 10
2.902777777777778
 20
0.7495417955186793
 30
0.0
 10
2.881013870239258
 20
0.7277776760525335
 30
0.0
 10
2.854166666666667
 20
0.7277776760525335
 30
0.0
 10
2.827319463094075
 20
0.7277776760525335
 30
0.0
 10
2.805555555555555
 20
0.7495417955186793
 30
0.0
 10
2.805555555555555
 20
0.7763887871636446
 30
0.0
 10
2.805555555555555
 20
0.8032357788086099
 30
0.0
 10
2.827319463094075
 20
0.8249998982747557
 30
0.0
 10
2.854166666666667
 20
0.8249998982747557
 30
0.0
  0
HATCH
  5
BA
330
B5
100
AcDbEntity
  8
Layer 1
 62
     7
420
 16777215
100
AcDbHatch
 10
0.0
 20
0.0
 30
0.0
210
0.0
220
0.0
230
1.0
  2
SOLID
 70
     1
 71
     0
 91
        1
 92
        1
 93
        1
 72
     4
 94
        3
 73
     0
 74
     1
 95
       17
 96
       13
 40
0.0
 40
0.0
 40
0.0
 40
0.0
 40
1.0
 40
1.0
 40
1.0
 40
2.0
 40
2.0
 40
2.0
 40
3.0
 40
3.0
 40
3.0
 40
4.0
 40
4.0
 40
4.0
 40
4.0
 10
2.854166666666667
 20
0.8249998982747557
 10
2.881013870239258
 20
0.8249998982747557
 10
2.902777777777778
 20
0.8032357788086099
 10
2.902777777777778
 20
0.7763887871636446
 10
2.902777777777778
 20
0.7495417955186793
 10
2.881013870239258
 20
0.7277776760525335
 10
2.854166666666667
 20
0.7277776760525335
 10
2.827319463094075
 20
0.7277776760525335
 10
2.805555555555555
 20
0.7495417955186793
 10
2.805555555555555
 20
0.7763887871636446
 10
2.805555555555555
 20
0.8032357788086099
 10
2.827319463094075
 20
0.8249998982747557
 10
2.854166666666667
 20
0.8249998982747557
 97
        0
 97
        0
 75
     2
 76
     1
 98
        0
  0
SPLINE
  5
BB
330
B5
100
AcDbEntity
  8
Layer 1
 62
     7
420
 16777215
370
     9
100
AcDbSpline
210
0.0
220
0.0
230
1.0
 70
    11
 71
     3
 72
    17
 73
    13
 74
     0
 42
0.0000000001
 43
0.0000000001
 12
1.0
 22
0.0
 32
0.0
 13
1.0
 23
0.0
 33
0.0
 40
0.0
 40
0.0
 40
0.0
 40
0.0
 40
1.0
 40
1.0
 40
1.0
 40
2.0
 40
2.0
 40
2.0
 40
3.0
 40
3.0
 40
3.0
 40
4.0
 40
4.0
 40
4.0
 40
4.0
 10
2.854166666666667
 20
0.8041665649414224
 30
0.0
 10
2.869507895575629
 20
0.8041665649414224
 30
0.0
 10
2.881944444444444
 20
0.7917302280002332
 30
0.0
 10
2.881944444444444
 20
0.7763887871636446
 30
0.0
 10
2.881944444444444
 20
0.7610473463270561
 30
0.0
 10
2.869507895575629
 20
0.7486110093858668
 30
0.0
 10
2.854166666666667
 20
0.7486110093858668
 30
0.0
 10
2.838825437757704
 20
0.7486110093858668
 30
0.0
 10
2.826388888888889
 20
0.7610473463270561
 30
0.0
 10
2.826388888888889
 20
0.7763887871636446
 30
0.0
 10
2.826388888888889
 20
0.7917302280002332
 30
0.0
 10
2.838825437757704
 20
0.8041665649414224
 30
0.0
 10
2.854166666666667
 20
0.8041665649414224
 30
0.0
  0
HATCH
  5
BC
330
B5
100
AcDbEntity
  8
Layer 1
 62
     7
420
 16777215
100
AcDbHatch
 10
0.0
 20
0.0
 30
0.0
210
0.0
220
0.0
230
1.0
  2
SOLID
 70
     1
 71
     0
 91
        1
 92
        1
 93
        1
 72
     4
 94
        3
 73
     0
 74
     1
 95
       17
 96
       13
 40
0.0
 40
0.0
 40
0.0
 40
0.0
 40
1.0
 40
1.0
 40
1.0
 40
2.0
 40
2.0
 40
2.0
 40
3.0
 40
3.0
 40
3.0
 40
4.0
 40
4.0
 40
4.0
 40
4.0
 10
2.854166666666667
 20
0.8041665649414224
 10
2.869507895575629
 20
0.8041665649414224
 10
2.881944444444444
 20
0.7917302280002332
 10
2.881944444444444
 20
0.7763887871636446
 10
2.881944444444444
 20
0.7610473463270561
 10
2.869507895575629
 20
0.7486110093858668
 10
2.854166666666667
 20
0.7486110093858668
 10
2.838825437757704
 20
0.7486110093858668
 10
2.826388888888889
 20
0.7610473463270561
 10
2.826388888888889
 20
0.7763887871636446
 10
2.826388888888889
 20
0.7917302280002332
 10
2.838825437757704
 20
0.8041665649414224
 10
2.854166666666667
 20
0.8041665649414224
 97
        0
 97
        0
 75
     2
 76
     1
 98
        0
  0
ENDBLK
  5
B8
330
B5
100
AcDbEntity
  8
0
100
AcDbBlockEnd
  0
BLOCK
  5
BF
330
BD
100
AcDbEntity
  8
0
100
AcDbBlockBegin
  2
block 18
 70
     0
 10
0.0
 20
0.0
 30
0.0
  3
block 18
  1

  0
SPLINE
  5
C1
330
BD
100
AcDbEntity
  8
Layer 1
 62
     7
420
 16777215
370
     9
100
AcDbSpline
210
0.0
220
0.0
230
1.0
 70
    11
 71
     3
 72
    17
 73
    13
 74
     0
 42
0.0000000001
 43
0.0000000001
 12
1.0
 22
0.0
 32
0.0
 13
1.0
 23
0.0
 33
0.0
 40
0.0
 40
0.0
 40
0.0
 40
0.0
 40
1.0
 40
1.0
 40
1.0
 40
2.0
 40
2.0
 40
2.0
 40
3.0
 40
3.0
 40
3.0
 40
4.0
 40
4.0
 40
4.0
 40
4.0
 10
3.347222222222222
 20
0.8249998982747557
 30
0.0
 10
3.374069372812907
 20
0.8249998982747557
 30
0.0
 10
3.395833333333333
 20
0.8032357788086099
 30
0.0
 10
3.395833333333333
 20
0.7763887871636446
 30
0.0
 10
3.395833333333333
 20
0.7495417955186793
 30
0.0
 10
3.374069372812907
 20
0.7277776760525335
 30
0.0
 10
3.347222222222222
 20
0.7277776760525335
 30
0.0
 10
3.320375071631537
 20
0.7277776760525335
 30
0.0
 10
3.298611111111111
 20
0.7495417955186793
 30
0.0
 10
3.298611111111111
 20
0.7763887871636446
 30
0.0
 10
3.298611111111111
 20
0.8032357788086099
 30
0.0
 10
3.320375071631537
 20
0.8249998982747557
 30
0.0
 10
3.347222222222222
 20
0.8249998982747557
 30
0.0
  0
HATCH
  5
C2
330
BD
100
AcDbEntity
  8
Layer 1
 62
     7
420
 16777215
100
AcDbHatch
 10
0.0
 20
0.0
 30
0.0
210
0.0
220
0.0
230
1.0
  2
SOLID
 70
     1
 71
     0
 91
        1
 92
        1
 93
        1
 72
     4
 94
        3
 73
     0
 74
     1
 95
       17
 96
       13
 40
0.0
 40
0.0
 40
0.0
 40
0.0
 40
1.0
 40
1.0
 40
1.0
 40
2.0
 40
2.0
 40
2.0
 40
3.0
 40
3.0
 40
3.0
 40
4.0
 40
4.0
 40
4.0
 40
4.0
 10
3.347222222222222
 20
0.8249998982747557
 10
3.374069372812907
 20
0.8249998982747557
 10
3.395833333333333
 20
0.8032357788086099
 10
3.395833333333333
 20
0.7763887871636446
 10
3.395833333333333
 20
0.7495417955186793
 10
3.374069372812907
 20
0.7277776760525335
 10
3.347222222222222
 20
0.7277776760525335
 10
3.320375071631537
 20
0.7277776760525335
 10
3.298611111111111
 20
0.7495417955186793
 10
3.298611111111111
 20
0.7763887871636446
 10
3.298611111111111
 20
0.8032357788086099
 10
3.320375071631537
 20
0.8249998982747557
 10
3.347222222222222
 20
0.8249998982747557
 97
        0
 97
        0
 75
     2
 76
     1
 98
        0
  0
SPLINE
  5
C3
330
BD
100
AcDbEntity
  8
Layer 1
 62
     7
420
 16777215
370
     9
100
AcDbSpline
210
0.0
220
0.0
230
1.0
 70
    11
 71
     3
 72
    17
 73
    13
 74
     0
 42
0.0000000001
 43
0.0000000001
 12
1.0
 22
0.0
 32
0.0
 13
1.0
 23
0.0
 33
0.0
 40
0.0
 40
0.0
 40
0.0
 40
0.0
 40
1.0
 40
1.0
 40
1.0
 40
2.0
 40
2.0
 40
2.0
 40
3.0
 40
3.0
 40
3.0
 40
4.0
 40
4.0
 40
4.0
 40
4.0
 10
3.347222222222222
 20
0.8041665649414224
 30
0.0
 10
3.362563451131185
 20
0.8041665649414224
 30
0.0
 10
3.375
 20
0.7917302280002332
 30
0.0
 10
3.375
 20
0.7763887871636446
 30
0.0
 10
3.375
 20
0.7610473463270561
 30
0.0
 10
3.362563451131185
 20
0.7486110093858668
 30
0.0
 10
3.347222222222222
 20
0.7486110093858668
 30
0.0
 10
3.331880993313259
 20
0.7486110093858668
 30
0.0
 10
3.319444444444444
 20
0.7610473463270561
 30
0.0
 10
3.319444444444444
 20
0.7763887871636446
 30
0.0
 10
3.319444444444444
 20
0.7917302280002332
 30
0.0
 10
3.331880993313259
 20
0.8041665649414224
 30
0.0
 10
3.347222222222222
 20
0.8041665649414224
 30
0.0
  0
HATCH
  5
C4
330
BD
100
AcDbEntity
  8
Layer 1
 62
     7
420
 16777215
100
AcDbHatch
 10
0.0
 20
0.0
 30
0.0
210
0.0
220
0.0
230
1.0
  2
SOLID
 70
     1
 71
     0
 91
        1
 92
        1
 93
        1
 72
     4
 94
        3
 73
     0
 74
     1
 95
       17
 96
       13
 40
0.0
 40
0.0
 40
0.0
 40
0.0
 40
1.0
 40
1.0
 40
1.0
 40
2.0
 40
2.0
 40
2.0
 40
3.0
 40
3.0
 40
3.0
 40
4.0
 40
4.0
 40
4.0
 40
4.0
 10
3.347222222222222
 20
0.8041665649414224
 10
3.362563451131185
 20
0.8041665649414224
 10
3.375
 20
0.7917302280002332
 10
3.375
 20
0.7763887871636446
 10
3.375
 20
0.7610473463270561
 10
3.362563451131185
 20
0.7486110093858668
 10
3.347222222222222
 20
0.7486110093858668
 10
3.331880993313259
 20
0.7486110093858668
 10
3.319444444444444
 20
0.7610473463270561
 10
3.319444444444444
 20
0.7763887871636446
 10
3.319444444444444
 20
0.7917302280002332
 10
3.331880993313259
 20
0.8041665649414224
 10
3.347222222222222
 20
0.8041665649414224
 97
        0
 97
        0
 75
     2
 76
     1
 98
        0
  0
ENDBLK
  5
C0
330
BD
100
AcDbEntity
  8
0
100
AcDbBlockEnd
  0
BLOCK
  5
C7
330
C5
100
AcDbEntity
  8
0
100
AcDbBlockBegin
  2
block 19
 70
     0
 10
0.0
 20
0.0
 30
0.0
  3
block 19
  1

  0
SPLINE
  5
C9
330
C5
100
AcDbEntity
  8
Layer 1
 62
     7
420
 16777215
370
     9
100
AcDbSpline
210
0.0
220
0.0
230
1.0
 70
    11
 71
     3
 72
    17
 73
    13
 74
     0
 42
0.0000000001
 43
0.0000000001
 12
1.0
 22
0.0
 32
0.0
 13
1.0
 23
0.0
 33
0.0
 40
0.0
 40
0.0
 40
0.0
 40
0.0
 40
1.0
 40
1.0
 40
1.0
 40
2.0
 40
2.0
 40
2.0
 40
3.0
 40
3.0
 40
3.0
 40
4.0
 40
4.0
 40
4.0
 40
4.0
 10
3.347222222222222
 20
0.4319440884060491
 30
0.0
 10
3.374069372812907
 20
0.4319440884060491
 30
0.0
 10
3.395833333333333
 20
0.4101799689399033
 30
0.0
 10
3.395833333333333
 20
0.383332977294938
 30
0.0
 10
3.395833333333333
 20
0.3564859856499727
 30
0.0
 10
3.374069372812907
 20
0.3347218661838269
 30
0.0
 10
3.347222222222222
 20
0.3347218661838269
 30
0.0
 10
3.320375071631537
 20
0.3347218661838269
 30
0.0
 10
3.298611111111111
 20
0.3564859856499727
 30
0.0
 10
3.298611111111111
 20
0.383332977294938
 30
0.0
 10
3.298611111111111
 20
0.4101799689399033
 30
0.0
 10
3.320375071631537
 20
0.4319440884060491
 30
0.0
 10
3.347222222222222
 20
0.4319440884060491
 30
0.0
  0
HATCH
  5
CA
330
C5
100
AcDbEntity
  8
Layer 1
 62
     7
420
 16777215
100
AcDbHatch
 10
0.0
 20
0.0
 30
0.0
210
0.0
220
0.0
230
1.0
  2
SOLID
 70
     1
 71
     0
 91
        1
 92
        1
 93
        1
 72
     4
 94
        3
 73
     0
 74
     1
 95
       17
 96
       13
 40
0.0
 40
0.0
 40
0.0
 40
0.0
 40
1.0
 40
1.0
 40
1.0
 40
2.0
 40
2.0
 40
2.0
 40
3.0
 40
3.0
 40
3.0
 40
4.0
 40
4.0
 40
4.0
 40
4.0
 10
3.347222222222222
 20
0.4319440884060491
 10
3.374069372812907
 20
0.4319440884060491
 10
3.395833333333333
 20
0.4101799689399033
 10
3.395833333333333
 20
0.383332977294938
 10
3.395833333333333
 20
0.3564859856499727
 10
3.374069372812907
 20
0.3347218661838269
 10
3.347222222222222
 20
0.3347218661838269
 10
3.320375071631537
 20
0.3347218661838269
 10
3.298611111111111
 20
0.3564859856499727
 10
3.298611111111111
 20
0.383332977294938
 10
3.298611111111111
 20
0.4101799689399033
 10
3.320375071631537
 20
0.4319440884060491
 10
3.347222222222222
 20
0.4319440884060491
 97
        0
 97
        0
 75
     2
 76
     1
 98
        0
  0
SPLINE
  5
CB
330
C5
100
AcDbEntity
  8
Layer 1
 62
     7
420
 16777215
370
     9
100
AcDbSpline
210
0.0
220
0.0
230
1.0
 70
    11
 71
     3
 72
    17
 73
    13
 74
     0
 42
0.0000000001
 43
0.0000000001
 12
1.0
 22
0.0
 32
0.0
 13
1.0
 23
0.0
 33
0.0
 40
0.0
 40
0.0
 40
0.0
 40
0.0
 40
1.0
 40
1.0
 40
1.0
 40
2.0
 40
2.0
 40
2.0
 40
3.0
 40
3.0
 40
3.0
 40
4.0
 40
4.0
 40
4.0
 40
4.0
 10
3.347222222222222
 20
0.4111107550727158
 30
0.0
 10
3.362563451131185
 20
0.4111107550727158
 30
0.0
 10
3.375
 20
0.3986744181315265
 30
0.0
 10
3.375
 20
0.383332977294938
 30
0.0
 10
3.375
 20
0.3679915364583495
 30
0.0
 10
3.362563451131185
 20
0.3555551995171602
 30
0.0
 10
3.347222222222222
 20
0.3555551995171602
 30
0.0
 10
3.331880993313259
 20
0.3555551995171602
 30
0.0
 10
3.319444444444444
 20
0.3679915364583495
 30
0.0
 10
3.319444444444444
 20
0.383332977294938
 30
0.0
 10
3.319444444444444
 20
0.3986744181315265
 30
0.0
 10
3.331880993313259
 20
0.4111107550727158
 30
0.0
 10
3.347222222222222
 20
0.4111107550727158
 30
0.0
  0
HATCH
  5
CC
330
C5
100
AcDbEntity
  8
Layer 1
 62
     7
420
 16777215
100
AcDbHatch
 10
0.0
 20
0.0
 30
0.0
210
0.0
220
0.0
230
1.0
  2
SOLID
 70
     1
 71
     0
 91
        1
 92
        1
 93
        1
 72
     4
 94
        3
 73
     0
 74
     1
 95
       17
 96
       13
 40
0.0
 40
0.0
 40
0.0
 40
0.0
 40
1.0
 40
1.0
 40
1.0
 40
2.0
 40
2.0
 40
2.0
 40
3.0
 40
3.0
 40
3.0
 40
4.0
 40
4.0
 40
4.0
 40
4.0
 10
3.347222222222222
 20
0.4111107550727158
 10
3.362563451131185
 20
0.4111107550727158
 10
3.375
 20
0.3986744181315265
 10
3.375
 20
0.383332977294938
 10
3.375
 20
0.3679915364583495
 10
3.362563451131185
 20
0.3555551995171602
 10
3.347222222222222
 20
0.3555551995171602
 10
3.331880993313259
 20
0.3555551995171602
 10
3.319444444444444
 20
0.3679915364583495
 10
3.319444444444444
 20
0.383332977294938
 10
3.319444444444444
 20
0.3986744181315265
 10
3.331880993313259
 20
0.4111107550727158
 10
3.347222222222222
 20
0.4111107550727158
 97
        0
 97
        0
 75
     2
 76
     1
 98
        0
  0
ENDBLK
  5
C8
330
C5
100
AcDbEntity
  8
0
100
AcDbBlockEnd
  0
BLOCK
  5
CF
330
CD
100
AcDbEntity
  8
0
100
AcDbBlockBegin
  2
block 20
 70
     0
 10
0.0
 20
0.0
 30
0.0
  3
block 20
  1

  0
SPLINE
  5
D1
330
CD
100
AcDbEntity
  8
Layer 1
 62
     7
420
 16777215
370
     9
100
AcDbSpline
210
0.0
220
0.0
230
1.0
 70
    11
 71
     3
 72
    17
 73
    13
 74
     0
 42
0.0000000001
 43
0.0000000001
 12
1.0
 22
0.0
 32
0.0
 13
1.0
 23
0.0
 33
0.0
 40
0.0
 40
0.0
 40
0.0
 40
0.0
 40
1.0
 40
1.0
 40
1.0
 40
2.0
 40
2.0
 40
2.0
 40
3.0
 40
3.0
 40
3.0
 40
4.0
 40
4.0
 40
4.0
 40
4.0
 10
2.854166666666667
 20
0.4319440884060491
 30
0.0
 10
2.881013870239258
 20
0.4319440884060491
 30
0.0
 10
2.902777777777778
 20
0.4101799689399033
 30
0.0
 10
2.902777777777778
 20
0.383332977294938
 30
0.0
 10
2.902777777777778
 20
0.3564859856499727
 30
0.0
 10
2.881013870239258
 20
0.3347218661838269
 30
0.0
 10
2.854166666666667
 20
0.3347218661838269
 30
0.0
 10
2.827319463094075
 20
0.3347218661838269
 30
0.0
 10
2.805555555555555
 20
0.3564859856499727
 30
0.0
 10
2.805555555555555
 20
0.383332977294938
 30
0.0
 10
2.805555555555555
 20
0.4101799689399033
 30
0.0
 10
2.827319463094075
 20
0.4319440884060491
 30
0.0
 10
2.854166666666667
 20
0.4319440884060491
 30
0.0
  0
HATCH
  5
D2
330
CD
100
AcDbEntity
  8
Layer 1
 62
     7
420
 16777215
100
AcDbHatch
 10
0.0
 20
0.0
 30
0.0
210
0.0
220
0.0
230
1.0
  2
SOLID
 70
     1
 71
     0
 91
        1
 92
        1
 93
        1
 72
     4
 94
        3
 73
     0
 74
     1
 95
       17
 96
       13
 40
0.0
 40
0.0
 40
0.0
 40
0.0
 40
1.0
 40
1.0
 40
1.0
 40
2.0
 40
2.0
 40
2.0
 40
3.0
 40
3.0
 40
3.0
 40
4.0
 40
4.0
 40
4.0
 40
4.0
 10
2.854166666666667
 20
0.4319440884060491
 10
2.881013870239258
 20
0.4319440884060491
 10
2.902777777777778
 20
0.4101799689399033
 10
2.902777777777778
 20
0.383332977294938
 10
2.902777777777778
 20
0.3564859856499727
 10
2.881013870239258
 20
0.3347218661838269
 10
2.854166666666667
 20
0.3347218661838269
 10
2.827319463094075
 20
0.3347218661838269
 10
2.805555555555555
 20
0.3564859856499727
 10
2.805555555555555
 20
0.383332977294938
 10
2.805555555555555
 20
0.4101799689399033
 10
2.827319463094075
 20
0.4319440884060491
 10
2.854166666666667
 20
0.4319440884060491
 97
        0
 97
        0
 75
     2
 76
     1
 98
        0
  0
SPLINE
  5
D3
330
CD
100
AcDbEntity
  8
Layer 1
 62
     7
420
 16777215
370
     9
100
AcDbSpline
210
0.0
220
0.0
230
1.0
 70
    11
 71
     3
 72
    17
 73
    13
 74
     0
 42
0.0000000001
 43
0.0000000001
 12
1.0
 22
0.0
 32
0.0
 13
1.0
 23
0.0
 33
0.0
 40
0.0
 40
0.0
 40
0.0
 40
0.0
 40
1.0
 40
1.0
 40
1.0
 40
2.0
 40
2.0
 40
2.0
 40
3.0
 40
3.0
 40
3.0
 40
4.0
 40
4.0
 40
4.0
 40
4.0
 10
2.854166666666667
 20
0.4111107550727158
 30
0.0
 10
2.869507895575629
 20
0.4111107550727158
 30
0.0
 10
2.881944444444444
 20
0.3986744181315265
 30
0.0
 10
2.881944444444444
 20
0.383332977294938
 30
0.0
 10
2.881944444444444
 20
0.3679915364583495
 30
0.0
 10
2.869507895575629
 20
0.3555551995171602
 30
0.0
 10
2.854166666666667
 20
0.3555551995171602
 30
0.0
 10
2.838825437757704
 20
0.3555551995171602
 30
0.0
 10
2.826388888888889
 20
0.3679915364583495
 30
0.0
 10
2.826388888888889
 20
0.383332977294938
 30
0.0
 10
2.826388888888889
 20
0.3986744181315265
 30
0.0
 10
2.838825437757704
 20
0.4111107550727158
 30
0.0
 10
2.854166666666667
 20
0.4111107550727158
 30
0.0
  0
HATCH
  5
D4
330
CD
100
AcDbEntity
  8
Layer 1
 62
     7
420
 16777215
100
AcDbHatch
 10
0.0
 20
0.0
 30
0.0
210
0.0
220
0.0
230
1.0
  2
SOLID
 70
     1
 71
     0
 91
        1
 92
        1
 93
        1
 72
     4
 94
        3
 73
     0
 74
     1
 95
       17
 96
       13
 40
0.0
 40
0.0
 40
0.0
 40
0.0
 40
1.0
 40
1.0
 40
1.0
 40
2.0
 40
2.0
 40
2.0
 40
3.0
 40
3.0
 40
3.0
 40
4.0
 40
4.0
 40
4.0
 40
4.0
 10
2.854166666666667
 20
0.4111107550727158
 10
2.869507895575629
 20
0.4111107550727158
 10
2.881944444444444
 20
0.3986744181315265
 10
2.881944444444444
 20
0.383332977294938
 10
2.881944444444444
 20
0.3679915364583495
 10
2.869507895575629
 20
0.3555551995171602
 10
2.854166666666667
 20
0.3555551995171602
 10
2.838825437757704
 20
0.3555551995171602
 10
2.826388888888889
 20
0.3679915364583495
 10
2.826388888888889
 20
0.383332977294938
 10
2.826388888888889
 20
0.3986744181315265
 10
2.838825437757704
 20
0.4111107550727158
 10
2.854166666666667
 20
0.4111107550727158
 97
        0
 97
        0
 75
     2
 76
     1
 98
        0
  0
ENDBLK
  5
D0
330
CD
100
AcDbEntity
  8
0
100
AcDbBlockEnd
  0
BLOCK
  5
D7
330
D5
100
AcDbEntity
  8
0
100
AcDbBlockBegin
  2
block 21
 70
     0
 10
0.0
 20
0.0
 30
0.0
  3
block 21
  1

  0
SPLINE
  5
D9
330
D5
100
AcDbEntity
  8
Layer 1
 62
     7
420
 16777215
370
     9
100
AcDbSpline
210
0.0
220
0.0
230
1.0
 70
    11
 71
     3
 72
    17
 73
    13
 74
     0
 42
0.0000000001
 43
0.0000000001
 12
1.0
 22
0.0
 32
0.0
 13
1.0
 23
0.0
 33
0.0
 40
0.0
 40
0.0
 40
0.0
 40
0.0
 40
1.0
 40
1.0
 40
1.0
 40
2.0
 40
2.0
 40
2.0
 40
3.0
 40
3.0
 40
3.0
 40
4.0
 40
4.0
 40
4.0
 40
4.0
 10
3.188888867696126
 20
0.2638884480794432
 30
0.0
 10
3.210366619957818
 20
0.2638884480794432
 30
0.0
 10
3.227777745988634
 20
0.2464773220486273
 30
0.0
 10
3.227777745988634
 20
0.2249997287326551
 30
0.0
 10
3.227777745988634
 20
0.2035221354166828
 30
0.0
 10
3.210366619957818
 20
0.1861110093858669
 30
0.0
 10
3.188888867696126
 20
0.1861110093858669
 30
0.0
 10
3.167411115434434
 20
0.1861110093858669
 30
0.0
 10
3.149999989403618
 20
0.2035221354166828
 30
0.0
 10
3.149999989403618
 20
0.2249997287326551
 30
0.0
 10
3.149999989403618
 20
0.2464773220486273
 30
0.0
 10
3.167411115434434
 20
0.2638884480794432
 30
0.0
 10
3.188888867696126
 20
0.2638884480794432
 30
0.0
  0
HATCH
  5
DA
330
D5
100
AcDbEntity
  8
Layer 1
 62
     7
420
 16777215
100
AcDbHatch
 10
0.0
 20
0.0
 30
0.0
210
0.0
220
0.0
230
1.0
  2
SOLID
 70
     1
 71
     0
 91
        1
 92
        1
 93
        1
 72
     4
 94
        3
 73
     0
 74
     1
 95
       17
 96
       13
 40
0.0
 40
0.0
 40
0.0
 40
0.0
 40
1.0
 40
1.0
 40
1.0
 40
2.0
 40
2.0
 40
2.0
 40
3.0
 40
3.0
 40
3.0
 40
4.0
 40
4.0
 40
4.0
 40
4.0
 10
3.188888867696126
 20
0.2638884480794432
 10
3.210366619957818
 20
0.2638884480794432
 10
3.227777745988634
 20
0.2464773220486273
 10
3.227777745988634
 20
0.2249997287326551
 10
3.227777745988634
 20
0.2035221354166828
 10
3.210366619957818
 20
0.1861110093858669
 10
3.188888867696126
 20
0.1861110093858669
 10
3.167411115434434
 20
0.1861110093858669
 10
3.149999989403618
 20
0.2035221354166828
 10
3.149999989403618
 20
0.2249997287326551
 10
3.149999989403618
 20
0.2464773220486273
 10
3.167411115434434
 20
0.2638884480794432
 10
3.188888867696126
 20
0.2638884480794432
 97
        0
 97
        0
 75
     2
 76
     1
 98
        0
  0
SPLINE
  5
DB
330
D5
100
AcDbEntity
  8
Layer 1
 62
     7
420
 16777215
370
     9
100
AcDbSpline
210
0.0
220
0.0
230
1.0
 70
    11
 71
     3
 72
    17
 73
    13
 74
     0
 42
0.0000000001
 43
0.0000000001
 12
1.0
 22
0.0
 32
0.0
 13
1.0
 23
0.0
 33
0.0
 40
0.0
 40
0.0
 40
0.0
 40
0.0
 40
1.0
 40
1.0
 40
1.0
 40
2.0
 40
2.0
 40
2.0
 40
3.0
 40
3.0
 40
3.0
 40
4.0
 40
4.0
 40
4.0
 40
4.0
 10
3.188888867696126
 20
0.2444440884060491
 30
0.0
 10
3.199627717336019
 20
0.2444440884060491
 30
0.0
 10
3.208333333333333
 20
0.2357385253906412
 30
0.0
 10
3.208333333333333
 20
0.2249997287326551
 30
0.0
 10
3.208333333333333
 20
0.2142609320746689
 30
0.0
 10
3.199627717336019
 20
0.2055553690592609
 30
0.0
 10
3.188888867696126
 20
0.2055553690592609
 30
0.0
 10
3.178150018056233
 20
0.2055553690592609
 30
0.0
 10
3.169444402058919
 20
0.2142609320746689
 30
0.0
 10
3.169444402058919
 20
0.2249997287326551
 30
0.0
 10
3.169444402058919
 20
0.2357385253906412
 30
0.0
 10
3.178150018056233
 20
0.2444440884060491
 30
0.0
 10
3.188888867696126
 20
0.2444440884060491
 30
0.0
  0
HATCH
  5
DC
330
D5
100
AcDbEntity
  8
Layer 1
 62
     7
420
 16777215
100
AcDbHatch
 10
0.0
 20
0.0
 30
0.0
210
0.0
220
0.0
230
1.0
  2
SOLID
 70
     1
 71
     0
 91
        1
 92
        1
 93
        1
 72
     4
 94
        3
 73
     0
 74
     1
 95
       17
 96
       13
 40
0.0
 40
0.0
 40
0.0
 40
0.0
 40
1.0
 40
1.0
 40
1.0
 40
2.0
 40
2.0
 40
2.0
 40
3.0
 40
3.0
 40
3.0
 40
4.0
 40
4.0
 40
4.0
 40
4.0
 10
3.188888867696126
 20
0.2444440884060491
 10
3.199627717336019
 20
0.2444440884060491
 10
3.208333333333333
 20
0.2357385253906412
 10
3.208333333333333
 20
0.2249997287326551
 10
3.208333333333333
 20
0.2142609320746689
 10
3.199627717336019
 20
0.2055553690592609
 10
3.188888867696126
 20
0.2055553690592609
 10
3.178150018056233
 20
0.2055553690592609
 10
3.169444402058919
 20
0.2142609320746689
 10
3.169444402058919
 20
0.2249997287326551
 10
3.169444402058919
 20
0.2357385253906412
 10
3.178150018056233
 20
0.2444440884060491
 10
3.188888867696126
 20
0.2444440884060491
 97
        0
 97
        0
 75
     2
 76
     1
 98
        0
  0
ENDBLK
  5
D8
330
D5
100
AcDbEntity
  8
0
100
AcDbBlockEnd
  0
BLOCK
  5
DF
330
DD
100
AcDbEntity
  8
0
100
AcDbBlockBegin
  2
block 22
 70
     0
 10
0.0
 20
0.0
 30
0.0
  3
block 22
  1

  0
SPLINE
  5
E1
330
DD
100
AcDbEntity
  8
Layer 1
 62
     7
420
 16777215
370
     9
100
AcDbSpline
210
0.0
220
0.0
230
1.0
 70
    11
 71
     3
 72
    17
 73
    13
 74
     0
 42
0.0000000001
 43
0.0000000001
 12
1.0
 22
0.0
 32
0.0
 13
1.0
 23
0.0
 33
0.0
 40
0.0
 40
0.0
 40
0.0
 40
0.0
 40
1.0
 40
1.0
 40
1.0
 40
2.0
 40
2.0
 40
2.0
 40
3.0
 40
3.0
 40
3.0
 40
4.0
 40
4.0
 40
4.0
 40
4.0
 10
3.090277777777778
 20
0.2638884480794432
 30
0.0
 10
3.111755530039469
 20
0.2638884480794432
 30
0.0
 10
3.129166656070285
 20
0.2464773220486273
 30
0.0
 10
3.129166656070285
 20
0.2249997287326551
 30
0.0
 10
3.129166656070285
 20
0.2035221354166828
 30
0.0
 10
3.111755530039469
 20
0.1861110093858669
 30
0.0
 10
3.090277777777778
 20
0.1861110093858669
 30
0.0
 10
3.068800078497993
 20
0.1861110093858669
 30
0.0
 10
3.051388846503364
 20
0.2035221354166828
 30
0.0
 10
3.051388846503364
 20
0.2249997287326551
 30
0.0
 10
3.051388846503364
 20
0.2464773220486273
 30
0.0
 10
3.068800078497993
 20
0.2638884480794432
 30
0.0
 10
3.090277777777778
 20
0.2638884480794432
 30
0.0
  0
HATCH
  5
E2
330
DD
100
AcDbEntity
  8
Layer 1
 62
     7
420
 16777215
100
AcDbHatch
 10
0.0
 20
0.0
 30
0.0
210
0.0
220
0.0
230
1.0
  2
SOLID
 70
     1
 71
     0
 91
        1
 92
        1
 93
        1
 72
     4
 94
        3
 73
     0
 74
     1
 95
       17
 96
       13
 40
0.0
 40
0.0
 40
0.0
 40
0.0
 40
1.0
 40
1.0
 40
1.0
 40
2.0
 40
2.0
 40
2.0
 40
3.0
 40
3.0
 40
3.0
 40
4.0
 40
4.0
 40
4.0
 40
4.0
 10
3.090277777777778
 20
0.2638884480794432
 10
3.111755530039469
 20
0.2638884480794432
 10
3.129166656070285
 20
0.2464773220486273
 10
3.129166656070285
 20
0.2249997287326551
 10
3.129166656070285
 20
0.2035221354166828
 10
3.111755530039469
 20
0.1861110093858669
 10
3.090277777777778
 20
0.1861110093858669
 10
3.068800078497993
 20
0.1861110093858669
 10
3.051388846503364
 20
0.2035221354166828
 10
3.051388846503364
 20
0.2249997287326551
 10
3.051388846503364
 20
0.2464773220486273
 10
3.068800078497993
 20
0.2638884480794432
 10
3.090277777777778
 20
0.2638884480794432
 97
        0
 97
        0
 75
     2
 76
     1
 98
        0
  0
SPLINE
  5
E3
330
DD
100
AcDbEntity
  8
Layer 1
 62
     7
420
 16777215
370
     9
100
AcDbSpline
210
0.0
220
0.0
230
1.0
 70
    11
 71
     3
 72
    17
 73
    13
 74
     0
 42
0.0000000001
 43
0.0000000001
 12
1.0
 22
0.0
 32
0.0
 13
1.0
 23
0.0
 33
0.0
 40
0.0
 40
0.0
 40
0.0
 40
0.0
 40
1.0
 40
1.0
 40
1.0
 40
2.0
 40
2.0
 40
2.0
 40
3.0
 40
3.0
 40
3.0
 40
4.0
 40
4.0
 40
4.0
 40
4.0
 10
3.090277777777778
 20
0.2444440884060491
 30
0.0
 10
3.10101662741767
 20
0.2444440884060491
 30
0.0
 10
3.109722243414985
 20
0.2357385253906412
 30
0.0
 10
3.109722243414985
 20
0.2249997287326551
 30
0.0
 10
3.109722243414985
 20
0.2142609320746689
 30
0.0
 10
3.10101662741767
 20
0.2055553690592609
 30
0.0
 10
3.090277777777778
 20
0.2055553690592609
 30
0.0
 10
3.079538928137885
 20
0.2055553690592609
 30
0.0
 10
3.070833312140571
 20
0.2142609320746689
 30
0.0
 10
3.070833312140571
 20
0.2249997287326551
 30
0.0
 10
3.070833312140571
 20
0.2357385253906412
 30
0.0
 10
3.079538928137885
 20
0.2444440884060491
 30
0.0
 10
3.090277777777778
 20
0.2444440884060491
 30
0.0
  0
HATCH
  5
E4
330
DD
100
AcDbEntity
  8
Layer 1
 62
     7
420
 16777215
100
AcDbHatch
 10
0.0
 20
0.0
 30
0.0
210
0.0
220
0.0
230
1.0
  2
SOLID
 70
     1
 71
     0
 91
        1
 92
        1
 93
        1
 72
     4
 94
        3
 73
     0
 74
     1
 95
       17
 96
       13
 40
0.0
 40
0.0
 40
0.0
 40
0.0
 40
1.0
 40
1.0
 40
1.0
 40
2.0
 40
2.0
 40
2.0
 40
3.0
 40
3.0
 40
3.0
 40
4.0
 40
4.0
 40
4.0
 40
4.0
 10
3.090277777777778
 20
0.2444440884060491
 10
3.10101662741767
 20
0.2444440884060491
 10
3.109722243414985
 20
0.2357385253906412
 10
3.109722243414985
 20
0.2249997287326551
 10
3.109722243414985
 20
0.2142609320746689
 10
3.10101662741767
 20
0.2055553690592609
 10
3.090277777777778
 20
0.2055553690592609
 10
3.079538928137885
 20
0.2055553690592609
 10
3.070833312140571
 20
0.2142609320746689
 10
3.070833312140571
 20
0.2249997287326551
 10
3.070833312140571
 20
0.2357385253906412
 10
3.079538928137885
 20
0.2444440884060491
 10
3.090277777777778
 20
0.2444440884060491
 97
        0
 97
        0
 75
     2
 76
     1
 98
        0
  0
ENDBLK
  5
E0
330
DD
100
AcDbEntity
  8
0
100
AcDbBlockEnd
  0
BLOCK
  5
E7
330
E5
100
AcDbEntity
  8
0
100
AcDbBlockBegin
  2
block 23
 70
     0
 10
0.0
 20
0.0
 30
0.0
  3
block 23
  1

  0
SPLINE
  5
E9
330
E5
100
AcDbEntity
  8
Layer 1
 62
     7
420
 16777215
370
     9
100
AcDbSpline
210
0.0
220
0.0
230
1.0
 70
    11
 71
     3
 72
    17
 73
    13
 74
     0
 42
0.0000000001
 43
0.0000000001
 12
1.0
 22
0.0
 32
0.0
 13
1.0
 23
0.0
 33
0.0
 40
0.0
 40
0.0
 40
0.0
 40
0.0
 40
1.0
 40
1.0
 40
1.0
 40
2.0
 40
2.0
 40
2.0
 40
3.0
 40
3.0
 40
3.0
 40
4.0
 40
4.0
 40
4.0
 40
4.0
 10
2.993055555555555
 20
0.2638884480794432
 30
0.0
 10
3.014533254835341
 20
0.2638884480794432
 30
0.0
 10
3.031944486829969
 20
0.2464773220486273
 30
0.0
 10
3.031944486829969
 20
0.2249997287326551
 30
0.0
 10
3.031944486829969
 20
0.2035221354166828
 30
0.0
 10
3.014533254835341
 20
0.1861110093858669
 30
0.0
 10
2.993055555555555
 20
0.1861110093858669
 30
0.0
 10
2.97157785627577
 20
0.1861110093858669
 30
0.0
 10
2.954166624281141
 20
0.2035221354166828
 30
0.0
 10
2.954166624281141
 20
0.2249997287326551
 30
0.0
 10
2.954166624281141
 20
0.2464773220486273
 30
0.0
 10
2.97157785627577
 20
0.2638884480794432
 30
0.0
 10
2.993055555555555
 20
0.2638884480794432
 30
0.0
  0
HATCH
  5
EA
330
E5
100
AcDbEntity
  8
Layer 1
 62
     7
420
 16777215
100
AcDbHatch
 10
0.0
 20
0.0
 30
0.0
210
0.0
220
0.0
230
1.0
  2
SOLID
 70
     1
 71
     0
 91
        1
 92
        1
 93
        1
 72
     4
 94
        3
 73
     0
 74
     1
 95
       17
 96
       13
 40
0.0
 40
0.0
 40
0.0
 40
0.0
 40
1.0
 40
1.0
 40
1.0
 40
2.0
 40
2.0
 40
2.0
 40
3.0
 40
3.0
 40
3.0
 40
4.0
 40
4.0
 40
4.0
 40
4.0
 10
2.993055555555555
 20
0.2638884480794432
 10
3.014533254835341
 20
0.2638884480794432
 10
3.031944486829969
 20
0.2464773220486273
 10
3.031944486829969
 20
0.2249997287326551
 10
3.031944486829969
 20
0.2035221354166828
 10
3.014533254835341
 20
0.1861110093858669
 10
2.993055555555555
 20
0.1861110093858669
 10
2.97157785627577
 20
0.1861110093858669
 10
2.954166624281141
 20
0.2035221354166828
 10
2.954166624281141
 20
0.2249997287326551
 10
2.954166624281141
 20
0.2464773220486273
 10
2.97157785627577
 20
0.2638884480794432
 10
2.993055555555555
 20
0.2638884480794432
 97
        0
 97
        0
 75
     2
 76
     1
 98
        0
  0
SPLINE
  5
EB
330
E5
100
AcDbEntity
  8
Layer 1
 62
     7
420
 16777215
370
     9
100
AcDbSpline
210
0.0
220
0.0
230
1.0
 70
    11
 71
     3
 72
    17
 73
    13
 74
     0
 42
0.0000000001
 43
0.0000000001
 12
1.0
 22
0.0
 32
0.0
 13
1.0
 23
0.0
 33
0.0
 40
0.0
 40
0.0
 40
0.0
 40
0.0
 40
1.0
 40
1.0
 40
1.0
 40
2.0
 40
2.0
 40
2.0
 40
3.0
 40
3.0
 40
3.0
 40
4.0
 40
4.0
 40
4.0
 40
4.0
 10
2.993055555555555
 20
0.2444440884060491
 30
0.0
 10
3.003794458177354
 20
0.2444440884060491
 30
0.0
 10
3.012500021192762
 20
0.2357385253906412
 30
0.0
 10
3.012500021192762
 20
0.2249997287326551
 30
0.0
 10
3.012500021192762
 20
0.2142609320746689
 30
0.0
 10
3.003794458177354
 20
0.2055553690592609
 30
0.0
 10
2.993055555555555
 20
0.2055553690592609
 30
0.0
 10
2.982316652933756
 20
0.2055553690592609
 30
0.0
 10
2.973611089918348
 20
0.2142609320746689
 30
0.0
 10
2.973611089918348
 20
0.2249997287326551
 30
0.0
 10
2.973611089918348
 20
0.2357385253906412
 30
0.0
 10
2.982316652933756
 20
0.2444440884060491
 30
0.0
 10
2.993055555555555
 20
0.2444440884060491
 30
0.0
  0
HATCH
  5
EC
330
E5
100
AcDbEntity
  8
Layer 1
 62
     7
420
 16777215
100
AcDbHatch
 10
0.0
 20
0.0
 30
0.0
210
0.0
220
0.0
230
1.0
  2
SOLID
 70
     1
 71
     0
 91
        1
 92
        1
 93
        1
 72
     4
 94
        3
 73
     0
 74
     1
 95
       17
 96
       13
 40
0.0
 40
0.0
 40
0.0
 40
0.0
 40
1.0
 40
1.0
 40
1.0
 40
2.0
 40
2.0
 40
2.0
 40
3.0
 40
3.0
 40
3.0
 40
4.0
 40
4.0
 40
4.0
 40
4.0
 10
2.993055555555555
 20
0.2444440884060491
 10
3.003794458177354
 20
0.2444440884060491
 10
3.012500021192762
 20
0.2357385253906412
 10
3.012500021192762
 20
0.2249997287326551
 10
3.012500021192762
 20
0.2142609320746689
 10
3.003794458177354
 20
0.2055553690592609
 10
2.993055555555555
 20
0.2055553690592609
 10
2.982316652933756
 20
0.2055553690592609
 10
2.973611089918348
 20
0.2142609320746689
 10
2.973611089918348
 20
0.2249997287326551
 10
2.973611089918348
 20
0.2357385253906412
 10
2.982316652933756
 20
0.2444440884060491
 10
2.993055555555555
 20
0.2444440884060491
 97
        0
 97
        0
 75
     2
 76
     1
 98
        0
  0
ENDBLK
  5
E8
330
E5
100
AcDbEntity
  8
0
100
AcDbBlockEnd
  0
BLOCK
  5
EF
330
ED
100
AcDbEntity
  8
0
100
AcDbBlockBegin
  2
block 24
 70
     0
 10
0.0
 20
0.0
 30
0.0
  3
block 24
  1

  0
SPLINE
  5
F1
330
ED
100
AcDbEntity
  8
Layer 1
 62
     7
420
 16777215
370
     9
100
AcDbSpline
210
0.0
220
0.0
230
1.0
 70
    11
 71
     3
 72
    17
 73
    13
 74
     0
 42
0.0000000001
 43
0.0000000001
 12
1.0
 22
0.0
 32
0.0
 13
1.0
 23
0.0
 33
0.0
 40
0.0
 40
0.0
 40
0.0
 40
0.0
 40
1.0
 40
1.0
 40
1.0
 40
2.0
 40
2.0
 40
2.0
 40
3.0
 40
3.0
 40
3.0
 40
4.0
 40
4.0
 40
4.0
 40
4.0
 10
2.736111111111111
 20
0.6180551147461099
 30
0.0
 10
2.757588810390896
 20
0.6180551147461099
 30
0.0
 10
2.775000042385525
 20
0.6006439887152939
 30
0.0
 10
2.775000042385525
 20
0.5791663953993217
 30
0.0
 10
2.775000042385525
 20
0.5576888020833495
 30
0.0
 10
2.757588810390896
 20
0.5402776760525335
 30
0.0
 10
2.736111111111111
 20
0.5402776760525335
 30
0.0
 10
2.714633411831326
 20
0.5402776760525335
 30
0.0
 10
2.697222179836697
 20
0.5576888020833495
 30
0.0
 10
2.697222179836697
 20
0.5791663953993217
 30
0.0
 10
2.697222179836697
 20
0.6006439887152939
 30
0.0
 10
2.714633411831326
 20
0.6180551147461099
 30
0.0
 10
2.736111111111111
 20
0.6180551147461099
 30
0.0
  0
HATCH
  5
F2
330
ED
100
AcDbEntity
  8
Layer 1
 62
     7
420
 16777215
100
AcDbHatch
 10
0.0
 20
0.0
 30
0.0
210
0.0
220
0.0
230
1.0
  2
SOLID
 70
     1
 71
     0
 91
        1
 92
        1
 93
        1
 72
     4
 94
        3
 73
     0
 74
     1
 95
       17
 96
       13
 40
0.0
 40
0.0
 40
0.0
 40
0.0
 40
1.0
 40
1.0
 40
1.0
 40
2.0
 40
2.0
 40
2.0
 40
3.0
 40
3.0
 40
3.0
 40
4.0
 40
4.0
 40
4.0
 40
4.0
 10
2.736111111111111
 20
0.6180551147461099
 10
2.757588810390896
 20
0.6180551147461099
 10
2.775000042385525
 20
0.6006439887152939
 10
2.775000042385525
 20
0.5791663953993217
 10
2.775000042385525
 20
0.5576888020833495
 10
2.757588810390896
 20
0.5402776760525335
 10
2.736111111111111
 20
0.5402776760525335
 10
2.714633411831326
 20
0.5402776760525335
 10
2.697222179836697
 20
0.5576888020833495
 10
2.697222179836697
 20
0.5791663953993217
 10
2.697222179836697
 20
0.6006439887152939
 10
2.714633411831326
 20
0.6180551147461099
 10
2.736111111111111
 20
0.6180551147461099
 97
        0
 97
        0
 75
     2
 76
     1
 98
        0
  0
SPLINE
  5
F3
330
ED
100
AcDbEntity
  8
Layer 1
 62
     7
420
 16777215
370
     9
100
AcDbSpline
210
0.0
220
0.0
230
1.0
 70
    11
 71
     3
 72
    17
 73
    13
 74
     0
 42
0.0000000001
 43
0.0000000001
 12
1.0
 22
0.0
 32
0.0
 13
1.0
 23
0.0
 33
0.0
 40
0.0
 40
0.0
 40
0.0
 40
0.0
 40
1.0
 40
1.0
 40
1.0
 40
2.0
 40
2.0
 40
2.0
 40
3.0
 40
3.0
 40
3.0
 40
4.0
 40
4.0
 40
4.0
 40
4.0
 10
2.736111111111111
 20
0.5986107550727158
 30
0.0
 10
2.74685001373291
 20
0.5986107550727158
 30
0.0
 10
2.755555576748318
 20
0.5899051920573078
 30
0.0
 10
2.755555576748318
 20
0.5791663953993217
 30
0.0
 10
2.755555576748318
 20
0.5684275987413355
 30
0.0
 10
2.74685001373291
 20
0.5597220357259276
 30
0.0
 10
2.736111111111111
 20
0.5597220357259276
 30
0.0
 10
2.725372208489312
 20
0.5597220357259276
 30
0.0
 10
2.716666645473904
 20
0.5684275987413355
 30
0.0
 10
2.716666645473904
 20
0.5791663953993217
 30
0.0
 10
2.716666645473904
 20
0.5899051920573078
 30
0.0
 10
2.725372208489312
 20
0.5986107550727158
 30
0.0
 10
2.736111111111111
 20
0.5986107550727158
 30
0.0
  0
HATCH
  5
F4
330
ED
100
AcDbEntity
  8
Layer 1
 62
     7
420
 16777215
100
AcDbHatch
 10
0.0
 20
0.0
 30
0.0
210
0.0
220
0.0
230
1.0
  2
SOLID
 70
     1
 71
     0
 91
        1
 92
        1
 93
        1
 72
     4
 94
        3
 73
     0
 74
     1
 95
       17
 96
       13
 40
0.0
 40
0.0
 40
0.0
 40
0.0
 40
1.0
 40
1.0
 40
1.0
 40
2.0
 40
2.0
 40
2.0
 40
3.0
 40
3.0
 40
3.0
 40
4.0
 40
4.0
 40
4.0
 40
4.0
 10
2.736111111111111
 20
0.5986107550727158
 10
2.74685001373291
 20
0.5986107550727158
 10
2.755555576748318
 20
0.5899051920573078
 10
2.755555576748318
 20
0.5791663953993217
 10
2.755555576748318
 20
0.5684275987413355
 10
2.74685001373291
 20
0.5597220357259276
 10
2.736111111111111
 20
0.5597220357259276
 10
2.725372208489312
 20
0.5597220357259276
 10
2.716666645473904
 20
0.5684275987413355
 10
2.716666645473904
 20
0.5791663953993217
 10
2.716666645473904
 20
0.5899051920573078
 10
2.725372208489312
 20
0.5986107550727158
 10
2.736111111111111
 20
0.5986107550727158
 97
        0
 97
        0
 75
     2
 76
     1
 98
        0
  0
ENDBLK
  5
F0
330
ED
100
AcDbEntity
  8
0
100
AcDbBlockEnd
  0
BLOCK
  5
F7
330
F5
100
AcDbEntity
  8
0
100
AcDbBlockBegin
  2
block 25
 70
     0
 10
0.0
 20
0.0
 30
0.0
  3
block 25
  1

  0
SPLINE
  5
F9
330
F5
100
AcDbEntity
  8
Layer 1
 62
     7
420
 16777215
370
     9
100
AcDbSpline
210
0.0
220
0.0
230
1.0
 70
    11
 71
     3
 72
    17
 73
    13
 74
     0
 42
0.0000000001
 43
0.0000000001
 12
1.0
 22
0.0
 32
0.0
 13
1.0
 23
0.0
 33
0.0
 40
0.0
 40
0.0
 40
0.0
 40
0.0
 40
1.0
 40
1.0
 40
1.0
 40
2.0
 40
2.0
 40
2.0
 40
3.0
 40
3.0
 40
3.0
 40
4.0
 40
4.0
 40
4.0
 40
4.0
 10
2.736111111111111
 20
0.5208328925238876
 30
0.0
 10
2.757588810390896
 20
0.5208328925238876
 30
0.0
 10
2.775000042385525
 20
0.5034217664930717
 30
0.0
 10
2.775000042385525
 20
0.4819441731770995
 30
0.0
 10
2.775000042385525
 20
0.4604665798611273
 30
0.0
 10
2.757588810390896
 20
0.4430554538303113
 30
0.0
 10
2.736111111111111
 20
0.4430554538303113
 30
0.0
 10
2.714633411831326
 20
0.4430554538303113
 30
0.0
 10
2.697222179836697
 20
0.4604665798611273
 30
0.0
 10
2.697222179836697
 20
0.4819441731770995
 30
0.0
 10
2.697222179836697
 20
0.5034217664930717
 30
0.0
 10
2.714633411831326
 20
0.5208328925238876
 30
0.0
 10
2.736111111111111
 20
0.5208328925238876
 30
0.0
  0
HATCH
  5
FA
330
F5
100
AcDbEntity
  8
Layer 1
 62
     7
420
 16777215
100
AcDbHatch
 10
0.0
 20
0.0
 30
0.0
210
0.0
220
0.0
230
1.0
  2
SOLID
 70
     1
 71
     0
 91
        1
 92
        1
 93
        1
 72
     4
 94
        3
 73
     0
 74
     1
 95
       17
 96
       13
 40
0.0
 40
0.0
 40
0.0
 40
0.0
 40
1.0
 40
1.0
 40
1.0
 40
2.0
 40
2.0
 40
2.0
 40
3.0
 40
3.0
 40
3.0
 40
4.0
 40
4.0
 40
4.0
 40
4.0
 10
2.736111111111111
 20
0.5208328925238876
 10
2.757588810390896
 20
0.5208328925238876
 10
2.775000042385525
 20
0.5034217664930717
 10
2.775000042385525
 20
0.4819441731770995
 10
2.775000042385525
 20
0.4604665798611273
 10
2.757588810390896
 20
0.4430554538303113
 10
2.736111111111111
 20
0.4430554538303113
 10
2.714633411831326
 20
0.4430554538303113
 10
2.697222179836697
 20
0.4604665798611273
 10
2.697222179836697
 20
0.4819441731770995
 10
2.697222179836697
 20
0.5034217664930717
 10
2.714633411831326
 20
0.5208328925238876
 10
2.736111111111111
 20
0.5208328925238876
 97
        0
 97
        0
 75
     2
 76
     1
 98
        0
  0
SPLINE
  5
FB
330
F5
100
AcDbEntity
  8
Layer 1
 62
     7
420
 16777215
370
     9
100
AcDbSpline
210
0.0
220
0.0
230
1.0
 70
    11
 71
     3
 72
    17
 73
    13
 74
     0
 42
0.0000000001
 43
0.0000000001
 12
1.0
 22
0.0
 32
0.0
 13
1.0
 23
0.0
 33
0.0
 40
0.0
 40
0.0
 40
0.0
 40
0.0
 40
1.0
 40
1.0
 40
1.0
 40
2.0
 40
2.0
 40
2.0
 40
3.0
 40
3.0
 40
3.0
 40
4.0
 40
4.0
 40
4.0
 40
4.0
 10
2.736111111111111
 20
0.5013885328504936
 30
0.0
 10
2.74685001373291
 20
0.5013885328504936
 30
0.0
 10
2.755555576748318
 20
0.4926829698350856
 30
0.0
 10
2.755555576748318
 20
0.4819441731770995
 30
0.0
 10
2.755555576748318
 20
0.4712053765191134
 30
0.0
 10
2.74685001373291
 20
0.4624998135037054
 30
0.0
 10
2.736111111111111
 20
0.4624998135037054
 30
0.0
 10
2.725372208489312
 20
0.4624998135037054
 30
0.0
 10
2.716666645473904
 20
0.4712053765191134
 30
0.0
 10
2.716666645473904
 20
0.4819441731770995
 30
0.0
 10
2.716666645473904
 20
0.4926829698350856
 30
0.0
 10
2.725372208489312
 20
0.5013885328504936
 30
0.0
 10
2.736111111111111
 20
0.5013885328504936
 30
0.0
  0
HATCH
  5
FC
330
F5
100
AcDbEntity
  8
Layer 1
 62
     7
420
 16777215
100
AcDbHatch
 10
0.0
 20
0.0
 30
0.0
210
0.0
220
0.0
230
1.0
  2
SOLID
 70
     1
 71
     0
 91
        1
 92
        1
 93
        1
 72
     4
 94
        3
 73
     0
 74
     1
 95
       17
 96
       13
 40
0.0
 40
0.0
 40
0.0
 40
0.0
 40
1.0
 40
1.0
 40
1.0
 40
2.0
 40
2.0
 40
2.0
 40
3.0
 40
3.0
 40
3.0
 40
4.0
 40
4.0
 40
4.0
 40
4.0
 10
2.736111111111111
 20
0.5013885328504936
 10
2.74685001373291
 20
0.5013885328504936
 10
2.755555576748318
 20
0.4926829698350856
 10
2.755555576748318
 20
0.4819441731770995
 10
2.755555576748318
 20
0.4712053765191134
 10
2.74685001373291
 20
0.4624998135037054
 10
2.736111111111111
 20
0.4624998135037054
 10
2.725372208489312
 20
0.4624998135037054
 10
2.716666645473904
 20
0.4712053765191134
 10
2.716666645473904
 20
0.4819441731770995
 10
2.716666645473904
 20
0.4926829698350856
 10
2.725372208489312
 20
0.5013885328504936
 10
2.736111111111111
 20
0.5013885328504936
 97
        0
 97
        0
 75
     2
 76
     1
 98
        0
  0
ENDBLK
  5
F8
330
F5
100
AcDbEntity
  8
0
100
AcDbBlockEnd
  0
BLOCK
  5
FF
330
FD
100
AcDbEntity
  8
0
100
AcDbBlockBegin
  2
block 26
 70
     0
 10
0.0
 20
0.0
 30
0.0
  3
block 26
  1

  0
SPLINE
  5
101
330
FD
100
AcDbEntity
  8
Layer 1
 62
     7
420
 16777215
370
     9
100
AcDbSpline
210
0.0
220
0.0
230
1.0
 70
    11
 71
     3
 72
    17
 73
    13
 74
     0
 42
0.0000000001
 43
0.0000000001
 12
1.0
 22
0.0
 32
0.0
 13
1.0
 23
0.0
 33
0.0
 40
0.0
 40
0.0
 40
0.0
 40
0.0
 40
1.0
 40
1.0
 40
1.0
 40
2.0
 40
2.0
 40
2.0
 40
3.0
 40
3.0
 40
3.0
 40
4.0
 40
4.0
 40
4.0
 40
4.0
 10
2.736111111111111
 20
0.7166663106282714
 30
0.0
 10
2.757588810390896
 20
0.7166663106282714
 30
0.0
 10
2.775000042385525
 20
0.6992551845974554
 30
0.0
 10
2.775000042385525
 20
0.6777775912814832
 30
0.0
 10
2.775000042385525
 20
0.656299997965511
 30
0.0
 10
2.757588810390896
 20
0.6388888719346949
 30
0.0
 10
2.736111111111111
 20
0.6388888719346949
 30
0.0
 10
2.714633411831326
 20
0.6388888719346949
 30
0.0
 10
2.697222179836697
 20
0.656299997965511
 30
0.0
 10
2.697222179836697
 20
0.6777775912814832
 30
0.0
 10
2.697222179836697
 20
0.6992551845974554
 30
0.0
 10
2.714633411831326
 20
0.7166663106282714
 30
0.0
 10
2.736111111111111
 20
0.7166663106282714
 30
0.0
  0
HATCH
  5
102
330
FD
100
AcDbEntity
  8
Layer 1
 62
     7
420
 16777215
100
AcDbHatch
 10
0.0
 20
0.0
 30
0.0
210
0.0
220
0.0
230
1.0
  2
SOLID
 70
     1
 71
     0
 91
        1
 92
        1
 93
        1
 72
     4
 94
        3
 73
     0
 74
     1
 95
       17
 96
       13
 40
0.0
 40
0.0
 40
0.0
 40
0.0
 40
1.0
 40
1.0
 40
1.0
 40
2.0
 40
2.0
 40
2.0
 40
3.0
 40
3.0
 40
3.0
 40
4.0
 40
4.0
 40
4.0
 40
4.0
 10
2.736111111111111
 20
0.7166663106282714
 10
2.757588810390896
 20
0.7166663106282714
 10
2.775000042385525
 20
0.6992551845974554
 10
2.775000042385525
 20
0.6777775912814832
 10
2.775000042385525
 20
0.656299997965511
 10
2.757588810390896
 20
0.6388888719346949
 10
2.736111111111111
 20
0.6388888719346949
 10
2.714633411831326
 20
0.6388888719346949
 10
2.697222179836697
 20
0.656299997965511
 10
2.697222179836697
 20
0.6777775912814832
 10
2.697222179836697
 20
0.6992551845974554
 10
2.714633411831326
 20
0.7166663106282714
 10
2.736111111111111
 20
0.7166663106282714
 97
        0
 97
        0
 75
     2
 76
     1
 98
        0
  0
SPLINE
  5
103
330
FD
100
AcDbEntity
  8
Layer 1
 62
     7
420
 16777215
370
     9
100
AcDbSpline
210
0.0
220
0.0
230
1.0
 70
    11
 71
     3
 72
    17
 73
    13
 74
     0
 42
0.0000000001
 43
0.0000000001
 12
1.0
 22
0.0
 32
0.0
 13
1.0
 23
0.0
 33
0.0
 40
0.0
 40
0.0
 40
0.0
 40
0.0
 40
1.0
 40
1.0
 40
1.0
 40
2.0
 40
2.0
 40
2.0
 40
3.0
 40
3.0
 40
3.0
 40
4.0
 40
4.0
 40
4.0
 40
4.0
 10
2.736111111111111
 20
0.6972219509548773
 30
0.0
 10
2.74685001373291
 20
0.6972219509548773
 30
0.0
 10
2.755555576748318
 20
0.6885163879394692
 30
0.0
 10
2.755555576748318
 20
0.6777775912814832
 30
0.0
 10
2.755555576748318
 20
0.667038794623497
 30
0.0
 10
2.74685001373291
 20
0.6583332316080891
 30
0.0
 10
2.736111111111111
 20
0.6583332316080891
 30
0.0
 10
2.725372208489312
 20
0.6583332316080891
 30
0.0
 10
2.716666645473904
 20
0.667038794623497
 30
0.0
 10
2.716666645473904
 20
0.6777775912814832
 30
0.0
 10
2.716666645473904
 20
0.6885163879394692
 30
0.0
 10
2.725372208489312
 20
0.6972219509548773
 30
0.0
 10
2.736111111111111
 20
0.6972219509548773
 30
0.0
  0
HATCH
  5
104
330
FD
100
AcDbEntity
  8
Layer 1
 62
     7
420
 16777215
100
AcDbHatch
 10
0.0
 20
0.0
 30
0.0
210
0.0
220
0.0
230
1.0
  2
SOLID
 70
     1
 71
     0
 91
        1
 92
        1
 93
        1
 72
     4
 94
        3
 73
     0
 74
     1
 95
       17
 96
       13
 40
0.0
 40
0.0
 40
0.0
 40
0.0
 40
1.0
 40
1.0
 40
1.0
 40
2.0
 40
2.0
 40
2.0
 40
3.0
 40
3.0
 40
3.0
 40
4.0
 40
4.0
 40
4.0
 40
4.0
 10
2.736111111111111
 20
0.6972219509548773
 10
2.74685001373291
 20
0.6972219509548773
 10
2.755555576748318
 20
0.6885163879394692
 10
2.755555576748318
 20
0.6777775912814832
 10
2.755555576748318
 20
0.667038794623497
 10
2.74685001373291
 20
0.6583332316080891
 10
2.736111111111111
 20
0.6583332316080891
 10
2.725372208489312
 20
0.6583332316080891
 10
2.716666645473904
 20
0.667038794623497
 10
2.716666645473904
 20
0.6777775912814832
 10
2.716666645473904
 20
0.6885163879394692
 10
2.725372208489312
 20
0.6972219509548773
 10
2.736111111111111
 20
0.6972219509548773
 97
        0
 97
        0
 75
     2
 76
     1
 98
        0
  0
ENDBLK
  5
100
330
FD
100
AcDbEntity
  8
0
100
AcDbBlockEnd
  0
BLOCK
  5
107
330
105
100
AcDbEntity
  8
0
100
AcDbBlockBegin
  2
block 27
 70
     0
 10
0.0
 20
0.0
 30
0.0
  3
block 27
  1

  0
SPLINE
  5
109
330
105
100
AcDbEntity
  8
Layer 1
 62
     7
420
 16777215
370
     9
100
AcDbSpline
210
0.0
220
0.0
230
1.0
 70
    11
 71
     3
 72
    17
 73
    13
 74
     0
 42
0.0000000001
 43
0.0000000001
 12
1.0
 22
0.0
 32
0.0
 13
1.0
 23
0.0
 33
0.0
 40
0.0
 40
0.0
 40
0.0
 40
0.0
 40
1.0
 40
1.0
 40
1.0
 40
2.0
 40
2.0
 40
2.0
 40
3.0
 40
3.0
 40
3.0
 40
4.0
 40
4.0
 40
4.0
 40
4.0
 10
3.219444433848063
 20
0.8347218661838269
 30
0.0
 10
3.240922186109755
 20
0.8347218661838269
 30
0.0
 10
3.258333312140571
 20
0.8173107401530109
 30
0.0
 10
3.258333312140571
 20
0.7958331468370387
 30
0.0
 10
3.258333312140571
 20
0.7743555535210664
 30
0.0
 10
3.240922186109755
 20
0.7569444274902505
 30
0.0
 10
3.219444433848063
 20
0.7569444274902505
 30
0.0
 10
3.197966681586371
 20
0.7569444274902505
 30
0.0
 10
3.180555555555555
 20
0.7743555535210664
 30
0.0
 10
3.180555555555555
 20
0.7958331468370387
 30
0.0
 10
3.180555555555555
 20
0.8173107401530109
 30
0.0
 10
3.197966681586371
 20
0.8347218661838269
 30
0.0
 10
3.219444433848063
 20
0.8347218661838269
 30
0.0
  0
HATCH
  5
10A
330
105
100
AcDbEntity
  8
Layer 1
 62
     7
420
 16777215
100
AcDbHatch
 10
0.0
 20
0.0
 30
0.0
210
0.0
220
0.0
230
1.0
  2
SOLID
 70
     1
 71
     0
 91
        1
 92
        1
 93
        1
 72
     4
 94
        3
 73
     0
 74
     1
 95
       17
 96
       13
 40
0.0
 40
0.0
 40
0.0
 40
0.0
 40
1.0
 40
1.0
 40
1.0
 40
2.0
 40
2.0
 40
2.0
 40
3.0
 40
3.0
 40
3.0
 40
4.0
 40
4.0
 40
4.0
 40
4.0
 10
3.219444433848063
 20
0.8347218661838269
 10
3.240922186109755
 20
0.8347218661838269
 10
3.258333312140571
 20
0.8173107401530109
 10
3.258333312140571
 20
0.7958331468370387
 10
3.258333312140571
 20
0.7743555535210664
 10
3.240922186109755
 20
0.7569444274902505
 10
3.219444433848063
 20
0.7569444274902505
 10
3.197966681586371
 20
0.7569444274902505
 10
3.180555555555555
 20
0.7743555535210664
 10
3.180555555555555
 20
0.7958331468370387
 10
3.180555555555555
 20
0.8173107401530109
 10
3.197966681586371
 20
0.8347218661838269
 10
3.219444433848063
 20
0.8347218661838269
 97
        0
 97
        0
 75
     2
 76
     1
 98
        0
  0
SPLINE
  5
10B
330
105
100
AcDbEntity
  8
Layer 1
 62
     7
420
 16777215
370
     9
100
AcDbSpline
210
0.0
220
0.0
230
1.0
 70
    11
 71
     3
 72
    17
 73
    13
 74
     0
 42
0.0000000001
 43
0.0000000001
 12
1.0
 22
0.0
 32
0.0
 13
1.0
 23
0.0
 33
0.0
 40
0.0
 40
0.0
 40
0.0
 40
0.0
 40
1.0
 40
1.0
 40
1.0
 40
2.0
 40
2.0
 40
2.0
 40
3.0
 40
3.0
 40
3.0
 40
4.0
 40
4.0
 40
4.0
 40
4.0
 10
3.219444433848063
 20
0.8152775065104327
 30
0.0
 10
3.230183283487956
 20
0.8152775065104327
 30
0.0
 10
3.23888889948527
 20
0.8065719434950248
 30
0.0
 10
3.23888889948527
 20
0.7958331468370387
 30
0.0
 10
3.23888889948527
 20
0.7850943501790526
 30
0.0
 10
3.230183283487956
 20
0.7763887871636446
 30
0.0
 10
3.219444433848063
 20
0.7763887871636446
 30
0.0
 10
3.20870558420817
 20
0.7763887871636446
 30
0.0
 10
3.199999968210856
 20
0.7850943501790526
 30
0.0
 10
3.199999968210856
 20
0.7958331468370387
 30
0.0
 10
3.199999968210856
 20
0.8065719434950248
 30
0.0
 10
3.20870558420817
 20
0.8152775065104327
 30
0.0
 10
3.219444433848063
 20
0.8152775065104327
 30
0.0
  0
HATCH
  5
10C
330
105
100
AcDbEntity
  8
Layer 1
 62
     7
420
 16777215
100
AcDbHatch
 10
0.0
 20
0.0
 30
0.0
210
0.0
220
0.0
230
1.0
  2
SOLID
 70
     1
 71
     0
 91
        1
 92
        1
 93
        1
 72
     4
 94
        3
 73
     0
 74
     1
 95
       17
 96
       13
 40
0.0
 40
0.0
 40
0.0
 40
0.0
 40
1.0
 40
1.0
 40
1.0
 40
2.0
 40
2.0
 40
2.0
 40
3.0
 40
3.0
 40
3.0
 40
4.0
 40
4.0
 40
4.0
 40
4.0
 10
3.219444433848063
 20
0.8152775065104327
 10
3.230183283487956
 20
0.8152775065104327
 10
3.23888889948527
 20
0.8065719434950248
 10
3.23888889948527
 20
0.7958331468370387
 10
3.23888889948527
 20
0.7850943501790526
 10
3.230183283487956
 20
0.7763887871636446
 10
3.219444433848063
 20
0.7763887871636446
 10
3.20870558420817
 20
0.7763887871636446
 10
3.199999968210856
 20
0.7850943501790526
 10
3.199999968210856
 20
0.7958331468370387
 10
3.199999968210856
 20
0.8065719434950248
 10
3.20870558420817
 20
0.8152775065104327
 10
3.219444433848063
 20
0.8152775065104327
 97
        0
 97
        0
 75
     2
 76
     1
 98
        0
  0
ENDBLK
  5
108
330
105
100
AcDbEntity
  8
0
100
AcDbBlockEnd
  0
BLOCK
  5
10F
330
10D
100
AcDbEntity
  8
0
100
AcDbBlockBegin
  2
block 28
 70
     0
 10
0.0
 20
0.0
 30
0.0
  3
block 28
  1

  0
SPLINE
  5
111
330
10D
100
AcDbEntity
  8
Layer 1
 62
     7
420
 16777215
370
     9
100
AcDbSpline
210
0.0
220
0.0
230
1.0
 70
    11
 71
     3
 72
    17
 73
    13
 74
     0
 42
0.0000000001
 43
0.0000000001
 12
1.0
 22
0.0
 32
0.0
 13
1.0
 23
0.0
 33
0.0
 40
0.0
 40
0.0
 40
0.0
 40
0.0
 40
1.0
 40
1.0
 40
1.0
 40
2.0
 40
2.0
 40
2.0
 40
3.0
 40
3.0
 40
3.0
 40
4.0
 40
4.0
 40
4.0
 40
4.0
 10
2.981944402058919
 20
0.8347218661838269
 30
0.0
 10
3.003422101338704
 20
0.8347218661838269
 30
0.0
 10
3.020833333333333
 20
0.8173107401530109
 30
0.0
 10
3.020833333333333
 20
0.7958331468370387
 30
0.0
 10
3.020833333333333
 20
0.7743555535210664
 30
0.0
 10
3.003422101338704
 20
0.7569444274902505
 30
0.0
 10
2.981944402058919
 20
0.7569444274902505
 30
0.0
 10
2.960466702779134
 20
0.7569444274902505
 30
0.0
 10
2.943055470784505
 20
0.7743555535210664
 30
0.0
 10
2.943055470784505
 20
0.7958331468370387
 30
0.0
 10
2.943055470784505
 20
0.8173107401530109
 30
0.0
 10
2.960466702779134
 20
0.8347218661838269
 30
0.0
 10
2.981944402058919
 20
0.8347218661838269
 30
0.0
  0
HATCH
  5
112
330
10D
100
AcDbEntity
  8
Layer 1
 62
     7
420
 16777215
100
AcDbHatch
 10
0.0
 20
0.0
 30
0.0
210
0.0
220
0.0
230
1.0
  2
SOLID
 70
     1
 71
     0
 91
        1
 92
        1
 93
        1
 72
     4
 94
        3
 73
     0
 74
     1
 95
       17
 96
       13
 40
0.0
 40
0.0
 40
0.0
 40
0.0
 40
1.0
 40
1.0
 40
1.0
 40
2.0
 40
2.0
 40
2.0
 40
3.0
 40
3.0
 40
3.0
 40
4.0
 40
4.0
 40
4.0
 40
4.0
 10
2.981944402058919
 20
0.8347218661838269
 10
3.003422101338704
 20
0.8347218661838269
 10
3.020833333333333
 20
0.8173107401530109
 10
3.020833333333333
 20
0.7958331468370387
 10
3.020833333333333
 20
0.7743555535210664
 10
3.003422101338704
 20
0.7569444274902505
 10
2.981944402058919
 20
0.7569444274902505
 10
2.960466702779134
 20
0.7569444274902505
 10
2.943055470784505
 20
0.7743555535210664
 10
2.943055470784505
 20
0.7958331468370387
 10
2.943055470784505
 20
0.8173107401530109
 10
2.960466702779134
 20
0.8347218661838269
 10
2.981944402058919
 20
0.8347218661838269
 97
        0
 97
        0
 75
     2
 76
     1
 98
        0
  0
SPLINE
  5
113
330
10D
100
AcDbEntity
  8
Layer 1
 62
     7
420
 16777215
370
     9
100
AcDbSpline
210
0.0
220
0.0
230
1.0
 70
    11
 71
     3
 72
    17
 73
    13
 74
     0
 42
0.0000000001
 43
0.0000000001
 12
1.0
 22
0.0
 32
0.0
 13
1.0
 23
0.0
 33
0.0
 40
0.0
 40
0.0
 40
0.0
 40
0.0
 40
1.0
 40
1.0
 40
1.0
 40
2.0
 40
2.0
 40
2.0
 40
3.0
 40
3.0
 40
3.0
 40
4.0
 40
4.0
 40
4.0
 40
4.0
 10
2.981944402058919
 20
0.8152775065104327
 30
0.0
 10
2.992683304680718
 20
0.8152775065104327
 30
0.0
 10
3.001388867696126
 20
0.8065719434950248
 30
0.0
 10
3.001388867696126
 20
0.7958331468370387
 30
0.0
 10
3.001388867696126
 20
0.7850943501790526
 30
0.0
 10
2.992683304680718
 20
0.7763887871636446
 30
0.0
 10
2.981944402058919
 20
0.7763887871636446
 30
0.0
 10
2.97120549943712
 20
0.7763887871636446
 30
0.0
 10
2.962499936421712
 20
0.7850943501790526
 30
0.0
 10
2.962499936421712
 20
0.7958331468370387
 30
0.0
 10
2.962499936421712
 20
0.8065719434950248
 30
0.0
 10
2.97120549943712
 20
0.8152775065104327
 30
0.0
 10
2.981944402058919
 20
0.8152775065104327
 30
0.0
  0
HATCH
  5
114
330
10D
100
AcDbEntity
  8
Layer 1
 62
     7
420
 16777215
100
AcDbHatch
 10
0.0
 20
0.0
 30
0.0
210
0.0
220
0.0
230
1.0
  2
SOLID
 70
     1
 71
     0
 91
        1
 92
        1
 93
        1
 72
     4
 94
        3
 73
     0
 74
     1
 95
       17
 96
       13
 40
0.0
 40
0.0
 40
0.0
 40
0.0
 40
1.0
 40
1.0
 40
1.0
 40
2.0
 40
2.0
 40
2.0
 40
3.0
 40
3.0
 40
3.0
 40
4.0
 40
4.0
 40
4.0
 40
4.0
 10
2.981944402058919
 20
0.8152775065104327
 10
2.992683304680718
 20
0.8152775065104327
 10
3.001388867696126
 20
0.8065719434950248
 10
3.001388867696126
 20
0.7958331468370387
 10
3.001388867696126
 20
0.7850943501790526
 10
2.992683304680718
 20
0.7763887871636446
 10
2.981944402058919
 20
0.7763887871636446
 10
2.97120549943712
 20
0.7763887871636446
 10
2.962499936421712
 20
0.7850943501790526
 10
2.962499936421712
 20
0.7958331468370387
 10
2.962499936421712
 20
0.8065719434950248
 10
2.97120549943712
 20
0.8152775065104327
 10
2.981944402058919
 20
0.8152775065104327
 97
        0
 97
        0
 75
     2
 76
     1
 98
        0
  0
ENDBLK
  5
110
330
10D
100
AcDbEntity
  8
0
100
AcDbBlockEnd
  0
BLOCK
  5
117
330
115
100
AcDbEntity
  8
0
100
AcDbBlockBegin
  2
block 29
 70
     0
 10
0.0
 20
0.0
 30
0.0
  3
block 29
  1

  0
SPLINE
  5
119
330
115
100
AcDbEntity
  8
Layer 1
 62
     7
420
 16777215
370
     9
100
AcDbSpline
210
0.0
220
0.0
230
1.0
 70
    11
 71
     3
 72
    17
 73
    13
 74
     0
 42
0.0000000001
 43
0.0000000001
 12
1.0
 22
0.0
 32
0.0
 13
1.0
 23
0.0
 33
0.0
 40
0.0
 40
0.0
 40
0.0
 40
0.0
 40
1.0
 40
1.0
 40
1.0
 40
2.0
 40
2.0
 40
2.0
 40
3.0
 40
3.0
 40
3.0
 40
4.0
 40
4.0
 40
4.0
 40
4.0
 10
2.981944402058919
 20
1.012499474419504
 30
0.0
 10
3.003422101338704
 20
1.012499474419504
 30
0.0
 10
3.020833333333333
 20
0.995088348388688
 30
0.0
 10
3.020833333333333
 20
0.9736107550727158
 30
0.0
 10
3.020833333333333
 20
0.9521331617567436
 30
0.0
 10
3.003422101338704
 20
0.9347220357259276
 30
0.0
 10
2.981944402058919
 20
0.9347220357259276
 30
0.0
 10
2.960466702779134
 20
0.9347220357259276
 30
0.0
 10
2.943055470784505
 20
0.9521331617567436
 30
0.0
 10
2.943055470784505
 20
0.9736107550727158
 30
0.0
 10
2.943055470784505
 20
0.995088348388688
 30
0.0
 10
2.960466702779134
 20
1.012499474419504
 30
0.0
 10
2.981944402058919
 20
1.012499474419504
 30
0.0
  0
HATCH
  5
11A
330
115
100
AcDbEntity
  8
Layer 1
 62
     7
420
 16777215
100
AcDbHatch
 10
0.0
 20
0.0
 30
0.0
210
0.0
220
0.0
230
1.0
  2
SOLID
 70
     1
 71
     0
 91
        1
 92
        1
 93
        1
 72
     4
 94
        3
 73
     0
 74
     1
 95
       17
 96
       13
 40
0.0
 40
0.0
 40
0.0
 40
0.0
 40
1.0
 40
1.0
 40
1.0
 40
2.0
 40
2.0
 40
2.0
 40
3.0
 40
3.0
 40
3.0
 40
4.0
 40
4.0
 40
4.0
 40
4.0
 10
2.981944402058919
 20
1.012499474419504
 10
3.003422101338704
 20
1.012499474419504
 10
3.020833333333333
 20
0.995088348388688
 10
3.020833333333333
 20
0.9736107550727158
 10
3.020833333333333
 20
0.9521331617567436
 10
3.003422101338704
 20
0.9347220357259276
 10
2.981944402058919
 20
0.9347220357259276
 10
2.960466702779134
 20
0.9347220357259276
 10
2.943055470784505
 20
0.9521331617567436
 10
2.943055470784505
 20
0.9736107550727158
 10
2.943055470784505
 20
0.995088348388688
 10
2.960466702779134
 20
1.012499474419504
 10
2.981944402058919
 20
1.012499474419504
 97
        0
 97
        0
 75
     2
 76
     1
 98
        0
  0
SPLINE
  5
11B
330
115
100
AcDbEntity
  8
Layer 1
 62
     7
420
 16777215
370
     9
100
AcDbSpline
210
0.0
220
0.0
230
1.0
 70
    11
 71
     3
 72
    17
 73
    13
 74
     0
 42
0.0000000001
 43
0.0000000001
 12
1.0
 22
0.0
 32
0.0
 13
1.0
 23
0.0
 33
0.0
 40
0.0
 40
0.0
 40
0.0
 40
0.0
 40
1.0
 40
1.0
 40
1.0
 40
2.0
 40
2.0
 40
2.0
 40
3.0
 40
3.0
 40
3.0
 40
4.0
 40
4.0
 40
4.0
 40
4.0
 10
2.981944402058919
 20
0.9930551147461099
 30
0.0
 10
2.992683304680718
 20
0.9930551147461099
 30
0.0
 10
3.001388867696126
 20
0.9843495517307019
 30
0.0
 10
3.001388867696126
 20
0.9736107550727158
 30
0.0
 10
3.001388867696126
 20
0.9628719584147296
 30
0.0
 10
2.992683304680718
 20
0.9541663953993217
 30
0.0
 10
2.981944402058919
 20
0.9541663953993217
 30
0.0
 10
2.97120549943712
 20
0.9541663953993217
 30
0.0
 10
2.962499936421712
 20
0.9628719584147296
 30
0.0
 10
2.962499936421712
 20
0.9736107550727158
 30
0.0
 10
2.962499936421712
 20
0.9843495517307019
 30
0.0
 10
2.97120549943712
 20
0.9930551147461099
 30
0.0
 10
2.981944402058919
 20
0.9930551147461099
 30
0.0
  0
HATCH
  5
11C
330
115
100
AcDbEntity
  8
Layer 1
 62
     7
420
 16777215
100
AcDbHatch
 10
0.0
 20
0.0
 30
0.0
210
0.0
220
0.0
230
1.0
  2
SOLID
 70
     1
 71
     0
 91
        1
 92
        1
 93
        1
 72
     4
 94
        3
 73
     0
 74
     1
 95
       17
 96
       13
 40
0.0
 40
0.0
 40
0.0
 40
0.0
 40
1.0
 40
1.0
 40
1.0
 40
2.0
 40
2.0
 40
2.0
 40
3.0
 40
3.0
 40
3.0
 40
4.0
 40
4.0
 40
4.0
 40
4.0
 10
2.981944402058919
 20
0.9930551147461099
 10
2.992683304680718
 20
0.9930551147461099
 10
3.001388867696126
 20
0.9843495517307019
 10
3.001388867696126
 20
0.9736107550727158
 10
3.001388867696126
 20
0.9628719584147296
 10
2.992683304680718
 20
0.9541663953993217
 10
2.981944402058919
 20
0.9541663953993217
 10
2.97120549943712
 20
0.9541663953993217
 10
2.962499936421712
 20
0.9628719584147296
 10
2.962499936421712
 20
0.9736107550727158
 10
2.962499936421712
 20
0.9843495517307019
 10
2.97120549943712
 20
0.9930551147461099
 10
2.981944402058919
 20
0.9930551147461099
 97
        0
 97
        0
 75
     2
 76
     1
 98
        0
  0
ENDBLK
  5
118
330
115
100
AcDbEntity
  8
0
100
AcDbBlockEnd
  0
BLOCK
  5
11F
330
11D
100
AcDbEntity
  8
0
100
AcDbBlockBegin
  2
block 30
 70
     0
 10
0.0
 20
0.0
 30
0.0
  3
block 30
  1

  0
SPLINE
  5
121
330
11D
100
AcDbEntity
  8
Layer 1
 62
     7
420
 16777215
370
     9
100
AcDbSpline
210
0.0
220
0.0
230
1.0
 70
    11
 71
     3
 72
    17
 73
    13
 74
     0
 42
0.0000000001
 43
0.0000000001
 12
1.0
 22
0.0
 32
0.0
 13
1.0
 23
0.0
 33
0.0
 40
0.0
 40
0.0
 40
0.0
 40
0.0
 40
1.0
 40
1.0
 40
1.0
 40
2.0
 40
2.0
 40
2.0
 40
3.0
 40
3.0
 40
3.0
 40
4.0
 40
4.0
 40
4.0
 40
4.0
 10
3.219444433848063
 20
1.012499474419504
 30
0.0
 10
3.240922186109755
 20
1.012499474419504
 30
0.0
 10
3.258333312140571
 20
0.995088348388688
 30
0.0
 10
3.258333312140571
 20
0.9736107550727158
 30
0.0
 10
3.258333312140571
 20
0.9521331617567436
 30
0.0
 10
3.240922186109755
 20
0.9347220357259276
 30
0.0
 10
3.219444433848063
 20
0.9347220357259276
 30
0.0
 10
3.197966681586371
 20
0.9347220357259276
 30
0.0
 10
3.180555555555555
 20
0.9521331617567436
 30
0.0
 10
3.180555555555555
 20
0.9736107550727158
 30
0.0
 10
3.180555555555555
 20
0.995088348388688
 30
0.0
 10
3.197966681586371
 20
1.012499474419504
 30
0.0
 10
3.219444433848063
 20
1.012499474419504
 30
0.0
  0
HATCH
  5
122
330
11D
100
AcDbEntity
  8
Layer 1
 62
     7
420
 16777215
100
AcDbHatch
 10
0.0
 20
0.0
 30
0.0
210
0.0
220
0.0
230
1.0
  2
SOLID
 70
     1
 71
     0
 91
        1
 92
        1
 93
        1
 72
     4
 94
        3
 73
     0
 74
     1
 95
       17
 96
       13
 40
0.0
 40
0.0
 40
0.0
 40
0.0
 40
1.0
 40
1.0
 40
1.0
 40
2.0
 40
2.0
 40
2.0
 40
3.0
 40
3.0
 40
3.0
 40
4.0
 40
4.0
 40
4.0
 40
4.0
 10
3.219444433848063
 20
1.012499474419504
 10
3.240922186109755
 20
1.012499474419504
 10
3.258333312140571
 20
0.995088348388688
 10
3.258333312140571
 20
0.9736107550727158
 10
3.258333312140571
 20
0.9521331617567436
 10
3.240922186109755
 20
0.9347220357259276
 10
3.219444433848063
 20
0.9347220357259276
 10
3.197966681586371
 20
0.9347220357259276
 10
3.180555555555555
 20
0.9521331617567436
 10
3.180555555555555
 20
0.9736107550727158
 10
3.180555555555555
 20
0.995088348388688
 10
3.197966681586371
 20
1.012499474419504
 10
3.219444433848063
 20
1.012499474419504
 97
        0
 97
        0
 75
     2
 76
     1
 98
        0
  0
SPLINE
  5
123
330
11D
100
AcDbEntity
  8
Layer 1
 62
     7
420
 16777215
370
     9
100
AcDbSpline
210
0.0
220
0.0
230
1.0
 70
    11
 71
     3
 72
    17
 73
    13
 74
     0
 42
0.0000000001
 43
0.0000000001
 12
1.0
 22
0.0
 32
0.0
 13
1.0
 23
0.0
 33
0.0
 40
0.0
 40
0.0
 40
0.0
 40
0.0
 40
1.0
 40
1.0
 40
1.0
 40
2.0
 40
2.0
 40
2.0
 40
3.0
 40
3.0
 40
3.0
 40
4.0
 40
4.0
 40
4.0
 40
4.0
 10
3.219444433848063
 20
0.9930551147461099
 30
0.0
 10
3.230183283487956
 20
0.9930551147461099
 30
0.0
 10
3.23888889948527
 20
0.9843495517307019
 30
0.0
 10
3.23888889948527
 20
0.9736107550727158
 30
0.0
 10
3.23888889948527
 20
0.9628719584147296
 30
0.0
 10
3.230183283487956
 20
0.9541663953993217
 30
0.0
 10
3.219444433848063
 20
0.9541663953993217
 30
0.0
 10
3.20870558420817
 20
0.9541663953993217
 30
0.0
 10
3.199999968210856
 20
0.9628719584147296
 30
0.0
 10
3.199999968210856
 20
0.9736107550727158
 30
0.0
 10
3.199999968210856
 20
0.9843495517307019
 30
0.0
 10
3.20870558420817
 20
0.9930551147461099
 30
0.0
 10
3.219444433848063
 20
0.9930551147461099
 30
0.0
  0
HATCH
  5
124
330
11D
100
AcDbEntity
  8
Layer 1
 62
     7
420
 16777215
100
AcDbHatch
 10
0.0
 20
0.0
 30
0.0
210
0.0
220
0.0
230
1.0
  2
SOLID
 70
     1
 71
     0
 91
        1
 92
        1
 93
        1
 72
     4
 94
        3
 73
     0
 74
     1
 95
       17
 96
       13
 40
0.0
 40
0.0
 40
0.0
 40
0.0
 40
1.0
 40
1.0
 40
1.0
 40
2.0
 40
2.0
 40
2.0
 40
3.0
 40
3.0
 40
3.0
 40
4.0
 40
4.0
 40
4.0
 40
4.0
 10
3.219444433848063
 20
0.9930551147461099
 10
3.230183283487956
 20
0.9930551147461099
 10
3.23888889948527
 20
0.9843495517307019
 10
3.23888889948527
 20
0.9736107550727158
 10
3.23888889948527
 20
0.9628719584147296
 10
3.230183283487956
 20
0.9541663953993217
 10
3.219444433848063
 20
0.9541663953993217
 10
3.20870558420817
 20
0.9541663953993217
 10
3.199999968210856
 20
0.9628719584147296
 10
3.199999968210856
 20
0.9736107550727158
 10
3.199999968210856
 20
0.9843495517307019
 10
3.20870558420817
 20
0.9930551147461099
 10
3.219444433848063
 20
0.9930551147461099
 97
        0
 97
        0
 75
     2
 76
     1
 98
        0
  0
ENDBLK
  5
120
330
11D
100
AcDbEntity
  8
0
100
AcDbBlockEnd
  0
BLOCK
  5
127
330
125
100
AcDbEntity
  8
0
100
AcDbBlockBegin
  2
block 31
 70
     0
 10
0.0
 20
0.0
 30
0.0
  3
block 31
  1

  0
POLYLINE
  5
129
330
125
100
AcDbEntity
  8
Layer 1
 62
     7
420
 16777215
370
     9
100
AcDb2dPolyline
 66
     1
 10
0.0
 20
0.0
 30
0.0
  0
VERTEX
  5
12A
330
129
100
AcDbEntity
  8
Layer 1
 62
     7
420
 16777215
370
     9
100
AcDbVertex
100
AcDb2dVertex
 10
1.834722306993273
 20
1.159722205268028
 30
0.0
  0
VERTEX
  5
152
330
129
100
AcDbEntity
  8
0
100
AcDbVertex
100
AcDb2dVertex
 10
1.834722306993273
 20
1.159722205268028
 30
0.0
  0
SEQEND
  5
12B
330
129
100
AcDbEntity
  8
Layer 1
 62
     7
420
 16777215
370
     9
  0
ENDBLK
  5
128
330
125
100
AcDbEntity
  8
0
100
AcDbBlockEnd
  0
BLOCK
  5
12E
330
12C
100
AcDbEntity
  8
0
100
AcDbBlockBegin
  2
block 32
 70
     0
 10
0.0
 20
0.0
 30
0.0
  3
block 32
  1

  0
POLYLINE
  5
130
330
12C
100
AcDbEntity
  8
Layer 1
 62
     7
420
 16777215
370
     9
100
AcDb2dPolyline
 66
     1
 10
0.0
 20
0.0
 30
0.0
  0
VERTEX
  5
131
330
130
100
AcDbEntity
  8
Layer 1
 62
     7
420
 16777215
370
     9
100
AcDbVertex
100
AcDb2dVertex
 10
1.234722137451172
 20
1.159722205268028
 30
0.0
  0
VERTEX
  5
153
330
130
100
AcDbEntity
  8
0
100
AcDbVertex
100
AcDb2dVertex
 10
1.234722137451172
 20
1.159722205268028
 30
0.0
  0
SEQEND
  5
132
330
130
100
AcDbEntity
  8
Layer 1
 62
     7
420
 16777215
370
     9
  0
ENDBLK
  5
12F
330
12C
100
AcDbEntity
  8
0
100
AcDbBlockEnd
  0
BLOCK
  5
135
330
133
100
AcDbEntity
  8
0
100
AcDbBlockBegin
  2
block 33
 70
     0
 10
0.0
 20
0.0
 30
0.0
  3
block 33
  1

  0
SPLINE
  5
137
330
133
100
AcDbEntity
  8
Layer 1
 62
     7
420
 16777215
370
     9
100
AcDbSpline
210
0.0
220
0.0
230
1.0
 70
    11
 71
     3
 72
    17
 73
    13
 74
     0
 42
0.0000000001
 43
0.0000000001
 12
1.0
 22
0.0
 32
0.0
 13
1.0
 23
0.0
 33
0.0
 40
0.0
 40
0.0
 40
0.0
 40
0.0
 40
1.0
 40
1.0
 40
1.0
 40
2.0
 40
2.0
 40
2.0
 40
3.0
 40
3.0
 40
3.0
 40
4.0
 40
4.0
 40
4.0
 40
4.0
 10
0.1374999152289496
 20
0.1611111789279676
 30
0.0
 10
0.1612790425618489
 20
0.1611111789279676
 30
0.0
 10
0.1805555555555556
 20
0.1418346659342609
 30
0.0
 10
0.1805555555555556
 20
0.1180555386013616
 30
0.0
 10
0.1805555555555556
 20
0.0942764112684623
 30
0.0
 10
0.1612790425618489
 20
0.0749998982747557
 30
0.0
 10
0.1374999152289496
 20
0.0749998982747557
 30
0.0
 10
0.1137207878960503
 20
0.0749998982747557
 30
0.0
 10
0.0944442749023438
 20
0.0942764112684623
 30
0.0
 10
0.0944442749023438
 20
0.1180555386013616
 30
0.0
 10
0.0944442749023438
 20
0.1418346659342609
 30
0.0
 10
0.1137207878960503
 20
0.1611111789279676
 30
0.0
 10
0.1374999152289496
 20
0.1611111789279676
 30
0.0
  0
HATCH
  5
138
330
133
100
AcDbEntity
  8
Layer 1
 62
     7
420
 16777215
100
AcDbHatch
 10
0.0
 20
0.0
 30
0.0
210
0.0
220
0.0
230
1.0
  2
SOLID
 70
     1
 71
     0
 91
        1
 92
        1
 93
        1
 72
     4
 94
        3
 73
     0
 74
     1
 95
       17
 96
       13
 40
0.0
 40
0.0
 40
0.0
 40
0.0
 40
1.0
 40
1.0
 40
1.0
 40
2.0
 40
2.0
 40
2.0
 40
3.0
 40
3.0
 40
3.0
 40
4.0
 40
4.0
 40
4.0
 40
4.0
 10
0.1374999152289496
 20
0.1611111789279676
 10
0.1612790425618489
 20
0.1611111789279676
 10
0.1805555555555556
 20
0.1418346659342609
 10
0.1805555555555556
 20
0.1180555386013616
 10
0.1805555555555556
 20
0.0942764112684623
 10
0.1612790425618489
 20
0.0749998982747557
 10
0.1374999152289496
 20
0.0749998982747557
 10
0.1137207878960503
 20
0.0749998982747557
 10
0.0944442749023438
 20
0.0942764112684623
 10
0.0944442749023438
 20
0.1180555386013616
 10
0.0944442749023438
 20
0.1418346659342609
 10
0.1137207878960503
 20
0.1611111789279676
 10
0.1374999152289496
 20
0.1611111789279676
 97
        0
 97
        0
 75
     2
 76
     1
 98
        0
  0
ENDBLK
  5
136
330
133
100
AcDbEntity
  8
0
100
AcDbBlockEnd
  0
BLOCK
  5
13B
330
139
100
AcDbEntity
  8
0
100
AcDbBlockBegin
  2
block 34
 70
     0
 10
0.0
 20
0.0
 30
0.0
  3
block 34
  1

  0
SPLINE
  5
13D
330
139
100
AcDbEntity
  8
Layer 1
 62
     7
420
 16777215
370
     9
100
AcDbSpline
210
0.0
220
0.0
230
1.0
 70
    11
 71
     3
 72
    17
 73
    13
 74
     0
 42
0.0000000001
 43
0.0000000001
 12
1.0
 22
0.0
 32
0.0
 13
1.0
 23
0.0
 33
0.0
 40
0.0
 40
0.0
 40
0.0
 40
0.0
 40
1.0
 40
1.0
 40
1.0
 40
2.0
 40
2.0
 40
2.0
 40
3.0
 40
3.0
 40
3.0
 40
4.0
 40
4.0
 40
4.0
 40
4.0
 10
3.601388878292507
 20
0.1611111789279676
 30
0.0
 10
3.625167793697781
 20
0.1611111789279676
 30
0.0
 10
3.644444439146254
 20
0.1418346659342609
 30
0.0
 10
3.644444439146254
 20
0.1180555386013616
 30
0.0
 10
3.644444439146254
 20
0.0942764112684623
 30
0.0
 10
3.625167793697781
 20
0.0749998982747557
 30
0.0
 10
3.601388878292507
 20
0.0749998982747557
 30
0.0
 10
3.577609962887234
 20
0.0749998982747557
 30
0.0
 10
3.558333317438761
 20
0.0942764112684623
 30
0.0
 10
3.558333317438761
 20
0.1180555386013616
 30
0.0
 10
3.558333317438761
 20
0.1418346659342609
 30
0.0
 10
3.577609962887234
 20
0.1611111789279676
 30
0.0
 10
3.601388878292507
 20
0.1611111789279676
 30
0.0
  0
HATCH
  5
13E
330
139
100
AcDbEntity
  8
Layer 1
 62
     7
420
 16777215
100
AcDbHatch
 10
0.0
 20
0.0
 30
0.0
210
0.0
220
0.0
230
1.0
  2
SOLID
 70
     1
 71
     0
 91
        1
 92
        1
 93
        1
 72
     4
 94
        3
 73
     0
 74
     1
 95
       17
 96
       13
 40
0.0
 40
0.0
 40
0.0
 40
0.0
 40
1.0
 40
1.0
 40
1.0
 40
2.0
 40
2.0
 40
2.0
 40
3.0
 40
3.0
 40
3.0
 40
4.0
 40
4.0
 40
4.0
 40
4.0
 10
3.601388878292507
 20
0.1611111789279676
 10
3.625167793697781
 20
0.1611111789279676
 10
3.644444439146254
 20
0.1418346659342609
 10
3.644444439146254
 20
0.1180555386013616
 10
3.644444439146254
 20
0.0942764112684623
 10
3.625167793697781
 20
0.0749998982747557
 10
3.601388878292507
 20
0.0749998982747557
 10
3.577609962887234
 20
0.0749998982747557
 10
3.558333317438761
 20
0.0942764112684623
 10
3.558333317438761
 20
0.1180555386013616
 10
3.558333317438761
 20
0.1418346659342609
 10
3.577609962887234
 20
0.1611111789279676
 10
3.601388878292507
 20
0.1611111789279676
 97
        0
 97
        0
 75
     2
 76
     1
 98
        0
  0
ENDBLK
  5
13C
330
139
100
AcDbEntity
  8
0
100
AcDbBlockEnd
  0
BLOCK
  5
141
330
13F
100
AcDbEntity
  8
0
100
AcDbBlockBegin
  2
block 35
 70
     0
 10
0.0
 20
0.0
 30
0.0
  3
block 35
  1

  0
SPLINE
  5
143
330
13F
100
AcDbEntity
  8
Layer 1
 62
     7
420
 16777215
370
     9
100
AcDbSpline
210
0.0
220
0.0
230
1.0
 70
    11
 71
     3
 72
    17
 73
    13
 74
     0
 42
0.0000000001
 43
0.0000000001
 12
1.0
 22
0.0
 32
0.0
 13
1.0
 23
0.0
 33
0.0
 40
0.0
 40
0.0
 40
0.0
 40
0.0
 40
1.0
 40
1.0
 40
1.0
 40
2.0
 40
2.0
 40
2.0
 40
3.0
 40
3.0
 40
3.0
 40
4.0
 40
4.0
 40
4.0
 40
4.0
 10
3.601388878292507
 20
2.680555538601361
 30
0.0
 10
3.625167793697781
 20
2.680555538601361
 30
0.0
 10
3.644444439146254
 20
2.661278813680029
 30
0.0
 10
3.644444439146254
 20
2.637499898274756
 30
0.0
 10
3.644444439146254
 20
2.613720982869482
 30
0.0
 10
3.625167793697781
 20
2.59444425794815
 30
0.0
 10
3.601388878292507
 20
2.59444425794815
 30
0.0
 10
3.577609962887234
 20
2.59444425794815
 30
0.0
 10
3.558333317438761
 20
2.613720982869482
 30
0.0
 10
3.558333317438761
 20
2.637499898274756
 30
0.0
 10
3.558333317438761
 20
2.661278813680029
 30
0.0
 10
3.577609962887234
 20
2.680555538601361
 30
0.0
 10
3.601388878292507
 20
2.680555538601361
 30
0.0
  0
HATCH
  5
144
330
13F
100
AcDbEntity
  8
Layer 1
 62
     7
420
 16777215
100
AcDbHatch
 10
0.0
 20
0.0
 30
0.0
210
0.0
220
0.0
230
1.0
  2
SOLID
 70
     1
 71
     0
 91
        1
 92
        1
 93
        1
 72
     4
 94
        3
 73
     0
 74
     1
 95
       17
 96
       13
 40
0.0
 40
0.0
 40
0.0
 40
0.0
 40
1.0
 40
1.0
 40
1.0
 40
2.0
 40
2.0
 40
2.0
 40
3.0
 40
3.0
 40
3.0
 40
4.0
 40
4.0
 40
4.0
 40
4.0
 10
3.601388878292507
 20
2.680555538601361
 10
3.625167793697781
 20
2.680555538601361
 10
3.644444439146254
 20
2.661278813680029
 10
3.644444439146254
 20
2.637499898274756
 10
3.644444439146254
 20
2.613720982869482
 10
3.625167793697781
 20
2.59444425794815
 10
3.601388878292507
 20
2.59444425794815
 10
3.577609962887234
 20
2.59444425794815
 10
3.558333317438761
 20
2.613720982869482
 10
3.558333317438761
 20
2.637499898274756
 10
3.558333317438761
 20
2.661278813680029
 10
3.577609962887234
 20
2.680555538601361
 10
3.601388878292507
 20
2.680555538601361
 97
        0
 97
        0
 75
     2
 76
     1
 98
        0
  0
ENDBLK
  5
142
330
13F
100
AcDbEntity
  8
0
100
AcDbBlockEnd
  0
BLOCK
  5
147
330
145
100
AcDbEntity
  8
0
100
AcDbBlockBegin
  2
block 36
 70
     0
 10
0.0
 20
0.0
 30
0.0
  3
block 36
  1

  0
SPLINE
  5
149
330
145
100
AcDbEntity
  8
Layer 1
 62
     7
420
 16777215
370
     9
100
AcDbSpline
210
0.0
220
0.0
230
1.0
 70
    11
 71
     3
 72
    17
 73
    13
 74
     0
 42
0.0000000001
 43
0.0000000001
 12
1.0
 22
0.0
 32
0.0
 13
1.0
 23
0.0
 33
0.0
 40
0.0
 40
0.0
 40
0.0
 40
0.0
 40
1.0
 40
1.0
 40
1.0
 40
2.0
 40
2.0
 40
2.0
 40
3.0
 40
3.0
 40
3.0
 40
4.0
 40
4.0
 40
4.0
 40
4.0
 10
0.1374999152289496
 20
2.680555538601361
 30
0.0
 10
0.1612790425618489
 20
2.680555538601361
 30
0.0
 10
0.1805555555555556
 20
2.661278813680029
 30
0.0
 10
0.1805555555555556
 20
2.637499898274756
 30
0.0
 10
0.1805555555555556
 20
2.613720982869482
 30
0.0
 10
0.1612790425618489
 20
2.59444425794815
 30
0.0
 10
0.1374999152289496
 20
2.59444425794815
 30
0.0
 10
0.1137207878960503
 20
2.59444425794815
 30
0.0
 10
0.0944442749023438
 20
2.613720982869482
 30
0.0
 10
0.0944442749023438
 20
2.637499898274756
 30
0.0
 10
0.0944442749023438
 20
2.661278813680029
 30
0.0
 10
0.1137207878960503
 20
2.680555538601361
 30
0.0
 10
0.1374999152289496
 20
2.680555538601361
 30
0.0
  0
HATCH
  5
14A
330
145
100
AcDbEntity
  8
Layer 1
 62
     7
420
 16777215
100
AcDbHatch
 10
0.0
 20
0.0
 30
0.0
210
0.0
220
0.0
230
1.0
  2
SOLID
 70
     1
 71
     0
 91
        1
 92
        1
 93
        1
 72
     4
 94
        3
 73
     0
 74
     1
 95
       17
 96
       13
 40
0.0
 40
0.0
 40
0.0
 40
0.0
 40
1.0
 40
1.0
 40
1.0
 40
2.0
 40
2.0
 40
2.0
 40
3.0
 40
3.0
 40
3.0
 40
4.0
 40
4.0
 40
4.0
 40
4.0
 10
0.1374999152289496
 20
2.680555538601361
 10
0.1612790425618489
 20
2.680555538601361
 10
0.1805555555555556
 20
2.661278813680029
 10
0.1805555555555556
 20
2.637499898274756
 10
0.1805555555555556
 20
2.613720982869482
 10
0.1612790425618489
 20
2.59444425794815
 10
0.1374999152289496
 20
2.59444425794815
 10
0.1137207878960503
 20
2.59444425794815
 10
0.0944442749023438
 20
2.613720982869482
 10
0.0944442749023438
 20
2.637499898274756
 10
0.0944442749023438
 20
2.661278813680029
 10
0.1137207878960503
 20
2.680555538601361
 10
0.1374999152289496
 20
2.680555538601361
 97
        0
 97
        0
 75
     2
 76
     1
 98
        0
  0
ENDBLK
  5
148
330
145
100
AcDbEntity
  8
0
100
AcDbBlockEnd
  0
ENDSEC
  0
SECTION
  2
ENTITIES
  0
INSERT
  5
42
330
1F
100
AcDbEntity
  8
Layer 1
100
AcDbBlockReference
  2
block 2
 10
0.0
 20
0.0
 30
0.0
  0
INSERT
  5
46
330
1F
100
AcDbEntity
  8
Layer 1
100
AcDbBlockReference
  2
block 3
 10
0.0
 20
0.0
 30
0.0
  0
INSERT
  5
4E
330
1F
100
AcDbEntity
  8
Layer 1
100
AcDbBlockReference
  2
block 4
 10
0.0
 20
0.0
 30
0.0
  0
INSERT
  5
56
330
1F
100
AcDbEntity
  8
Layer 1
100
AcDbBlockReference
  2
block 5
 10
0.0
 20
0.0
 30
0.0
  0
INSERT
  5
5E
330
1F
100
AcDbEntity
  8
Layer 1
100
AcDbBlockReference
  2
block 6
 10
0.0
 20
0.0
 30
0.0
  0
INSERT
  5
66
330
1F
100
AcDbEntity
  8
Layer 1
100
AcDbBlockReference
  2
block 7
 10
0.0
 20
0.0
 30
0.0
  0
INSERT
  5
6E
330
1F
100
AcDbEntity
  8
Layer 1
100
AcDbBlockReference
  2
block 8
 10
0.0
 20
0.0
 30
0.0
  0
INSERT
  5
76
330
1F
100
AcDbEntity
  8
Layer 1
100
AcDbBlockReference
  2
block 9
 10
0.0
 20
0.0
 30
0.0
  0
INSERT
  5
7E
330
1F
100
AcDbEntity
  8
Layer 1
100
AcDbBlockReference
  2
block 10
 10
0.0
 20
0.0
 30
0.0
  0
INSERT
  5
86
330
1F
100
AcDbEntity
  8
Layer 1
100
AcDbBlockReference
  2
block 11
 10
0.0
 20
0.0
 30
0.0
  0
INSERT
  5
8E
330
1F
100
AcDbEntity
  8
Layer 1
100
AcDbBlockReference
  2
block 12
 10
0.0
 20
0.0
 30
0.0
  0
INSERT
  5
96
330
1F
100
AcDbEntity
  8
Layer 1
100
AcDbBlockReference
  2
block 13
 10
0.0
 20
0.0
 30
0.0
  0
INSERT
  5
9E
330
1F
100
AcDbEntity
  8
Layer 1
100
AcDbBlockReference
  2
block 14
 10
0.0
 20
0.0
 30
0.0
  0
INSERT
  5
A6
330
1F
100
AcDbEntity
  8
Layer 1
100
AcDbBlockReference
  2
block 15
 10
0.0
 20
0.0
 30
0.0
  0
INSERT
  5
AE
330
1F
100
AcDbEntity
  8
Layer 1
100
AcDbBlockReference
  2
block 16
 10
0.0
 20
0.0
 30
0.0
  0
INSERT
  5
B6
330
1F
100
AcDbEntity
  8
Layer 1
100
AcDbBlockReference
  2
block 17
 10
0.0
 20
0.0
 30
0.0
  0
INSERT
  5
BE
330
1F
100
AcDbEntity
  8
Layer 1
100
AcDbBlockReference
  2
block 18
 10
0.0
 20
0.0
 30
0.0
  0
INSERT
  5
C6
330
1F
100
AcDbEntity
  8
Layer 1
100
AcDbBlockReference
  2
block 19
 10
0.0
 20
0.0
 30
0.0
  0
INSERT
  5
CE
330
1F
100
AcDbEntity
  8
Layer 1
100
AcDbBlockReference
  2
block 20
 10
0.0
 20
0.0
 30
0.0
  0
INSERT
  5
D6
330
1F
100
AcDbEntity
  8
Layer 1
100
AcDbBlockReference
  2
block 21
 10
0.0
 20
0.0
 30
0.0
  0
INSERT
  5
DE
330
1F
100
AcDbEntity
  8
Layer 1
100
AcDbBlockReference
  2
block 22
 10
0.0
 20
0.0
 30
0.0
  0
INSERT
  5
E6
330
1F
100
AcDbEntity
  8
Layer 1
100
AcDbBlockReference
  2
block 23
 10
0.0
 20
0.0
 30
0.0
  0
INSERT
  5
EE
330
1F
100
AcDbEntity
  8
Layer 1
100
AcDbBlockReference
  2
block 24
 10
0.0
 20
0.0
 30
0.0
  0
INSERT
  5
F6
330
1F
100
AcDbEntity
  8
Layer 1
100
AcDbBlockReference
  2
block 25
 10
0.0
 20
0.0
 30
0.0
  0
INSERT
  5
FE
330
1F
100
AcDbEntity
  8
Layer 1
100
AcDbBlockReference
  2
block 26
 10
0.0
 20
0.0
 30
0.0
  0
INSERT
  5
106
330
1F
100
AcDbEntity
  8
Layer 1
100
AcDbBlockReference
  2
block 27
 10
0.0
 20
0.0
 30
0.0
  0
INSERT
  5
10E
330
1F
100
AcDbEntity
  8
Layer 1
100
AcDbBlockReference
  2
block 28
 10
0.0
 20
0.0
 30
0.0
  0
INSERT
  5
116
330
1F
100
AcDbEntity
  8
Layer 1
100
AcDbBlockReference
  2
block 29
 10
0.0
 20
0.0
 30
0.0
  0
INSERT
  5
11E
330
1F
100
AcDbEntity
  8
Layer 1
100
AcDbBlockReference
  2
block 30
 10
0.0
 20
0.0
 30
0.0
  0
INSERT
  5
126
330
1F
100
AcDbEntity
  8
Layer 1
100
AcDbBlockReference
  2
block 31
 10
0.0
 20
0.0
 30
0.0
  0
INSERT
  5
12D
330
1F
100
AcDbEntity
  8
Layer 1
100
AcDbBlockReference
  2
block 32
 10
0.0
 20
0.0
 30
0.0
  0
INSERT
  5
134
330
1F
100
AcDbEntity
  8
Layer 1
100
AcDbBlockReference
  2
block 33
 10
0.0
 20
0.0
 30
0.0
  0
INSERT
  5
13A
330
1F
100
AcDbEntity
  8
Layer 1
100
AcDbBlockReference
  2
block 34
 10
0.0
 20
0.0
 30
0.0
  0
INSERT
  5
140
330
1F
100
AcDbEntity
  8
Layer 1
100
AcDbBlockReference
  2
block 35
 10
0.0
 20
0.0
 30
0.0
  0
INSERT
  5
146
330
1F
100
AcDbEntity
  8
Layer 1
100
AcDbBlockReference
  2
block 36
 10
0.0
 20
0.0
 30
0.0
  0
POLYLINE
  5
14B
330
1F
100
AcDbEntity
  8
Layer 1
 62
     7
420
 16777215
370
     9
100
AcDb2dPolyline
 66
     1
 10
0.0
 20
0.0
 30
0.0
  0
VERTEX
  5
14C
330
14B
100
AcDbEntity
  8
Layer 1
 62
     7
420
 16777215
370
     9
100
AcDbVertex
100
AcDb2dVertex
 10
0.0
 20
2.755555453830311
 30
0.0
  0
VERTEX
  5
14D
330
14B
100
AcDbEntity
  8
Layer 1
 62
     7
420
 16777215
370
     9
100
AcDbVertex
100
AcDb2dVertex
 10
0.0
 20
-0.0000000169541939
 30
0.0
  0
VERTEX
  5
14E
330
14B
100
AcDbEntity
  8
Layer 1
 62
     7
420
 16777215
370
     9
100
AcDbVertex
100
AcDb2dVertex
 10
3.740277780426873
 20
-0.0000000169541939
 30
0.0
  0
VERTEX
  5
14F
330
14B
100
AcDbEntity
  8
Layer 1
 62
     7
420
 16777215
370
     9
100
AcDbVertex
100
AcDb2dVertex
 10
3.740277780426873
 20
2.755555453830311
 30
0.0
  0
VERTEX
  5
150
330
14B
100
AcDbEntity
  8
Layer 1
 62
     7
420
 16777215
370
     9
100
AcDbVertex
100
AcDb2dVertex
 10
0.0
 20
2.755555453830311
 30
0.0
  0
SEQEND
  5
151
330
14B
100
AcDbEntity
  8
Layer 1
 62
     7
420
 16777215
370
     9
  0
ENDSEC
  0
SECTION
  2
OBJECTS
  0
DICTIONARY
  5
C
330
0
100
AcDbDictionary
281
     1
  3
ACAD_GROUP
350
D
  3
ACAD_LAYOUT
350
1A
  3
ACAD_MATERIAL
350
3B
  3
ACAD_MLEADERSTYLE
350
155
  3
ACAD_MLINESTYLE
350
17
  3
ACAD_PLOTSETTINGS
350
19
  3
ACAD_PLOTSTYLENAME
350
E
  3
ACAD_TABLESTYLE
350
154
  3
ACAD_VISUALSTYLE
350
2A
  0
SUN
  5
3F
330
29
100
AcDbSun
 90
        1
290
     0
 63
     7
421
 16777215
 40
1.0
291
     1
 91
  2455826
 92
 54000000
292
     0
 70
     2
 71
   256
280
     1
  0
DICTIONARY
  5
D
102
{ACAD_REACTORS
330
C
102
}
330
C
100
AcDbDictionary
281
     1
  0
DICTIONARY
  5
1A
102
{ACAD_REACTORS
330
C
102
}
330
C
100
AcDbDictionary
281
     1
  3
Layout1
350
1E
  3
Layout2
350
26
  3
Model
350
22
  0
DICTIONARY
  5
3B
102
{ACAD_REACTORS
330
C
102
}
330
C
100
AcDbDictionary
281
     1
  3
ByBlock
350
3D
  3
ByLayer
350
3C
  3
Global
350
3E
  0
DICTIONARY
  5
155
102
{ACAD_REACTORS
330
C
102
}
330
C
100
AcDbDictionary
281
     1
  0
DICTIONARY
  5
17
102
{ACAD_REACTORS
330
C
102
}
330
C
100
AcDbDictionary
281
     1
  3
Standard
350
18
  0
DICTIONARY
  5
19
102
{ACAD_REACTORS
330
C
102
}
330
C
100
AcDbDictionary
281
     1
  0
ACDBDICTIONARYWDFLT
  5
E
102
{ACAD_REACTORS
330
C
102
}
330
C
100
AcDbDictionary
281
     1
  3
Normal
350
F
100
AcDbDictionaryWithDefault
340
F
  0
DICTIONARY
  5
154
102
{ACAD_REACTORS
330
C
102
}
330
C
100
AcDbDictionary
281
     1
  0
DICTIONARY
  5
2A
102
{ACAD_REACTORS
330
C
102
}
330
C
100
AcDbDictionary
281
     1
  3
2dWireframe
350
2F
  3
3D Hidden
350
31
  3
3dWireframe
350
30
  3
Basic
350
32
  3
Brighten
350
36
  3
ColorChange
350
3A
  3
Conceptual
350
34
  3
Dim
350
35
  3
Facepattern
350
39
  3
Flat
350
2B
  3
FlatWithEdges
350
2C
  3
Gouraud
350
2D
  3
GouraudWithEdges
350
2E
  3
Linepattern
350
38
  3
Realistic
350
33
  3
Thicken
350
37
  0
LAYOUT
  5
1E
102
{ACAD_REACTORS
330
1A
102
}
330
1A
100
AcDbPlotSettings
  1

  2
none_device
  4

  6

 40
0.0
 41
0.0
 42
0.0
 43
0.0
 44
0.0
 45
0.0
 46
0.0
 47
0.0
 48
0.0
 49
0.0
140
0.0
141
0.0
142
1.0
143
1.0
 70
   688
 72
     0
 73
     0
 74
     5
  7

 75
    16
 76
     0
 77
     2
 78
   300
147
1.0
148
0.0
149
0.0
100
AcDbLayout
  1
Layout1
 70
     1
 71
     1
 10
0.0
 20
0.0
 11
12.0
 21
9.0
 12
0.0
 22
0.0
 32
0.0
 14
1.000000000000000E+20
 24
1.000000000000000E+20
 34
1.000000000000000E+20
 15
-1.000000000000000E+20
 25
-1.000000000000000E+20
 35
-1.000000000000000E+20
146
0.0
 13
0.0
 23
0.0
 33
0.0
 16
1.0
 26
0.0
 36
0.0
 17
0.0
 27
1.0
 37
0.0
 76
     0
330
1B
  0
LAYOUT
  5
26
102
{ACAD_REACTORS
330
1A
102
}
330
1A
100
AcDbPlotSettings
  1

  2
none_device
  4

  6

 40
0.0
 41
0.0
 42
0.0
 43
0.0
 44
0.0
 45
0.0
 46
0.0
 47
0.0
 48
0.0
 49
0.0
140
0.0
141
0.0
142
1.0
143
1.0
 70
   688
 72
     0
 73
     0
 74
     5
  7

 75
    16
 76
     0
 77
     2
 78
   300
147
1.0
148
0.0
149
0.0
100
AcDbLayout
  1
Layout2
 70
     1
 71
     2
 10
0.0
 20
0.0
 11
0.0
 21
0.0
 12
0.0
 22
0.0
 32
0.0
 14
0.0
 24
0.0
 34
0.0
 15
0.0
 25
0.0
 35
0.0
146
0.0
 13
0.0
 23
0.0
 33
0.0
 16
1.0
 26
0.0
 36
0.0
 17
0.0
 27
1.0
 37
0.0
 76
     0
330
23
  0
LAYOUT
  5
22
102
{ACAD_REACTORS
330
1A
102
}
330
1A
100
AcDbPlotSettings
  1

  2
none_device
  4

  6

 40
0.0
 41
0.0
 42
0.0
 43
0.0
 44
0.0
 45
0.0
 46
0.0
 47
0.0
 48
0.0
 49
0.0
140
0.0
141
0.0
142
1.0
143
1.0
 70
  1712
 72
     0
 73
     0
 74
     0
  7

 75
     0
 76
     0
 77
     2
 78
   300
147
1.0
148
0.0
149
0.0
100
AcDbLayout
  1
Model
 70
     1
 71
     0
 10
0.0
 20
0.0
 11
12.0
 21
9.0
 12
0.0
 22
0.0
 32
0.0
 14
1.000000000000000E+20
 24
1.000000000000000E+20
 34
1.000000000000000E+20
 15
-1.000000000000000E+20
 25
-1.000000000000000E+20
 35
-1.000000000000000E+20
146
0.0
 13
0.0
 23
0.0
 33
0.0
 16
1.0
 26
0.0
 36
0.0
 17
0.0
 27
1.0
 37
0.0
 76
     0
330
1F
331
29
  0
MATERIAL
  5
3D
102
{ACAD_REACTORS
330
3B
102
}
330
3B
100
AcDbMaterial
  1
ByBlock
 72
     1
 94
      127
  0
MATERIAL
  5
3C
102
{ACAD_REACTORS
330
3B
102
}
330
3B
100
AcDbMaterial
  1
ByLayer
 72
     1
 94
      127
  0
MATERIAL
  5
3E
102
{ACAD_REACTORS
330
3B
102
}
330
3B
100
AcDbMaterial
  1
Global
 72
     1
 94
      127
  0
MLINESTYLE
  5
18
102
{ACAD_REACTORS
330
17
102
}
330
17
100
AcDbMlineStyle
  2
Standard
 70
     0
  3

 62
   256
 51
90.0
 52
90.0
 71
     2
 49
0.5
 62
   256
  6
BYLAYER
 49
-0.5
 62
   256
  6
BYLAYER
  0
ACDBPLACEHOLDER
  5
F
102
{ACAD_REACTORS
330
E
102
}
330
E
  0
VISUALSTYLE
  5
2F
102
{ACAD_REACTORS
330
2A
102
}
330
2A
100
AcDbVisualStyle
  2
2dWireframe
 70
     4
177
     2
291
     0
 71
     0
176
     1
 72
     2
176
     1
 73
     0
176
     1
 90
        0
176
     1
 40
-0.6
176
     1
 41
-30.0
176
     1
 62
     5
 63
     7
421
 16777215
176
     1
 74
     1
176
     1
 91
        4
176
     1
 64
     7
176
     1
 65
   257
176
     1
 75
     1
176
     1
175
     1
176
     1
 42
1.0
176
     1
 92
        0
176
     1
 66
   257
176
     1
 43
1.0
176
     1
 76
     1
176
     1
 77
     6
176
     1
 78
     2
176
     1
 67
     7
176
     1
 79
     5
176
     1
170
     0
176
     1
171
     0
176
     1
290
     0
176
     1
 93
        1
176
     1
 44
0.0
176
     1
173
     0
176
     1
  0
VISUALSTYLE
  5
31
102
{ACAD_REACTORS
330
2A
102
}
330
2A
100
AcDbVisualStyle
  2
3D Hidden
 70
     6
177
     2
291
     0
 71
     1
176
     1
 72
     2
176
     1
 73
     2
176
     1
 90
        0
176
     1
 40
-0.6
176
     1
 41
-30.0
176
     1
 62
     5
 63
     7
421
 16777215
176
     1
 74
     2
176
     1
 91
        2
176
     1
 64
     7
176
     1
 65
   257
176
     1
 75
     2
176
     1
175
     1
176
     1
 42
40.0
176
     1
 92
        0
176
     1
 66
   257
176
     1
 43
1.0
176
     1
 76
     1
176
     1
 77
     6
176
     1
 78
     2
176
     1
 67
     7
176
     1
 79
     3
176
     1
170
     0
176
     1
171
     0
176
     1
290
     0
176
     1
 93
        1
176
     1
 44
0.0
176
     1
173
     0
176
     1
  0
VISUALSTYLE
  5
30
102
{ACAD_REACTORS
330
2A
102
}
330
2A
100
AcDbVisualStyle
  2
3dWireframe
 70
     5
177
     2
291
     0
 71
     0
176
     1
 72
     2
176
     1
 73
     0
176
     1
 90
        0
176
     1
 40
-0.6
176
     1
 41
-30.0
176
     1
 62
     5
 63
     7
421
 16777215
176
     1
 74
     1
176
     1
 91
        4
176
     1
 64
     7
176
     1
 65
   257
176
     1
 75
     1
176
     1
175
     1
176
     1
 42
1.0
176
     1
 92
        0
176
     1
 66
   257
176
     1
 43
1.0
176
     1
 76
     1
176
     1
 77
     6
176
     1
 78
     2
176
     1
 67
     7
176
     1
 79
     5
176
     1
170
     0
176
     1
171
     0
176
     1
290
     0
176
     1
 93
        1
176
     1
 44
0.0
176
     1
173
     0
176
     1
  0
VISUALSTYLE
  5
32
102
{ACAD_REACTORS
330
2A
102
}
330
2A
100
AcDbVisualStyle
  2
Basic
 70
     7
177
     2
291
     1
 71
     1
176
     1
 72
     0
176
     1
 73
     1
176
     1
 90
        0
176
     1
 40
-0.6
176
     1
 41
-30.0
176
     1
 62
     5
 63
     7
421
 16777215
176
     1
 74
     0
176
     1
 91
        4
176
     1
 64
     7
176
     1
 65
   257
176
     1
 75
     1
176
     1
175
     1
176
     1
 42
1.0
176
     1
 92
        8
176
     1
 66
     7
176
     1
 43
1.0
176
     1
 76
     1
176
     1
 77
     6
176
     1
 78
     2
176
     1
 67
     7
176
     1
 79
     5
176
     1
170
     0
176
     1
171
     0
176
     1
290
     0
176
     1
 93
        1
176
     1
 44
0.0
176
     1
173
     0
176
     1
  0
VISUALSTYLE
  5
36
102
{ACAD_REACTORS
330
2A
102
}
330
2A
100
AcDbVisualStyle
  2
Brighten
 70
    12
177
     2
291
     1
 71
     2
176
     1
 72
     2
176
     1
 73
     0
176
     1
 90
        0
176
     1
 40
-0.6
176
     1
 41
-30.0
176
     1
 62
     5
 63
     7
421
 16777215
176
     1
 74
     1
176
     1
 91
        4
176
     1
 64
     7
176
     1
 65
   257
176
     1
 75
     1
176
     1
175
     1
176
     1
 42
1.0
176
     1
 92
        8
176
     1
 66
     7
176
     1
 43
1.0
176
     1
 76
     1
176
     1
 77
     6
176
     1
 78
     2
176
     1
 67
     7
176
     1
 79
     5
176
     1
170
     0
176
     1
171
     0
176
     1
290
     0
176
     1
 93
        1
176
     1
 44
50.0
176
     1
173
     0
176
     1
  0
VISUALSTYLE
  5
3A
102
{ACAD_REACTORS
330
2A
102
}
330
2A
100
AcDbVisualStyle
  2
ColorChange
 70
    16
177
     2
291
     1
 71
     2
176
     1
 72
     2
176
     1
 73
     3
176
     1
 90
        0
176
     1
 40
-0.6
176
     1
 41
-30.0
176
     1
 62
     5
 63
     8
421
  8421504
176
     1
 74
     1
176
     1
 91
        4
176
     1
 64
     7
176
     1
 65
   257
176
     1
 75
     1
176
     1
175
     1
176
     1
 42
1.0
176
     1
 92
        8
176
     1
 66
     8
424
  8421504
176
     1
 43
1.0
176
     1
 76
     1
176
     1
 77
     6
176
     1
 78
     2
176
     1
 67
     7
176
     1
 79
     5
176
     1
170
     0
176
     1
171
     0
176
     1
290
     0
176
     1
 93
        1
176
     1
 44
0.0
176
     1
173
     0
176
     1
  0
VISUALSTYLE
  5
34
102
{ACAD_REACTORS
330
2A
102
}
330
2A
100
AcDbVisualStyle
  2
Conceptual
 70
     9
177
     2
291
     0
 71
     3
176
     1
 72
     2
176
     1
 73
     0
176
     1
 90
        0
176
     1
 40
-0.6
176
     1
 41
-30.0
176
     1
 62
     5
 63
     7
421
 16777215
176
     1
 74
     2
176
     1
 91
        2
176
     1
 64
     7
176
     1
 65
   257
176
     1
 75
     1
176
     1
175
     1
176
     1
 42
40.0
176
     1
 92
        8
176
     1
 66
     7
176
     1
 43
1.0
176
     1
 76
     1
176
     1
 77
     6
176
     1
 78
     2
176
     1
 67
     7
176
     1
 79
     3
176
     1
170
     0
176
     1
171
     0
176
     1
290
     0
176
     1
 93
        1
176
     1
 44
0.0
176
     1
173
     0
176
     1
  0
VISUALSTYLE
  5
35
102
{ACAD_REACTORS
330
2A
102
}
330
2A
100
AcDbVisualStyle
  2
Dim
 70
    11
177
     2
291
     1
 71
     2
176
     1
 72
     2
176
     1
 73
     0
176
     1
 90
        0
176
     1
 40
-0.6
176
     1
 41
-30.0
176
     1
 62
     5
 63
     7
421
 16777215
176
     1
 74
     1
176
     1
 91
        4
176
     1
 64
     7
176
     1
 65
   257
176
     1
 75
     1
176
     1
175
     1
176
     1
 42
1.0
176
     1
 92
        8
176
     1
 66
     7
176
     1
 43
1.0
176
     1
 76
     1
176
     1
 77
     6
176
     1
 78
     2
176
     1
 67
     7
176
     1
 79
     5
176
     1
170
     0
176
     1
171
     0
176
     1
290
     0
176
     1
 93
        1
176
     1
 44
-50.0
176
     1
173
     0
176
     1
  0
VISUALSTYLE
  5
39
102
{ACAD_REACTORS
330
2A
102
}
330
2A
100
AcDbVisualStyle
  2
Facepattern
 70
    15
177
     2
291
     1
 71
     2
176
     1
 72
     2
176
     1
 73
     0
176
     1
 90
        0
176
     1
 40
-0.6
176
     1
 41
-30.0
176
     1
 62
     5
 63
     7
421
 16777215
176
     1
 74
     1
176
     1
 91
        4
176
     1
 64
     7
176
     1
 65
   257
176
     1
 75
     1
176
     1
175
     1
176
     1
 42
1.0
176
     1
 92
        8
176
     1
 66
     7
176
     1
 43
1.0
176
     1
 76
     1
176
     1
 77
     6
176
     1
 78
     2
176
     1
 67
     7
176
     1
 79
     5
176
     1
170
     0
176
     1
171
     0
176
     1
290
     0
176
     1
 93
        1
176
     1
 44
0.0
176
     1
173
     0
176
     1
  0
VISUALSTYLE
  5
2B
102
{ACAD_REACTORS
330
2A
102
}
330
2A
100
AcDbVisualStyle
  2
Flat
 70
     0
177
     2
291
     1
 71
     2
176
     1
 72
     1
176
     1
 73
     1
176
     1
 90
        2
176
     1
 40
-0.6
176
     1
 41
30.0
176
     1
 62
     5
 63
     7
421
 16777215
176
     1
 74
     0
176
     1
 91
        4
176
     1
 64
     7
176
     1
 65
   257
176
     1
 75
     1
176
     1
175
     1
176
     1
 42
1.0
176
     1
 92
        8
176
     1
 66
     7
176
     1
 43
1.0
176
     1
 76
     1
176
     1
 77
     6
176
     1
 78
     2
176
     1
 67
     7
176
     1
 79
     5
176
     1
170
     0
176
     1
171
     0
176
     1
290
     0
176
     1
 93
       13
176
     1
 44
0.0
176
     1
173
     0
176
     1
  0
VISUALSTYLE
  5
2C
102
{ACAD_REACTORS
330
2A
102
}
330
2A
100
AcDbVisualStyle
  2
FlatWithEdges
 70
     1
177
     2
291
     1
 71
     2
176
     1
 72
     1
176
     1
 73
     1
176
     1
 90
        2
176
     1
 40
-0.6
176
     1
 41
30.0
176
     1
 62
     5
 63
     7
421
 16777215
176
     1
 74
     1
176
     1
 91
        4
176
     1
 64
     7
176
     1
 65
   257
176
     1
 75
     1
176
     1
175
     1
176
     1
 42
1.0
176
     1
 92
        0
176
     1
 66
   257
176
     1
 43
1.0
176
     1
 76
     1
176
     1
 77
     6
176
     1
 78
     2
176
     1
 67
     7
176
     1
 79
     5
176
     1
170
     0
176
     1
171
     0
176
     1
290
     0
176
     1
 93
       13
176
     1
 44
0.0
176
     1
173
     0
176
     1
  0
VISUALSTYLE
  5
2D
102
{ACAD_REACTORS
330
2A
102
}
330
2A
100
AcDbVisualStyle
  2
Gouraud
 70
     2
177
     2
291
     1
 71
     2
176
     1
 72
     2
176
     1
 73
     1
176
     1
 90
        2
176
     1
 40
-0.6
176
     1
 41
30.0
176
     1
 62
     5
 63
     7
421
 16777215
176
     1
 74
     0
176
     1
 91
        4
176
     1
 64
     7
176
     1
 65
   257
176
     1
 75
     1
176
     1
175
     1
176
     1
 42
1.0
176
     1
 92
        0
176
     1
 66
     7
176
     1
 43
1.0
176
     1
 76
     1
176
     1
 77
     6
176
     1
 78
     2
176
     1
 67
     7
176
     1
 79
     5
176
     1
170
     0
176
     1
171
     0
176
     1
290
     0
176
     1
 93
       13
176
     1
 44
0.0
176
     1
173
     0
176
     1
  0
VISUALSTYLE
  5
2E
102
{ACAD_REACTORS
330
2A
102
}
330
2A
100
AcDbVisualStyle
  2
GouraudWithEdges
 70
     3
177
     2
291
     1
 71
     2
176
     1
 72
     2
176
     1
 73
     1
176
     1
 90
        2
176
     1
 40
-0.6
176
     1
 41
30.0
176
     1
 62
     5
 63
     7
421
 16777215
176
     1
 74
     1
176
     1
 91
        4
176
     1
 64
     7
176
     1
 65
   257
176
     1
 75
     1
176
     1
175
     1
176
     1
 42
1.0
176
     1
 92
        0
176
     1
 66
   257
176
     1
 43
1.0
176
     1
 76
     1
176
     1
 77
     6
176
     1
 78
     2
176
     1
 67
     7
176
     1
 79
     5
176
     1
170
     0
176
     1
171
     0
176
     1
290
     0
176
     1
 93
       13
176
     1
 44
0.0
176
     1
173
     0
176
     1
  0
VISUALSTYLE
  5
38
102
{ACAD_REACTORS
330
2A
102
}
330
2A
100
AcDbVisualStyle
  2
Linepattern
 70
    14
177
     2
291
     1
 71
     2
176
     1
 72
     2
176
     1
 73
     0
176
     1
 90
        0
176
     1
 40
-0.6
176
     1
 41
-30.0
176
     1
 62
     5
 63
     7
421
 16777215
176
     1
 74
     1
176
     1
 91
        4
176
     1
 64
     7
176
     1
 65
   257
176
     1
 75
     7
176
     1
175
     7
176
     1
 42
1.0
176
     1
 92
        8
176
     1
 66
     7
176
     1
 43
1.0
176
     1
 76
     1
176
     1
 77
     6
176
     1
 78
     2
176
     1
 67
     7
176
     1
 79
     5
176
     1
170
     0
176
     1
171
     0
176
     1
290
     0
176
     1
 93
        1
176
     1
 44
0.0
176
     1
173
     0
176
     1
  0
VISUALSTYLE
  5
33
102
{ACAD_REACTORS
330
2A
102
}
330
2A
100
AcDbVisualStyle
  2
Realistic
 70
     8
177
     2
291
     0
 71
     2
176
     1
 72
     2
176
     1
 73
     0
176
     1
 90
        0
176
     1
 40
-0.6
176
     1
 41
-30.0
176
     1
 62
     5
 63
     7
421
 16777215
176
     1
 74
     1
176
     1
 91
        0
176
     1
 64
     7
176
     1
 65
   257
176
     1
 75
     1
176
     1
175
     1
176
     1
 42
1.0
176
     1
 92
        8
176
     1
 66
     8
424
  7895160
176
     1
 43
1.0
176
     1
 76
     1
176
     1
 77
     6
176
     1
 78
     2
176
     1
 67
     7
176
     1
 79
     5
176
     1
170
     0
176
     1
171
     0
176
     1
290
     0
176
     1
 93
       13
176
     1
 44
0.0
176
     1
173
     0
176
     1
  0
VISUALSTYLE
  5
37
102
{ACAD_REACTORS
330
2A
102
}
330
2A
100
AcDbVisualStyle
  2
Thicken
 70
    13
177
     2
291
     1
 71
     2
176
     1
 72
     2
176
     1
 73
     0
176
     1
 90
        0
176
     1
 40
-0.6
176
     1
 41
-30.0
176
     1
 62
     5
 63
     7
421
 16777215
176
     1
 74
     1
176
     1
 91
        4
176
     1
 64
     7
176
     1
 65
   257
176
     1
 75
     1
176
     1
175
     1
176
     1
 42
1.0
176
     1
 92
       12
176
     1
 66
     7
176
     1
 43
1.0
176
     1
 76
     1
176
     1
 77
     6
176
     1
 78
     2
176
     1
 67
     7
176
     1
 79
     5
176
     1
170
     0
176
     1
171
     0
176
     1
290
     0
176
     1
 93
        1
176
     1
 44
0.0
176
     1
173
     0
176
     1
  0
ENDSEC
  0
EOF
