**ABCDEFGHIJKLMNOPQRSTUVWXYZabcdefghijklmnopqrstuvwxyz**************************
**PARASOLID !"#$%&'()*+,-./:;<=>?@[\]^_`{|}~0123456789**************************
**PART1;
MC=AMD64;
MC_MODEL=Intel64 Family 6 Model 158 Stepping 10, GenuineIntel;
MC_ID=unknown;
OS=Windows_NT;
OS_RELEASE=unknown;
FRU=Parasolid Version 31.1, build 290,  3- 9-2020;
APPL=SOLIDWORKS 2020-2020128;
SITE=;
USER=unknown;
FORMAT=text;
GUISE=transmit;
KEY=makeProjectedPlanarWire;
FILE=makeProjectedPlanarWire.x_t;
DATE=Thu Jul 15 20:52:38 2021;
**PART2;
SCH=SCH_3101290_31100;
USFLD_SIZE=0;
**PART3;
**END_OF_HEADER*****************************************************************
T51 : TRANSMIT FILE created by modeller version 310129023 SCH_3101290_31100_1300
6222 0 12 34 CCCCCCI4 mesh1006 0 I8 polyline1008 0 CCCCCCCDI5 owner1040 0 CCCCCC
I13 boundary_mesh1006 0 I17 boundary_polyline1008 0 CCCA16 index_map_offset0 0 1
 dA9 index_map82 0 A17 node_id_index_map82 0 A20 schema_embedding_map82 0 A5 chi
ld12 0 A14 lowest_node_id0 0 1 dA16 mesh_offset_data206 0 Z1 45 0 0 0 0 0 0 0 0
 1e3 1e-8 0 2 0 1 0 3 1 3 4 5 6 0 0 7 8 9 0 0 0 0 0 0 0 13 255 3 41 0 1 0 10 0 0
 7 10 50 255 4 3 0 10 0 0 0 +0 .0087501 0 0 1 0 0 0 1 30 255 5 22 0 8 11 0 0 +-.
05 .0087501 -.0375 -1 0 0 29 255 6 43 0 9 12 0 -.0252906867704421 .0087501 .0091
3197989481197 19 8 CCCCCCCA5 owner12 0 Z7 40 0 1 0 0 3 V0 16 255 8 20 0 ?13 0 14
 5 0 0 1 18 255 9 42 0 15 0 16 6 ?1 17 255 15 0 0 0 0 9 17 18 0 17 +18 16 32 0 1
9 9 20 12 ?1 17 19 0 0 0 0 16 21 22 0 13 -18 20 29 0 23 16 24 25 ?1 29 12 34 0 1
6 25 6 -.05 .0087501 -.0375 29 25 31 0 20 26 12 693889390390723e-32 .0087501 -.0
375 29 26 28 0 24 27 25 693889390390723e-32 .0087501 .0375 18 24 26 0 28 20 29 2
6 ?1 29 27 25 0 29 0 26 -.05 .0087501 .0375 18 29 23 0 21 24 0 27 ?1 17 21 0 30
 28 13 29 19 22 0 31 +15 255 30 7 0 21 10 0 17 28 0 30 23 21 24 31 32 0 33 +17 1
3 0 30 21 23 16 34 8 0 0 +16 22 11 0 ?21 32 18 35 0 0 1 17 31 0 0 0 0 29 28 32 0
 0 -16 32 14 0 ?28 14 22 36 0 0 1 16 14 17 0 ?23 8 32 11 0 0 1 30 36 16 0 32 35
 11 0 +-.05 .0087501 .0375 1 0 0 30 35 13 0 22 37 36 0 +-.05 .0087501 -.0375 0 0
 1 30 11 19 0 14 36 5 0 +693889390390723e-32 .0087501 -.0375 0 0 -1 31 255 37 10
 0 18 0 35 0 +-.03125 .0087501 .02012 0 1 0 0 0 1 .0125 16 18 8 0 ?15 22 0 37 0
 0 1 17 23 0 30 13 28 20 33 14 0 34 +17 33 0 0 0 0 24 23 14 0 0 -17 34 0 0 0 0 2
0 13 8 0 0 -14 255 10 1 0 ?0 0 38 3 4 +0 0 0 0 3 15 38 6 0 17 10 30 17 17 0 38 1
7 17 9 15 18 0 0 -1 0 
